<svg xmlns="http://www.w3.org/2000/svg" viewBox="0 0 1920.68 939.66">
  <title>101154973-black-silhouette-lighthouse-building-flat-design-style-vector-illustration-isolated-on-white-backgro</title>
  <g id="leftTower">
    <g>
      <path d="M393.21,1117.49H.36V177.83H393.21ZM245.43,444.3H144.59v15.64c2.79-1.5,4.58,1.49,6.38,4.65,1.41,2.46,2.87,4.82,4.39,7,.94,1.34,1.11,2.86.93,4.93-.28,3.16-.48,6.35-.72,9.49l4,2.91c-.63,13.9-1.23,27.44-1.87,41q-1.4,29.46-2.82,58.91-1.58,33.08-3.11,66.16-1.68,35.42-3.4,70.83-1.77,37.38-3.49,74.79-1.53,32.36-3.1,64.71c-.68,14.5-1.32,29-2,43.51-1.11,23.25-2.3,46.48-3.3,69.74-.15,3.56-.64,4.32-2.32,4.31-17.54-.11-35.07-.06-52.6-.06h-2.1v75.89h232v-76H254.49q-11.73-247.35-23.43-494l3.65-2.62a10.22,10.22,0,0,0,0-1.59c-1.83-9.34.76-14.6,4.33-19.18,2-2.54,3.46-7,6.4-5.32ZM191,264.65a7.2,7.2,0,0,1-.73,1.07q-8.81,9.63-17.62,19.23c-6.41,7-12.84,13.86-19.25,20.83-2.87,3.12-2.92,3.39-2.42,9.93h15.16V322h5.31v54.77H158.71v27.14H232V376.5H220.3v-4.25q0-22.39,0-44.79c0-6.24-.32-5.44,2.65-5.52a13.61,13.61,0,0,0,1.6-.22c.06-2.1.11-4,.16-6.21h15.14c.44-6,.47-6.13-1.13-7.88q-17-18.53-34-37c-1.89-2.06-3.77-4.16-5.62-6.2.54-2.56,1.08-4.72,1.46-7s.67-4.62.92-7c1.15-10.7-3.47-15.83-7.24-14.62-4.1,1.31-6.25,8-5.24,14.73C189.67,255.16,190.32,259.73,191,264.65Zm37.82,143.69h-67v32.74h67Z" transform="translate(-0.36 -177.83)" style="fill: #fff"/>
      <path d="M245.43,444.3v15.62c-2.94-1.7-4.42,2.78-6.4,5.32-3.57,4.58-6.16,9.84-4.33,19.18a10.22,10.22,0,0,1,0,1.59l-3.65,2.62q11.72,246.95,23.43,494h56.93v76H79.47V982.76h2.1c17.53,0,35.06,0,52.6.06,1.68,0,2.17-.75,2.32-4.31,1-23.26,2.19-46.49,3.3-69.74.69-14.5,1.33-29,2-43.51q1.55-32.37,3.1-64.71,1.75-37.39,3.49-74.79,1.68-35.41,3.4-70.83,1.58-33.07,3.11-66.16,1.4-29.46,2.82-58.91c.64-13.53,1.24-27.07,1.87-41l-4-2.91c.24-3.14.44-6.33.72-9.49.18-2.07,0-3.59-.93-4.93-1.52-2.15-3-4.51-4.39-7-1.8-3.16-3.59-6.15-6.38-4.65V444.3ZM141.68,982.65H249c-1.37-29.89-2.72-59.43-4.08-89.1H145.77C144.41,923.29,143.05,952.83,141.68,982.65ZM240,788.92c0-.88.07-1.24.05-1.59-.92-19.29-1.91-38.56-2.73-57.86-.15-3.61-.59-4.79-2.5-4.78-26.46.13-52.92.09-79.39.1a15.36,15.36,0,0,0-1.9.22c-1,21.47-2,42.52-2.95,63.91Zm-7.94-170.46c0-1.38,0-2.34,0-3.29-.68-14.74-1.42-29.48-2-44.23-.12-3-.63-3.71-2.07-3.7-21.81.09-43.63.07-65.45.08a17.55,17.55,0,0,0-1.75.17c-.77,17.15-1.53,33.9-2.3,51Zm-23.21,37c.29-6.23.28-6.21-2.27-8.72-3.19-3.15-6.34-6.46-9.57-9.44a1.86,1.86,0,0,0-2.46-.12c-3.54,3.05-7,6.43-10.52,9.64-2.57,2.35-2.64,2.6-2,8.5l2.24.56v48h23.15v-4.11q0-20.24,0-40.46C207.41,657.07,207.4,655.14,208.86,655.42ZM183.92,508v47.79H207V508.63l.42.35a12.88,12.88,0,0,0,1.06-3.23c.14-2,.34-4.14-1-5.44-3.71-3.49-7.31-7.42-11-10.87a2.08,2.08,0,0,0-2.67.29c-3.38,2.85-6.7,6-10.05,9-2.4,2.15-2.68,3.24-2.05,8.63Zm22.3,359.59v-4.41c0-13.37,0-26.74,0-40.1,0-2.28-.05-4.45,1.63-4.31-.32-2.64.7-5.48-1.06-7.17-3.86-3.7-7.65-7.68-11.5-11.43a1.09,1.09,0,0,0-1.48,0c-3.68,3.33-7.33,6.76-11,10.21-2.49,2.35-2.5,2.49-1.91,8.28l2.21.58v48.31ZM156.05,459.9l-.08.65,4.69,6.07.36-6.72Zm74,6.46c1.7-2.24,3.09-4.06,4.82-6.32h-5.16C229.78,462.11,229.87,463.86,230,466.36Z" transform="translate(-0.36 -177.83)"/>
      <path d="M191,264.65c-.72-4.92-1.37-9.49-2-14-1-6.75,1.14-13.42,5.24-14.73,3.77-1.21,8.39,3.92,7.24,14.62-.25,2.34-.53,4.69-.92,7s-.92,4.42-1.46,7c1.85,2,3.73,4.14,5.62,6.2q17,18.5,34,37c1.6,1.75,1.57,1.85,1.13,7.88H224.71c-.05,2.25-.1,4.11-.16,6.21a13.61,13.61,0,0,1-1.6.22c-3,.08-2.64-.72-2.65,5.52q0,22.4,0,44.79v4.25H232v27.39H158.71V376.75h12.78V322h-5.31v-6.27H151c-.5-6.54-.45-6.81,2.42-9.93,6.41-7,12.84-13.87,19.25-20.83q8.82-9.58,17.62-19.23A7.2,7.2,0,0,0,191,264.65Zm-16.9,82.45v22.22h6.77V347.1Zm43.73,22.36v-22.3h-6.36v22.3Zm-36.93-47.22h-6.79v19.81h6.79Zm30.49-.09V342h6.43V322.15Zm-2.53,25.14h-4.48v22.16h4.48Zm0-25.34a17.66,17.66,0,0,0-3.6.08,2.38,2.38,0,0,0-1,1.75c-.08,6.05-.05,12.11-.05,18.24h4.69Zm14.35,59.67v11.32h6.3V381.62Zm-36.53-12.16V347.24h-3.15v22.22Zm-3.13-47.24v19.84h3.14V322.22ZM161.11,393H166V381.65h-4.89Zm43.24,0h4.46v-11.3h-4.46Zm-20.78,0h3.19V381.65h-3.19ZM215,381.6V393h2.9V381.6Zm-46.26,0V393h2.78V381.57Zm7.9,11.46V381.66h-2.45V393Zm2.69-11.41v11.65l1.62-.32V381.62Zm1.91-7-.33-1c-2,0-4-.09-5.93.09-.36,0-.69,1.21-1,1.86l.32,1c2,0,4,.09,5.94-.09C180.51,376.49,180.84,375.31,181.19,374.66Zm30.42-1-.35.91c.34.67.66,1.88,1,1.92a54.44,54.44,0,0,0,5.57.09l.29-1.14c-.37-.59-.73-1.66-1.12-1.7C215.22,373.6,213.41,373.7,211.61,373.7Zm-7.19,2.71c4.29.7,4.46.6,4.33-2.45C204.8,373.09,204.42,373.29,204.42,376.41Zm7.16,16.69c1.34-2.77,1.15-10.26,0-11.48ZM183.68,374c-.12,3,.22,3.26,3,2.26C186.72,373.28,186.7,373.26,183.68,374Zm36.64,18.08h.23V382.8l-.23,0Z" transform="translate(-0.36 -177.83)"/>
      <path d="M228.86,408.34v32.74h-67V408.34Z" transform="translate(-0.36 -177.83)"/>
      <path d="M141.68,982.65c1.37-29.82,2.73-59.36,4.09-89.1H244.9c1.36,29.67,2.71,59.21,4.08,89.1Z" transform="translate(-0.36 -177.83)" style="fill: #fff"/>
      <path d="M240,788.92H150.59c1-21.39,2-42.44,2.95-63.91a15.36,15.36,0,0,1,1.9-.22c26.47,0,52.93,0,79.39-.1,1.91,0,2.35,1.17,2.5,4.78.82,19.3,1.81,38.57,2.73,57.86C240.08,787.68,240,788,240,788.92Z" transform="translate(-0.36 -177.83)" style="fill: #fff"/>
      <path d="M232.07,618.46h-73.6c.77-17.07,1.53-33.82,2.3-51a17.55,17.55,0,0,1,1.75-.17c21.82,0,43.64,0,65.45-.08,1.44,0,1.95.68,2.07,3.7.6,14.75,1.34,29.49,2,44.23C232.11,616.12,232.07,617.08,232.07,618.46Z" transform="translate(-0.36 -177.83)" style="fill: #fff"/>
      <path d="M208.86,655.42c-1.46-.28-1.45,1.65-1.44,3.86q0,20.24,0,40.46v4.11H184.29v-48l-2.24-.56c-.65-5.9-.58-6.15,2-8.5,3.51-3.21,7-6.59,10.52-9.64a1.86,1.86,0,0,1,2.46.12c3.23,3,6.38,6.29,9.57,9.44C209.14,649.21,209.15,649.19,208.86,655.42Zm-20.17,15.21v25.24h6.05V670.63Zm13.89.08h-5.64v25.22h5.64Zm-13.88-4.48h6.12V647.12C188.61,648.76,188.15,653.39,188.7,666.23Zm8.21-18.56v18.52h5.6C203.56,653.52,201.25,648.5,196.91,647.67Z" transform="translate(-0.36 -177.83)" style="fill: #fff"/>
      <path d="M183.92,508l-2.25-.56c-.63-5.39-.35-6.48,2.05-8.63,3.35-3,6.67-6.18,10.05-9a2.08,2.08,0,0,1,2.67-.29c3.71,3.45,7.31,7.38,11,10.87,1.38,1.3,1.18,3.44,1,5.44a12.88,12.88,0,0,1-1.06,3.23l-.42-.35v47.11h-23.1Zm18.27,14.64h-5.75V548h5.75ZM194.34,548V522.63h-6V548Zm0-48.29c-5-.2-7.1,6.3-5.94,18.47h5.94Zm7.75,18.55c1.11-13.07-1.54-17.55-5.63-18.14v18.14Z" transform="translate(-0.36 -177.83)" style="fill: #fff"/>
      <path d="M206.22,867.54h-23.1V819.23l-2.21-.58c-.59-5.79-.58-5.93,1.91-8.28,3.65-3.45,7.3-6.88,11-10.21a1.09,1.09,0,0,1,1.48,0c3.85,3.75,7.64,7.73,11.5,11.43,1.76,1.69.74,4.53,1.06,7.17-1.68-.14-1.63,2-1.63,4.31,0,13.36,0,26.73,0,40.1Zm-12.71-8V834.4h-6v25.18Zm2.16-25.29v25.3h5.67v-25.3Zm-2.13-23.16c-5.82-.1-6.86,7.48-5.94,18.71h5.94Zm2.14,19h2c3.77,0,3.77,0,3.75-7.63,0-6.5-2.35-11.06-5.77-11.15Z" transform="translate(-0.36 -177.83)" style="fill: #fff"/>
      <path d="M156.05,459.9h5l-.36,6.72L156,460.55Z" transform="translate(-0.36 -177.83)" style="fill: #fff"/>
      <path d="M230,466.36c-.14-2.5-.23-4.25-.34-6.32h5.16C233.1,462.3,231.71,464.12,230,466.36Z" transform="translate(-0.36 -177.83)" style="fill: #fff"/>
      <path d="M174.14,347.1h6.77v22.22h-6.77Z" transform="translate(-0.36 -177.83)" style="fill: #fff"/>
      <path d="M217.87,369.46h-6.36v-22.3h6.36Z" transform="translate(-0.36 -177.83)" style="fill: #fff"/>
      <path d="M180.94,322.24v19.81h-6.79V322.24Z" transform="translate(-0.36 -177.83)" style="fill: #fff"/>
      <path d="M211.43,322.15h6.43V342h-6.43Z" transform="translate(-0.36 -177.83)" style="fill: #fff"/>
      <path d="M208.9,347.29v22.16h-4.48V347.29Z" transform="translate(-0.36 -177.83)" style="fill: #fff"/>
      <path d="M208.91,322V342h-4.69c0-6.13,0-12.19.05-18.24a2.38,2.38,0,0,1,1-1.75A17.66,17.66,0,0,1,208.91,322Z" transform="translate(-0.36 -177.83)" style="fill: #fff"/>
      <path d="M223.26,381.62h6.3v11.32h-6.3Z" transform="translate(-0.36 -177.83)" style="fill: #fff"/>
      <path d="M186.73,369.46h-3.15V347.24h3.15Z" transform="translate(-0.36 -177.83)" style="fill: #fff"/>
      <path d="M183.6,322.22h3.14v19.84H183.6Z" transform="translate(-0.36 -177.83)" style="fill: #fff"/>
      <path d="M161.11,393V381.65H166V393Z" transform="translate(-0.36 -177.83)" style="fill: #fff"/>
      <path d="M204.35,393v-11.3h4.46V393Z" transform="translate(-0.36 -177.83)" style="fill: #fff"/>
      <path d="M183.57,393V381.65h3.19V393Z" transform="translate(-0.36 -177.83)" style="fill: #fff"/>
      <path d="M215,381.6h2.9V393H215Z" transform="translate(-0.36 -177.83)" style="fill: #fff"/>
      <path d="M168.69,381.57h2.78V393h-2.78Z" transform="translate(-0.36 -177.83)" style="fill: #fff"/>
      <path d="M176.59,393h-2.45V381.66h2.45Z" transform="translate(-0.36 -177.83)" style="fill: #fff"/>
      <path d="M179.28,381.62h1.62V393l-1.62.32Z" transform="translate(-0.36 -177.83)" style="fill: #fff"/>
      <path d="M181.19,374.66c-.35.65-.68,1.83-1,1.87-2,.18-4,.09-5.94.09l-.32-1c.35-.65.68-1.82,1-1.86,2-.18,4-.09,5.93-.09Z" transform="translate(-0.36 -177.83)" style="fill: #fff"/>
      <path d="M211.61,373.7c1.8,0,3.61-.1,5.41.08.39,0,.75,1.11,1.12,1.7l-.29,1.14a54.44,54.44,0,0,1-5.57-.09c-.36,0-.68-1.25-1-1.92Z" transform="translate(-0.36 -177.83)" style="fill: #fff"/>
      <path d="M204.42,376.41c0-3.12.38-3.32,4.33-2.45C208.88,377,208.71,377.11,204.42,376.41Z" transform="translate(-0.36 -177.83)" style="fill: #fff"/>
      <path d="M211.58,393.1V381.62C212.73,382.84,212.92,390.33,211.58,393.1Z" transform="translate(-0.36 -177.83)" style="fill: #fff"/>
      <path d="M183.68,374c3-.72,3-.7,3,2.26C183.9,377.24,183.56,377,183.68,374Z" transform="translate(-0.36 -177.83)" style="fill: #fff"/>
      <path d="M220.32,392.06v-9.24l.23,0v9.27Z" transform="translate(-0.36 -177.83)" style="fill: #fff"/>
      <path d="M188.69,670.63h6.05v25.24h-6.05Z" transform="translate(-0.36 -177.83)"/>
      <path d="M202.58,670.71v25.22h-5.64V670.71Z" transform="translate(-0.36 -177.83)"/>
      <path d="M188.7,666.23c-.55-12.84-.09-17.47,6.12-19.11v19.11Z" transform="translate(-0.36 -177.83)"/>
      <path d="M196.91,647.67c4.34.83,6.65,5.85,5.6,18.52h-5.6Z" transform="translate(-0.36 -177.83)"/>
      <path d="M202.19,522.59V548h-5.75V522.59Z" transform="translate(-0.36 -177.83)"/>
      <path d="M194.34,548h-6V522.63h6Z" transform="translate(-0.36 -177.83)"/>
      <path d="M194.36,499.67v18.47h-5.94C187.26,506,189.35,499.47,194.36,499.67Z" transform="translate(-0.36 -177.83)"/>
      <path d="M202.11,518.22h-5.63V500.08C200.57,500.67,203.22,505.15,202.11,518.22Z" transform="translate(-0.36 -177.83)"/>
      <path d="M193.51,859.58h-6V834.4h6Z" transform="translate(-0.36 -177.83)"/>
      <path d="M195.67,834.29h5.67v25.3h-5.67Z" transform="translate(-0.36 -177.83)"/>
      <path d="M193.54,811.13v18.71H187.6C186.68,818.61,187.72,811,193.54,811.13Z" transform="translate(-0.36 -177.83)"/>
      <path d="M195.68,830.08V811.3c3.42.09,5.76,4.65,5.77,11.15,0,7.63,0,7.63-3.75,7.63Z" transform="translate(-0.36 -177.83)"/>
    </g>
    <g>
      <path d="M1921,1117.49H1528.19V177.83H1921ZM1773.26,444.3H1672.42v15.64c2.79-1.5,4.58,1.49,6.38,4.65,1.41,2.46,2.87,4.82,4.39,7,.94,1.34,1.11,2.86.93,4.93-.28,3.16-.48,6.35-.72,9.49l4,2.91c-.64,13.9-1.23,27.44-1.87,41q-1.4,29.46-2.82,58.91-1.57,33.08-3.11,66.16-1.68,35.42-3.4,70.83-1.77,37.38-3.49,74.79-1.53,32.36-3.1,64.71c-.68,14.5-1.32,29-2,43.51-1.11,23.25-2.3,46.48-3.3,69.74-.15,3.56-.64,4.32-2.32,4.31-17.54-.11-35.07-.06-52.6-.06h-2.1v75.89h232v-76h-56.93q-11.73-247.35-23.43-494l3.65-2.62a10.22,10.22,0,0,0,0-1.59c-1.83-9.34.76-14.6,4.33-19.18,2-2.54,3.46-7,6.4-5.32Zm-54.39-179.65a7.2,7.2,0,0,1-.73,1.07q-8.81,9.63-17.62,19.23c-6.41,7-12.84,13.86-19.25,20.83-2.87,3.12-2.92,3.39-2.42,9.93H1694V322h5.31v54.77h-12.78v27.14h73.33V376.5h-11.74v-4.25q0-22.39,0-44.79c0-6.24-.32-5.44,2.65-5.52a13.61,13.61,0,0,0,1.6-.22c.06-2.1.11-4,.16-6.21h15.14c.44-6,.47-6.13-1.13-7.88q-17-18.53-34-37c-1.89-2.06-3.77-4.16-5.62-6.2.54-2.56,1.08-4.72,1.46-7s.67-4.62.92-7c1.15-10.7-3.47-15.83-7.24-14.62-4.1,1.31-6.25,8-5.24,14.73C1717.5,255.16,1718.15,259.73,1718.87,264.65Zm37.82,143.69h-67v32.74h67Z" transform="translate(-0.36 -177.83)" style="fill: #fff"/>
      <path d="M1773.26,444.3v15.62c-2.94-1.7-4.42,2.78-6.4,5.32-3.57,4.58-6.16,9.84-4.33,19.18a10.22,10.22,0,0,1,0,1.59l-3.65,2.62q11.71,246.95,23.43,494h56.93v76h-232V982.76h2.1c17.53,0,35.06,0,52.6.06,1.68,0,2.17-.75,2.32-4.31,1-23.26,2.19-46.49,3.3-69.74.69-14.5,1.33-29,2-43.51q1.55-32.37,3.1-64.71,1.76-37.39,3.49-74.79,1.68-35.41,3.4-70.83,1.58-33.07,3.11-66.16,1.39-29.46,2.82-58.91c.64-13.53,1.23-27.07,1.87-41l-4-2.91c.24-3.14.44-6.33.72-9.49.18-2.07,0-3.59-.93-4.93-1.52-2.15-3-4.51-4.39-7-1.8-3.16-3.59-6.15-6.38-4.65V444.3ZM1669.5,982.65h107.31c-1.37-29.89-2.72-59.43-4.08-89.1H1673.6C1672.24,923.29,1670.88,952.83,1669.5,982.65Zm98.34-193.73c0-.88.06-1.24.05-1.59-.92-19.29-1.91-38.56-2.73-57.86-.15-3.61-.59-4.79-2.5-4.78-26.46.13-52.92.09-79.39.1a15.36,15.36,0,0,0-1.9.22c-1,21.47-2,42.52-2.95,63.91Zm-7.94-170.46c0-1.38,0-2.34,0-3.29-.68-14.74-1.42-29.48-2-44.23-.12-3-.63-3.71-2.07-3.7-21.82.09-43.63.07-65.45.08a17.55,17.55,0,0,0-1.75.17c-.77,17.15-1.53,33.9-2.3,51Zm-23.21,37c.29-6.23.28-6.21-2.27-8.72-3.19-3.15-6.34-6.46-9.57-9.44a1.86,1.86,0,0,0-2.46-.12c-3.54,3.05-7,6.43-10.52,9.64-2.57,2.35-2.64,2.6-2,8.5l2.24.56v48h23.15v-4.11q0-20.24,0-40.46C1735.24,657.07,1735.23,655.14,1736.69,655.42ZM1711.75,508v47.79h23.1V508.63l.42.35a12.88,12.88,0,0,0,1.06-3.23c.13-2,.34-4.14-1-5.44-3.71-3.49-7.31-7.42-11-10.87a2.08,2.08,0,0,0-2.67.29c-3.38,2.85-6.7,6-10,9-2.4,2.15-2.68,3.24-2,8.63Zm22.3,359.59v-4.41q0-20.05,0-40.1c0-2.28,0-4.45,1.63-4.31-.32-2.64.7-5.48-1.06-7.17-3.86-3.7-7.65-7.68-11.5-11.43a1.09,1.09,0,0,0-1.48,0c-3.68,3.33-7.33,6.76-11,10.21-2.49,2.35-2.5,2.49-1.91,8.28l2.21.58v48.31ZM1683.88,459.9l-.08.65,4.69,6.07.36-6.72Zm74,6.46c1.7-2.24,3.09-4.06,4.82-6.32h-5.16C1757.61,462.11,1757.7,463.86,1757.84,466.36Z" transform="translate(-0.36 -177.83)"/>
      <path d="M1718.87,264.65c-.72-4.92-1.37-9.49-2-14-1-6.75,1.14-13.42,5.24-14.73,3.77-1.21,8.39,3.92,7.24,14.62-.25,2.34-.53,4.69-.92,7s-.92,4.42-1.46,7c1.85,2,3.73,4.14,5.62,6.2q17,18.5,34,37c1.6,1.75,1.57,1.85,1.13,7.88h-15.14c0,2.25-.1,4.11-.16,6.21a13.61,13.61,0,0,1-1.6.22c-3,.08-2.64-.72-2.65,5.52q0,22.4,0,44.79v4.25h11.74v27.39h-73.33V376.75h12.78V322H1694v-6.27h-15.16c-.5-6.54-.45-6.81,2.42-9.93,6.41-7,12.84-13.87,19.25-20.83q8.82-9.58,17.62-19.23A7.2,7.2,0,0,0,1718.87,264.65ZM1702,347.1v22.22h6.77V347.1Zm43.73,22.36v-22.3h-6.36v22.3Zm-36.93-47.22H1702v19.81h6.79Zm30.49-.09V342h6.43V322.15Zm-2.53,25.14h-4.48v22.16h4.48Zm0-25.34a17.66,17.66,0,0,0-3.6.08,2.38,2.38,0,0,0-1,1.75c-.08,6.05,0,12.11,0,18.24h4.69Zm14.35,59.67v11.32h6.3V381.62Zm-36.53-12.16V347.24h-3.15v22.22Zm-3.13-47.24v19.84h3.13V322.22ZM1688.94,393h4.89V381.65h-4.89Zm43.24,0h4.46v-11.3h-4.46Zm-20.78,0h3.19V381.65h-3.19Zm31.38-11.37V393h2.9V381.6Zm-46.26,0V393h2.78V381.57Zm7.9,11.46V381.66H1702V393Zm2.69-11.41v11.65l1.62-.32V381.62Zm1.91-7-.33-1c-2,0-4-.09-5.93.09-.36,0-.69,1.21-1,1.86l.32,1c2,0,4,.09,5.94-.09C1708.34,376.49,1708.67,375.31,1709,374.66Zm30.42-1-.35.91c.34.67.66,1.88,1,1.92a54.44,54.44,0,0,0,5.57.09l.29-1.14c-.37-.59-.73-1.66-1.12-1.7C1743.05,373.6,1741.24,373.7,1739.44,373.7Zm-7.19,2.71c4.29.7,4.46.6,4.33-2.45C1732.63,373.09,1732.25,373.29,1732.25,376.41Zm7.16,16.69c1.34-2.77,1.15-10.26,0-11.48ZM1711.51,374c-.12,3,.22,3.26,3,2.26C1714.55,373.28,1714.53,373.26,1711.51,374Zm36.64,18.08h.23V382.8l-.23,0Z" transform="translate(-0.36 -177.83)"/>
      <path d="M1756.69,408.34v32.74h-67V408.34Z" transform="translate(-0.36 -177.83)"/>
      <path d="M1669.5,982.65c1.38-29.82,2.74-59.36,4.1-89.1h99.13c1.36,29.67,2.71,59.21,4.08,89.1Z" transform="translate(-0.36 -177.83)" style="fill: #fff"/>
      <path d="M1767.84,788.92h-89.42c1-21.39,2-42.44,2.95-63.91a15.36,15.36,0,0,1,1.9-.22c26.47,0,52.93,0,79.39-.1,1.91,0,2.35,1.17,2.5,4.78.82,19.3,1.81,38.57,2.73,57.86C1767.9,787.68,1767.87,788,1767.84,788.92Z" transform="translate(-0.36 -177.83)" style="fill: #fff"/>
      <path d="M1759.9,618.46h-73.6c.77-17.07,1.53-33.82,2.3-51a17.55,17.55,0,0,1,1.75-.17c21.82,0,43.63,0,65.45-.08,1.44,0,2,.68,2.07,3.7.6,14.75,1.34,29.49,2,44.23C1759.94,616.12,1759.9,617.08,1759.9,618.46Z" transform="translate(-0.36 -177.83)" style="fill: #fff"/>
      <path d="M1736.69,655.42c-1.46-.28-1.45,1.65-1.44,3.86q0,20.24,0,40.46v4.11h-23.15v-48l-2.24-.56c-.65-5.9-.58-6.15,2-8.5,3.51-3.21,7-6.59,10.52-9.64a1.86,1.86,0,0,1,2.46.12c3.23,3,6.38,6.29,9.57,9.44C1737,649.21,1737,649.19,1736.69,655.42Zm-20.17,15.21v25.24h6V670.63Zm13.89.08h-5.64v25.22h5.64Zm-13.88-4.48h6.12V647.12C1716.44,648.76,1716,653.39,1716.53,666.23Zm8.21-18.56v18.52h5.6C1731.39,653.52,1729.08,648.5,1724.74,647.67Z" transform="translate(-0.36 -177.83)" style="fill: #fff"/>
      <path d="M1711.75,508l-2.25-.56c-.63-5.39-.35-6.48,2-8.63,3.35-3,6.67-6.18,10-9a2.08,2.08,0,0,1,2.67-.29c3.71,3.45,7.31,7.38,11,10.87,1.38,1.3,1.17,3.44,1,5.44a12.88,12.88,0,0,1-1.06,3.23l-.42-.35v47.11h-23.1ZM1730,522.59h-5.75V548H1730ZM1722.17,548V522.63h-6V548Zm0-48.29c-5-.2-7.1,6.3-5.94,18.47h5.94Zm7.75,18.55c1.11-13.07-1.54-17.55-5.63-18.14v18.14Z" transform="translate(-0.36 -177.83)" style="fill: #fff"/>
      <path d="M1734.05,867.54H1711V819.23l-2.21-.58c-.59-5.79-.58-5.93,1.91-8.28,3.65-3.45,7.3-6.88,11-10.21a1.09,1.09,0,0,1,1.48,0c3.85,3.75,7.64,7.73,11.5,11.43,1.76,1.69.74,4.53,1.06,7.17-1.68-.14-1.63,2-1.63,4.31q0,20,0,40.1Zm-12.71-8V834.4h-6v25.18Zm2.16-25.29v25.3h5.67v-25.3Zm-2.13-23.16c-5.82-.1-6.86,7.48-5.94,18.71h5.94Zm2.14,19h2c3.77,0,3.77,0,3.75-7.63,0-6.5-2.35-11.06-5.77-11.15Z" transform="translate(-0.36 -177.83)" style="fill: #fff"/>
      <path d="M1683.88,459.9h5l-.36,6.72-4.69-6.07Z" transform="translate(-0.36 -177.83)" style="fill: #fff"/>
      <path d="M1757.84,466.36c-.14-2.5-.23-4.25-.34-6.32h5.16C1760.93,462.3,1759.54,464.12,1757.84,466.36Z" transform="translate(-0.36 -177.83)" style="fill: #fff"/>
      <path d="M1702,347.1h6.77v22.22H1702Z" transform="translate(-0.36 -177.83)" style="fill: #fff"/>
      <path d="M1745.7,369.46h-6.36v-22.3h6.36Z" transform="translate(-0.36 -177.83)" style="fill: #fff"/>
      <path d="M1708.77,322.24v19.81H1702V322.24Z" transform="translate(-0.36 -177.83)" style="fill: #fff"/>
      <path d="M1739.26,322.15h6.43V342h-6.43Z" transform="translate(-0.36 -177.83)" style="fill: #fff"/>
      <path d="M1736.73,347.29v22.16h-4.48V347.29Z" transform="translate(-0.36 -177.83)" style="fill: #fff"/>
      <path d="M1736.74,322V342h-4.69c0-6.13,0-12.19,0-18.24a2.38,2.38,0,0,1,1-1.75A17.66,17.66,0,0,1,1736.74,322Z" transform="translate(-0.36 -177.83)" style="fill: #fff"/>
      <path d="M1751.09,381.62h6.3v11.32h-6.3Z" transform="translate(-0.36 -177.83)" style="fill: #fff"/>
      <path d="M1714.56,369.46h-3.15V347.24h3.15Z" transform="translate(-0.36 -177.83)" style="fill: #fff"/>
      <path d="M1711.43,322.22h3.13v19.84h-3.13Z" transform="translate(-0.36 -177.83)" style="fill: #fff"/>
      <path d="M1688.94,393V381.65h4.89V393Z" transform="translate(-0.36 -177.83)" style="fill: #fff"/>
      <path d="M1732.18,393v-11.3h4.46V393Z" transform="translate(-0.36 -177.83)" style="fill: #fff"/>
      <path d="M1711.4,393V381.65h3.19V393Z" transform="translate(-0.36 -177.83)" style="fill: #fff"/>
      <path d="M1742.78,381.6h2.9V393h-2.9Z" transform="translate(-0.36 -177.83)" style="fill: #fff"/>
      <path d="M1696.52,381.57h2.78V393h-2.78Z" transform="translate(-0.36 -177.83)" style="fill: #fff"/>
      <path d="M1704.42,393H1702V381.66h2.45Z" transform="translate(-0.36 -177.83)" style="fill: #fff"/>
      <path d="M1707.11,381.62h1.62V393l-1.62.32Z" transform="translate(-0.36 -177.83)" style="fill: #fff"/>
      <path d="M1709,374.66c-.35.65-.68,1.83-1,1.87-2,.18-4,.09-5.94.09l-.32-1c.35-.65.68-1.82,1-1.86,2-.18,4-.09,5.93-.09Z" transform="translate(-0.36 -177.83)" style="fill: #fff"/>
      <path d="M1739.44,373.7c1.8,0,3.61-.1,5.41.08.39,0,.75,1.11,1.12,1.7l-.29,1.14a54.44,54.44,0,0,1-5.57-.09c-.36,0-.68-1.25-1-1.92Z" transform="translate(-0.36 -177.83)" style="fill: #fff"/>
      <path d="M1732.25,376.41c0-3.12.38-3.32,4.33-2.45C1736.71,377,1736.54,377.11,1732.25,376.41Z" transform="translate(-0.36 -177.83)" style="fill: #fff"/>
      <path d="M1739.41,393.1V381.62C1740.56,382.84,1740.75,390.33,1739.41,393.1Z" transform="translate(-0.36 -177.83)" style="fill: #fff"/>
      <path d="M1711.51,374c3-.72,3-.7,3,2.26C1711.73,377.24,1711.39,377,1711.51,374Z" transform="translate(-0.36 -177.83)" style="fill: #fff"/>
      <path d="M1748.15,392.06v-9.24l.23,0v9.27Z" transform="translate(-0.36 -177.83)" style="fill: #fff"/>
      <path d="M1716.52,670.63h6v25.24h-6Z" transform="translate(-0.36 -177.83)"/>
      <path d="M1730.41,670.71v25.22h-5.64V670.71Z" transform="translate(-0.36 -177.83)"/>
      <path d="M1716.53,666.23c-.55-12.84-.09-17.47,6.12-19.11v19.11Z" transform="translate(-0.36 -177.83)"/>
      <path d="M1724.74,647.67c4.34.83,6.65,5.85,5.6,18.52h-5.6Z" transform="translate(-0.36 -177.83)"/>
      <path d="M1730,522.59V548h-5.75V522.59Z" transform="translate(-0.36 -177.83)"/>
      <path d="M1722.17,548h-6V522.63h6Z" transform="translate(-0.36 -177.83)"/>
      <path d="M1722.19,499.67v18.47h-5.94C1715.09,506,1717.18,499.47,1722.19,499.67Z" transform="translate(-0.36 -177.83)"/>
      <path d="M1729.94,518.22h-5.63V500.08C1728.4,500.67,1731.05,505.15,1729.94,518.22Z" transform="translate(-0.36 -177.83)"/>
      <path d="M1721.34,859.58h-6V834.4h6Z" transform="translate(-0.36 -177.83)"/>
      <path d="M1723.5,834.29h5.67v25.3h-5.67Z" transform="translate(-0.36 -177.83)"/>
      <path d="M1721.37,811.13v18.71h-5.94C1714.51,818.61,1715.55,811,1721.37,811.13Z" transform="translate(-0.36 -177.83)"/>
      <path d="M1723.51,830.08V811.3c3.42.09,5.76,4.65,5.77,11.15,0,7.63,0,7.63-3.75,7.63Z" transform="translate(-0.36 -177.83)"/>
    </g>
    <g>
      <path d="M768.9,906.94H528.41V453.2H768.9ZM678.43,581.87H616.71v7.56c1.7-.73,2.8.72,3.9,2.24A41.82,41.82,0,0,0,623.3,595a2.78,2.78,0,0,1,.56,2.38c-.17,1.52-.29,3.07-.43,4.58l2.45,1.41c-.38,6.71-.75,13.24-1.14,19.78-.56,9.48-1.16,19-1.73,28.45-.64,10.65-1.25,21.3-1.9,32-.68,11.4-1.4,22.79-2.08,34.19q-1.08,18.06-2.14,36.12c-.62,10.42-1.27,20.83-1.89,31.25-.42,7-.81,14-1.24,21-.67,11.22-1.4,22.44-2,33.68-.09,1.72-.4,2.08-1.43,2.08-10.73-.06-21.46,0-32.19,0h-1.29v36.64h142v-36.7H684q-7.17-119.45-14.34-238.55l2.23-1.27a3.81,3.81,0,0,0,0-.76c-1.12-4.51.46-7,2.65-9.27,1.21-1.22,2.11-3.38,3.91-2.56Zm-33.29-86.75a3.34,3.34,0,0,1-.45.52l-10.79,9.29c-3.92,3.36-7.85,6.69-11.78,10.05-1.76,1.51-1.78,1.64-1.48,4.8h9.28v3h3.25v26.44h-7.82v13.11h44.89V549.14h-7.19V525.46c0-3-.19-2.63,1.62-2.67.32,0,.64-.07,1-.11,0-1,.07-1.91.1-3H675c.27-2.92.29-3-.7-3.81q-10.4-9-20.81-17.86c-1.16-1-2.31-2-3.44-3,.33-1.23.66-2.28.89-3.37s.41-2.23.56-3.36c.71-5.16-2.12-7.64-4.43-7.06-2.51.63-3.82,3.86-3.21,7.11C644.3,490.54,644.7,492.75,645.14,495.12Zm23.15,69.39h-41v15.81h41Z" transform="translate(-0.36 -177.83)" style="fill: #fff"/>
      <path d="M678.43,581.87v7.55c-1.8-.82-2.7,1.34-3.91,2.56-2.19,2.22-3.77,4.76-2.65,9.27a3.81,3.81,0,0,1,0,.76l-2.23,1.27Q676.81,722.53,684,841.83h34.85v36.7h-142V841.89h1.29c10.73,0,21.46,0,32.19,0,1,0,1.34-.36,1.43-2.08.61-11.24,1.34-22.46,2-33.68.43-7,.82-14,1.24-21,.62-10.42,1.27-20.83,1.89-31.25Q618,735.84,619,717.78c.68-11.4,1.4-22.79,2.08-34.19.65-10.65,1.26-21.3,1.9-32,.57-9.49,1.17-19,1.73-28.45.39-6.54.76-13.07,1.14-19.78L623.43,602c.14-1.51.26-3.06.43-4.58a2.78,2.78,0,0,0-.56-2.38,41.82,41.82,0,0,1-2.69-3.37c-1.1-1.52-2.2-3-3.9-2.24v-7.56Zm-63.51,260h65.69c-.84-14.43-1.67-28.69-2.5-43H617.43C616.59,813.17,615.76,827.43,614.92,841.83Zm60.2-93.55c0-.42,0-.59,0-.76-.57-9.32-1.17-18.62-1.67-27.94-.09-1.74-.37-2.31-1.53-2.31-16.2.06-32.4,0-48.6.05-.39,0-.78.07-1.17.1-.6,10.37-1.2,20.53-1.8,30.86ZM670.26,666c0-.66,0-1.13,0-1.59-.42-7.12-.87-14.23-1.24-21.35-.07-1.46-.38-1.79-1.26-1.79-13.36,0-26.71,0-40.07,0-.36,0-.71.05-1.07.08-.48,8.28-.94,16.37-1.41,24.61Zm-14.21,17.85c.17-3,.17-3-1.39-4.21-1.95-1.52-3.88-3.12-5.86-4.56a1.4,1.4,0,0,0-1.51-.06c-2.16,1.48-4.29,3.11-6.44,4.66-1.57,1.13-1.61,1.25-1.22,4.1L641,684V707.2h14.17v-2c0-6.51,0-13,0-19.53C655.16,684.62,655.15,683.69,656.05,683.82Zm-15.27-71.21v23.07h14.14V612.94l.26.17a5.39,5.39,0,0,0,.65-1.56c.08-1,.21-2-.64-2.63-2.27-1.68-4.47-3.58-6.75-5.25a1.52,1.52,0,0,0-1.63.14c-2.07,1.38-4.1,2.91-6.15,4.36-1.47,1-1.64,1.57-1.26,4.17Zm13.65,173.64v-2.13q0-9.69,0-19.36c0-1.1,0-2.15,1-2.09-.2-1.27.42-2.64-.66-3.46-2.36-1.78-4.68-3.7-7-5.51a.82.82,0,0,0-.91,0c-2.25,1.61-4.49,3.27-6.72,4.93-1.52,1.14-1.54,1.21-1.17,4l1.35.28v23.33ZM623.72,589.41l-.05.31,2.87,2.93.22-3.24ZM669,592.53l3-3.06h-3.15Z" transform="translate(-0.36 -177.83)"/>
      <path d="M645.14,495.12c-.44-2.37-.84-4.58-1.26-6.78-.61-3.25.7-6.48,3.21-7.11,2.31-.58,5.14,1.9,4.43,7.06-.15,1.13-.32,2.27-.56,3.36s-.56,2.14-.89,3.37c1.13,1,2.28,2,3.44,3q10.41,8.93,20.81,17.86c1,.84,1,.89.7,3.81h-9.27c0,1.08-.06,2-.1,3-.34,0-.66.1-1,.11-1.81,0-1.61-.35-1.62,2.67v23.68h7.19v13.22H625.35V549.25h7.82V522.81h-3.25v-3h-9.28c-.3-3.16-.28-3.29,1.48-4.8,3.93-3.36,7.86-6.69,11.78-10.05l10.79-9.29A3.34,3.34,0,0,0,645.14,495.12Zm-10.35,39.82v10.73h4.15V534.94Zm26.77,10.79V535h-3.89v10.76ZM639,522.93H634.8v9.57H639Zm18.67,0v9.61h3.94v-9.61ZM656.07,535h-2.74v10.7h2.74Zm0-12.24a14.33,14.33,0,0,0-2.2,0,1.13,1.13,0,0,0-.64.85c0,2.92,0,5.84,0,8.81h2.87Zm8.78,28.82v5.46h3.86v-5.46Zm-22.36-5.87V535h-1.93v10.73Zm-1.91-22.82v9.59h1.91v-9.59Zm-13.77,34.2h3v-5.5h-3Zm26.47,0H656v-5.45h-2.73Zm-12.72,0h1.95v-5.47h-1.95Zm19.21-5.49v5.48h1.77V551.6Zm-28.32,0v5.54h1.7v-5.54Zm4.84,5.54v-5.5h-1.51v5.5Zm1.64-5.51v5.62l1-.15v-5.47Zm1.17-3.36-.2-.47c-1.21,0-2.42,0-3.63.05-.22,0-.43.58-.64.89l.2.47c1.21,0,2.42,0,3.63,0C638.69,549.13,638.9,548.56,639.11,548.25Zm18.62-.47-.21.44c.2.32.4.91.62.93,1.14.09,2.28,0,3.41,0l.18-.55c-.23-.28-.45-.8-.69-.82C659.94,547.73,658.84,547.78,657.73,547.78Zm-4.4,1.31c2.63.34,2.73.29,2.65-1.18C653.56,547.49,653.33,547.59,653.33,549.09Zm4.38,8.06c.82-1.34.71-5,0-5.54Zm-17.08-9.23c-.07,1.45.14,1.57,1.87,1.09C642.49,547.58,642.48,547.57,640.63,547.92Zm22.43,8.73h.14v-4.47h-.14Z" transform="translate(-0.36 -177.83)"/>
      <path d="M668.29,564.51v15.81h-41V564.51Z" transform="translate(-0.36 -177.83)"/>
      <path d="M614.92,841.83c.84-14.4,1.67-28.66,2.51-43h60.68c.83,14.33,1.66,28.59,2.5,43Z" transform="translate(-0.36 -177.83)" style="fill: #fff"/>
      <path d="M675.12,748.28H620.38c.6-10.33,1.2-20.49,1.8-30.86.39,0,.78-.1,1.17-.1,16.2,0,32.4,0,48.6-.05,1.16,0,1.44.57,1.53,2.31.5,9.32,1.1,18.62,1.67,27.94C675.16,747.69,675.13,747.86,675.12,748.28Z" transform="translate(-0.36 -177.83)" style="fill: #fff"/>
      <path d="M670.26,666H625.2c.47-8.24.93-16.33,1.41-24.61.36,0,.71-.08,1.07-.08,13.36,0,26.71,0,40.07,0,.88,0,1.19.33,1.26,1.79.37,7.12.82,14.23,1.24,21.35C670.28,664.84,670.26,665.31,670.26,666Z" transform="translate(-0.36 -177.83)" style="fill: #fff"/>
      <path d="M656.05,683.82c-.9-.13-.89.8-.88,1.87,0,6.51,0,13,0,19.53v2H641V684l-1.38-.27c-.39-2.85-.35-3,1.22-4.1,2.15-1.55,4.28-3.18,6.44-4.66a1.4,1.4,0,0,1,1.51.06c2,1.44,3.91,3,5.86,4.56C656.22,680.82,656.22,680.81,656.05,683.82Zm-12.35,7.35v12.18h3.7V691.17Zm8.5,0h-3.45v12.18h3.45ZM643.7,689h3.75v-9.23C643.65,680.6,643.37,682.84,643.7,689Zm5-9V689h3.43C652.8,682.9,651.39,680.48,648.73,680.08Z" transform="translate(-0.36 -177.83)" style="fill: #fff"/>
      <path d="M640.78,612.61l-1.38-.27c-.38-2.6-.21-3.13,1.26-4.17,2.05-1.45,4.08-3,6.15-4.36a1.52,1.52,0,0,1,1.63-.14c2.28,1.67,4.48,3.57,6.75,5.25.85.63.72,1.66.64,2.63a5.39,5.39,0,0,1-.65,1.56l-.26-.17v22.74H640.78ZM652,619.68h-3.51v12.26H652Zm-4.8,12.25V619.7h-3.7v12.23Zm0-23.32c-3.07-.1-4.34,3-3.63,8.92h3.63Zm4.74,9c.69-6.31-.94-8.48-3.44-8.76v8.76Z" transform="translate(-0.36 -177.83)" style="fill: #fff"/>
      <path d="M654.43,786.25H640.29V762.92l-1.35-.28c-.37-2.79-.35-2.86,1.17-4,2.23-1.66,4.47-3.32,6.72-4.93a.82.82,0,0,1,.91,0c2.35,1.81,4.67,3.73,7,5.51,1.08.82.46,2.19.66,3.46-1-.06-1,1-1,2.09q0,9.68,0,19.36Zm-7.78-3.84V770.24H643v12.17ZM648,770.19v12.22h3.47V770.19ZM646.67,759c-3.56,0-4.2,3.61-3.64,9h3.64Zm1.31,9.15h1.24c2.31,0,2.31,0,2.29-3.68,0-3.14-1.44-5.34-3.53-5.39Z" transform="translate(-0.36 -177.83)" style="fill: #fff"/>
      <path d="M623.72,589.41h3l-.22,3.24-2.87-2.93Z" transform="translate(-0.36 -177.83)" style="fill: #fff"/>
      <path d="M669,592.53l-.2-3.06h3.15Z" transform="translate(-0.36 -177.83)" style="fill: #fff"/>
      <path d="M634.79,534.94h4.15v10.73h-4.15Z" transform="translate(-0.36 -177.83)" style="fill: #fff"/>
      <path d="M661.56,545.73h-3.89V535h3.89Z" transform="translate(-0.36 -177.83)" style="fill: #fff"/>
      <path d="M639,522.93v9.57H634.8v-9.57Z" transform="translate(-0.36 -177.83)" style="fill: #fff"/>
      <path d="M657.62,522.89h3.94v9.61h-3.94Z" transform="translate(-0.36 -177.83)" style="fill: #fff"/>
      <path d="M656.07,535v10.7h-2.74V535Z" transform="translate(-0.36 -177.83)" style="fill: #fff"/>
      <path d="M656.08,522.79v9.7h-2.87c0-3,0-5.89,0-8.81a1.13,1.13,0,0,1,.64-.85A14.33,14.33,0,0,1,656.08,522.79Z" transform="translate(-0.36 -177.83)" style="fill: #fff"/>
      <path d="M664.86,551.61h3.86v5.46h-3.86Z" transform="translate(-0.36 -177.83)" style="fill: #fff"/>
      <path d="M642.5,545.74h-1.93V535h1.93Z" transform="translate(-0.36 -177.83)" style="fill: #fff"/>
      <path d="M640.59,522.92h1.91v9.59h-1.91Z" transform="translate(-0.36 -177.83)" style="fill: #fff"/>
      <path d="M626.82,557.12v-5.5h3v5.5Z" transform="translate(-0.36 -177.83)" style="fill: #fff"/>
      <path d="M653.29,557.11v-5.45H656v5.45Z" transform="translate(-0.36 -177.83)" style="fill: #fff"/>
      <path d="M640.57,557.09v-5.47h1.95v5.47Z" transform="translate(-0.36 -177.83)" style="fill: #fff"/>
      <path d="M659.78,551.6h1.77v5.48h-1.77Z" transform="translate(-0.36 -177.83)" style="fill: #fff"/>
      <path d="M631.46,551.58h1.7v5.54h-1.7Z" transform="translate(-0.36 -177.83)" style="fill: #fff"/>
      <path d="M636.3,557.12h-1.51v-5.5h1.51Z" transform="translate(-0.36 -177.83)" style="fill: #fff"/>
      <path d="M637.94,551.61h1v5.47l-1,.15Z" transform="translate(-0.36 -177.83)" style="fill: #fff"/>
      <path d="M639.11,548.25c-.21.31-.42.88-.64.9-1.21.09-2.42,0-3.63,0l-.2-.47c.21-.31.42-.88.64-.89,1.21-.09,2.42-.05,3.63-.05Z" transform="translate(-0.36 -177.83)" style="fill: #fff"/>
      <path d="M657.73,547.78c1.11,0,2.21,0,3.31,0,.24,0,.46.54.69.82l-.18.55c-1.13,0-2.27,0-3.41,0-.22,0-.42-.61-.62-.93Z" transform="translate(-0.36 -177.83)" style="fill: #fff"/>
      <path d="M653.33,549.09c0-1.5.23-1.6,2.65-1.18C656.06,549.38,656,549.43,653.33,549.09Z" transform="translate(-0.36 -177.83)" style="fill: #fff"/>
      <path d="M657.71,557.15v-5.54C658.42,552.19,658.53,555.81,657.71,557.15Z" transform="translate(-0.36 -177.83)" style="fill: #fff"/>
      <path d="M640.63,547.92c1.85-.35,1.86-.34,1.87,1.09C640.77,549.49,640.56,549.37,640.63,547.92Z" transform="translate(-0.36 -177.83)" style="fill: #fff"/>
      <path d="M663.06,556.65v-4.47h.14v4.47Z" transform="translate(-0.36 -177.83)" style="fill: #fff"/>
      <path d="M643.7,691.17h3.7v12.18h-3.7Z" transform="translate(-0.36 -177.83)"/>
      <path d="M652.2,691.2v12.18h-3.45V691.2Z" transform="translate(-0.36 -177.83)"/>
      <path d="M643.7,689c-.33-6.2-.05-8.44,3.75-9.23V689Z" transform="translate(-0.36 -177.83)"/>
      <path d="M648.73,680.08c2.66.4,4.07,2.82,3.43,8.94h-3.43Z" transform="translate(-0.36 -177.83)"/>
      <path d="M652,619.68v12.26h-3.51V619.68Z" transform="translate(-0.36 -177.83)"/>
      <path d="M647.16,631.93h-3.7V619.7h3.7Z" transform="translate(-0.36 -177.83)"/>
      <path d="M647.17,608.61v8.92h-3.63C642.83,611.65,644.1,608.51,647.17,608.61Z" transform="translate(-0.36 -177.83)"/>
      <path d="M651.91,617.57h-3.44v-8.76C651,609.09,652.6,611.26,651.91,617.57Z" transform="translate(-0.36 -177.83)"/>
      <path d="M646.65,782.41H643V770.24h3.66Z" transform="translate(-0.36 -177.83)"/>
      <path d="M648,770.19h3.47v12.22H648Z" transform="translate(-0.36 -177.83)"/>
      <path d="M646.67,759v9H643C642.47,762.62,643.11,759,646.67,759Z" transform="translate(-0.36 -177.83)"/>
      <path d="M648,768.16v-9.07c2.09,0,3.52,2.25,3.53,5.39,0,3.68,0,3.68-2.29,3.68Z" transform="translate(-0.36 -177.83)"/>
    </g>
    <g>
      <path d="M1338.78,906.94H1098.29V453.2h240.49Zm-90.47-325.07h-61.73v7.56c1.7-.73,2.8.72,3.9,2.24a41.82,41.82,0,0,0,2.69,3.37,2.78,2.78,0,0,1,.57,2.38c-.17,1.52-.3,3.07-.44,4.58l2.46,1.41c-.39,6.71-.75,13.24-1.14,19.78q-.86,14.22-1.73,28.45-1,16-1.9,32-1,17.1-2.09,34.19-1.08,18.06-2.14,36.12-.93,15.63-1.89,31.25c-.42,7-.81,14-1.23,21-.68,11.22-1.41,22.44-2,33.68-.09,1.72-.39,2.08-1.42,2.08-10.74-.06-21.47,0-32.2,0h-1.29v36.64h142v-36.7h-34.84q-7.18-119.45-14.35-238.55l2.24-1.27a3.71,3.71,0,0,0,0-.76c-1.12-4.51.46-7,2.65-9.27,1.21-1.22,2.12-3.38,3.92-2.56ZM1215,495.12a2.85,2.85,0,0,1-.45.52q-5.38,4.65-10.78,9.29c-3.93,3.36-7.86,6.69-11.78,10.05-1.76,1.51-1.79,1.64-1.49,4.8h9.28v3H1203v26.44h-7.82v13.11h44.89V549.14h-7.19v-2.06q0-10.82,0-21.62c0-3-.2-2.63,1.62-2.67.32,0,.64-.07,1-.11,0-1,.06-1.91.1-3h9.26c.27-2.92.29-3-.69-3.81q-10.41-9-20.82-17.86c-1.16-1-2.31-2-3.44-3,.33-1.23.66-2.28.9-3.37s.4-2.23.56-3.36c.7-5.16-2.13-7.64-4.44-7.06-2.51.63-3.82,3.86-3.2,7.11C1214.17,490.54,1214.57,492.75,1215,495.12Zm23.16,69.39h-41v15.81h41Z" transform="translate(-0.36 -177.83)" style="fill: #fff"/>
      <path d="M1248.31,581.87v7.55c-1.8-.82-2.71,1.34-3.92,2.56-2.19,2.22-3.77,4.76-2.65,9.27a3.71,3.71,0,0,1,0,.76l-2.24,1.27q7.17,119.25,14.35,238.55h34.84v36.7h-142V841.89H1148c10.73,0,21.46,0,32.2,0,1,0,1.33-.36,1.42-2.08.61-11.24,1.34-22.46,2-33.68.42-7,.81-14,1.23-21q.95-15.63,1.89-31.25,1.08-18.06,2.14-36.12,1-17.1,2.09-34.19,1-16,1.9-32,.85-14.24,1.73-28.45c.39-6.54.75-13.07,1.14-19.78L1193.3,602c.14-1.51.27-3.06.44-4.58a2.78,2.78,0,0,0-.57-2.38,41.82,41.82,0,0,1-2.69-3.37c-1.1-1.52-2.2-3-3.9-2.24v-7.56Zm-63.52,260h65.69c-.84-14.43-1.66-28.69-2.5-43H1187.3C1186.46,813.17,1185.63,827.43,1184.79,841.83Zm60.2-93.55c0-.42,0-.59,0-.76-.57-9.32-1.17-18.62-1.67-27.94-.09-1.74-.36-2.31-1.53-2.31-16.2.06-32.4,0-48.6.05-.39,0-.78.07-1.17.1-.6,10.37-1.2,20.53-1.8,30.86ZM1240.13,666c0-.66,0-1.13,0-1.59-.42-7.12-.88-14.23-1.25-21.35-.07-1.46-.38-1.79-1.26-1.79-13.36,0-26.71,0-40.07,0-.35,0-.71.05-1.07.08-.47,8.28-.94,16.37-1.41,24.61Zm-14.21,17.85c.18-3,.17-3-1.39-4.21-2-1.52-3.88-3.12-5.86-4.56a1.38,1.38,0,0,0-1.5-.06c-2.17,1.48-4.3,3.11-6.44,4.66-1.57,1.13-1.62,1.25-1.22,4.1l1.37.27V707.2h14.17v-2c0-6.51,0-13,0-19.53C1225,684.62,1225,683.69,1225.92,683.82Zm-15.27-71.21v23.07h14.14V612.94l.26.17a5.39,5.39,0,0,0,.65-1.56c.08-1,.21-2-.64-2.63-2.26-1.68-4.47-3.58-6.75-5.25a1.52,1.52,0,0,0-1.63.14c-2.07,1.38-4.1,2.91-6.15,4.36-1.47,1-1.64,1.57-1.26,4.17Zm13.66,173.64v-2.13q0-9.69,0-19.36c0-1.1,0-2.15,1-2.09-.2-1.27.43-2.64-.65-3.46-2.37-1.78-4.69-3.7-7-5.51a.82.82,0,0,0-.91,0c-2.25,1.61-4.49,3.27-6.72,4.93-1.52,1.14-1.53,1.21-1.17,4l1.35.28v23.33Zm-30.72-196.84,0,.31,2.87,2.93.21-3.24Zm45.28,3.12,3-3.06h-3.16Z" transform="translate(-0.36 -177.83)"/>
      <path d="M1215,495.12c-.44-2.37-.84-4.58-1.25-6.78-.62-3.25.69-6.48,3.2-7.11,2.31-.58,5.14,1.9,4.44,7.06-.16,1.13-.33,2.27-.56,3.36s-.57,2.14-.9,3.37c1.13,1,2.28,2,3.44,3q10.41,8.93,20.82,17.86c1,.84,1,.89.69,3.81h-9.26c0,1.08-.07,2-.1,3-.34,0-.66.1-1,.11-1.82,0-1.62-.35-1.62,2.67q0,10.8,0,21.62v2.06h7.19v13.22h-44.89V549.25H1203V522.81h-3.25v-3h-9.28c-.3-3.16-.27-3.29,1.49-4.8,3.92-3.36,7.85-6.69,11.78-10.05q5.4-4.64,10.78-9.29A2.85,2.85,0,0,0,1215,495.12Zm-10.35,39.82v10.73h4.15V534.94Zm26.78,10.79V535h-3.9v10.76Zm-22.61-22.8h-4.16v9.57h4.16Zm18.66,0v9.61h3.94v-9.61ZM1225.94,535h-2.74v10.7h2.74Zm0-12.24a14.33,14.33,0,0,0-2.2,0,1.15,1.15,0,0,0-.64.85c0,2.92,0,5.84,0,8.81H1226Zm8.78,28.82v5.46h3.86v-5.46Zm-22.36-5.87V535h-1.92v10.73Zm-1.91-22.82v9.59h1.92v-9.59Zm-13.77,34.2h3v-5.5h-3Zm26.47,0h2.73v-5.45h-2.73Zm-12.72,0h2v-5.47h-2Zm19.21-5.49v5.48h1.78V551.6Zm-28.32,0v5.54h1.7v-5.54Zm4.84,5.54v-5.5h-1.5v5.5Zm1.64-5.51v5.62l1-.15v-5.47Zm1.17-3.36-.2-.47c-1.21,0-2.42,0-3.63.05-.22,0-.42.58-.64.89l.2.47c1.21,0,2.42,0,3.63,0C1208.56,549.13,1208.77,548.56,1209,548.25Zm18.62-.47-.21.44c.21.32.41.91.62.93,1.14.09,2.28,0,3.42,0l.17-.55c-.23-.28-.45-.8-.69-.82C1229.81,547.73,1228.71,547.78,1227.6,547.78Zm-4.4,1.31c2.63.34,2.73.29,2.66-1.18C1223.44,547.49,1223.2,547.59,1223.2,549.09Zm4.39,8.06c.82-1.34.7-5,0-5.54Zm-17.08-9.23c-.08,1.45.13,1.57,1.86,1.09C1212.37,547.58,1212.35,547.57,1210.51,547.92Zm22.42,8.73h.15v-4.47h-.15Z" transform="translate(-0.36 -177.83)"/>
      <path d="M1238.17,564.51v15.81h-41V564.51Z" transform="translate(-0.36 -177.83)"/>
      <path d="M1184.79,841.83c.84-14.4,1.67-28.66,2.51-43H1248c.84,14.33,1.66,28.59,2.5,43Z" transform="translate(-0.36 -177.83)" style="fill: #fff"/>
      <path d="M1245,748.28h-54.74c.6-10.33,1.2-20.49,1.8-30.86.39,0,.78-.1,1.17-.1,16.2,0,32.4,0,48.6-.05,1.17,0,1.44.57,1.53,2.31.5,9.32,1.1,18.62,1.67,27.94C1245,747.69,1245,747.86,1245,748.28Z" transform="translate(-0.36 -177.83)" style="fill: #fff"/>
      <path d="M1240.13,666h-45.06c.47-8.24.94-16.33,1.41-24.61.36,0,.72-.08,1.07-.08,13.36,0,26.71,0,40.07,0,.88,0,1.19.33,1.26,1.79.37,7.12.83,14.23,1.25,21.35C1240.15,664.84,1240.13,665.31,1240.13,666Z" transform="translate(-0.36 -177.83)" style="fill: #fff"/>
      <path d="M1225.92,683.82c-.9-.13-.89.8-.88,1.87,0,6.51,0,13,0,19.53v2h-14.17V684l-1.37-.27c-.4-2.85-.35-3,1.22-4.1,2.14-1.55,4.27-3.18,6.44-4.66a1.38,1.38,0,0,1,1.5.06c2,1.44,3.91,3,5.86,4.56C1226.09,680.82,1226.1,680.81,1225.92,683.82Zm-12.35,7.35v12.18h3.71V691.17Zm8.51,0h-3.46v12.18h3.46Zm-8.5-2.16h3.74v-9.23C1213.52,680.6,1213.24,682.84,1213.58,689Zm5-9V689H1222C1222.67,682.9,1221.26,680.48,1218.61,680.08Z" transform="translate(-0.36 -177.83)" style="fill: #fff"/>
      <path d="M1210.65,612.61l-1.38-.27c-.38-2.6-.21-3.13,1.26-4.17,2-1.45,4.08-3,6.15-4.36a1.52,1.52,0,0,1,1.63-.14c2.28,1.67,4.49,3.57,6.75,5.25.85.63.72,1.66.64,2.63a5.39,5.39,0,0,1-.65,1.56l-.26-.17v22.74h-14.14Zm11.18,7.07h-3.51v12.26h3.51Zm-4.8,12.25V619.7h-3.69v12.23Zm0-23.32c-3.06-.1-4.34,3-3.63,8.92H1217Zm4.75,9c.68-6.31-1-8.48-3.45-8.76v8.76Z" transform="translate(-0.36 -177.83)" style="fill: #fff"/>
      <path d="M1224.31,786.25h-14.15V762.92l-1.35-.28c-.36-2.79-.35-2.86,1.17-4,2.23-1.66,4.47-3.32,6.72-4.93a.82.82,0,0,1,.91,0c2.35,1.81,4.67,3.73,7,5.51,1.08.82.45,2.19.65,3.46-1-.06-1,1-1,2.09q0,9.68,0,19.36Zm-7.79-3.84V770.24h-3.66v12.17Zm1.32-12.22v12.22h3.48V770.19Zm-1.3-11.18c-3.56,0-4.2,3.61-3.64,9h3.64Zm1.31,9.15h1.24c2.31,0,2.31,0,2.3-3.68,0-3.14-1.44-5.34-3.54-5.39Z" transform="translate(-0.36 -177.83)" style="fill: #fff"/>
      <path d="M1193.59,589.41h3l-.21,3.24-2.87-2.93Z" transform="translate(-0.36 -177.83)" style="fill: #fff"/>
      <path d="M1238.87,592.53l-.21-3.06h3.16Z" transform="translate(-0.36 -177.83)" style="fill: #fff"/>
      <path d="M1204.66,534.94h4.15v10.73h-4.15Z" transform="translate(-0.36 -177.83)" style="fill: #fff"/>
      <path d="M1231.44,545.73h-3.9V535h3.9Z" transform="translate(-0.36 -177.83)" style="fill: #fff"/>
      <path d="M1208.83,522.93v9.57h-4.16v-9.57Z" transform="translate(-0.36 -177.83)" style="fill: #fff"/>
      <path d="M1227.49,522.89h3.94v9.61h-3.94Z" transform="translate(-0.36 -177.83)" style="fill: #fff"/>
      <path d="M1225.94,535v10.7h-2.74V535Z" transform="translate(-0.36 -177.83)" style="fill: #fff"/>
      <path d="M1226,522.79v9.7h-2.87c0-3,0-5.89,0-8.81a1.15,1.15,0,0,1,.64-.85A14.33,14.33,0,0,1,1226,522.79Z" transform="translate(-0.36 -177.83)" style="fill: #fff"/>
      <path d="M1234.73,551.61h3.86v5.46h-3.86Z" transform="translate(-0.36 -177.83)" style="fill: #fff"/>
      <path d="M1212.37,545.74h-1.92V535h1.92Z" transform="translate(-0.36 -177.83)" style="fill: #fff"/>
      <path d="M1210.46,522.92h1.92v9.59h-1.92Z" transform="translate(-0.36 -177.83)" style="fill: #fff"/>
      <path d="M1196.69,557.12v-5.5h3v5.5Z" transform="translate(-0.36 -177.83)" style="fill: #fff"/>
      <path d="M1223.16,557.11v-5.45h2.73v5.45Z" transform="translate(-0.36 -177.83)" style="fill: #fff"/>
      <path d="M1210.44,557.09v-5.47h2v5.47Z" transform="translate(-0.36 -177.83)" style="fill: #fff"/>
      <path d="M1229.65,551.6h1.78v5.48h-1.78Z" transform="translate(-0.36 -177.83)" style="fill: #fff"/>
      <path d="M1201.33,551.58h1.7v5.54h-1.7Z" transform="translate(-0.36 -177.83)" style="fill: #fff"/>
      <path d="M1206.17,557.12h-1.5v-5.5h1.5Z" transform="translate(-0.36 -177.83)" style="fill: #fff"/>
      <path d="M1207.81,551.61h1v5.47l-1,.15Z" transform="translate(-0.36 -177.83)" style="fill: #fff"/>
      <path d="M1209,548.25c-.21.31-.42.88-.64.9-1.21.09-2.42,0-3.63,0l-.2-.47c.22-.31.42-.88.64-.89,1.21-.09,2.42-.05,3.63-.05Z" transform="translate(-0.36 -177.83)" style="fill: #fff"/>
      <path d="M1227.6,547.78c1.11,0,2.21,0,3.31,0,.24,0,.46.54.69.82l-.17.55c-1.14,0-2.28,0-3.42,0-.21,0-.41-.61-.62-.93Z" transform="translate(-0.36 -177.83)" style="fill: #fff"/>
      <path d="M1223.2,549.09c0-1.5.24-1.6,2.66-1.18C1225.93,549.38,1225.83,549.43,1223.2,549.09Z" transform="translate(-0.36 -177.83)" style="fill: #fff"/>
      <path d="M1227.59,557.15v-5.54C1228.29,552.19,1228.41,555.81,1227.59,557.15Z" transform="translate(-0.36 -177.83)" style="fill: #fff"/>
      <path d="M1210.51,547.92c1.84-.35,1.86-.34,1.86,1.09C1210.64,549.49,1210.43,549.37,1210.51,547.92Z" transform="translate(-0.36 -177.83)" style="fill: #fff"/>
      <path d="M1232.93,556.65v-4.47h.15v4.47Z" transform="translate(-0.36 -177.83)" style="fill: #fff"/>
      <path d="M1213.57,691.17h3.71v12.18h-3.71Z" transform="translate(-0.36 -177.83)"/>
      <path d="M1222.08,691.2v12.18h-3.46V691.2Z" transform="translate(-0.36 -177.83)"/>
      <path d="M1213.58,689c-.34-6.2-.06-8.44,3.74-9.23V689Z" transform="translate(-0.36 -177.83)"/>
      <path d="M1218.61,680.08c2.65.4,4.06,2.82,3.42,8.94h-3.42Z" transform="translate(-0.36 -177.83)"/>
      <path d="M1221.83,619.68v12.26h-3.51V619.68Z" transform="translate(-0.36 -177.83)"/>
      <path d="M1217,631.93h-3.69V619.7H1217Z" transform="translate(-0.36 -177.83)"/>
      <path d="M1217,608.61v8.92h-3.63C1212.7,611.65,1214,608.51,1217,608.61Z" transform="translate(-0.36 -177.83)"/>
      <path d="M1221.79,617.57h-3.45v-8.76C1220.84,609.09,1222.47,611.26,1221.79,617.57Z" transform="translate(-0.36 -177.83)"/>
      <path d="M1216.52,782.41h-3.66V770.24h3.66Z" transform="translate(-0.36 -177.83)"/>
      <path d="M1217.84,770.19h3.48v12.22h-3.48Z" transform="translate(-0.36 -177.83)"/>
      <path d="M1216.54,759v9h-3.64C1212.34,762.62,1213,759,1216.54,759Z" transform="translate(-0.36 -177.83)"/>
      <path d="M1217.85,768.16v-9.07c2.1,0,3.53,2.25,3.54,5.39,0,3.68,0,3.68-2.3,3.68Z" transform="translate(-0.36 -177.83)"/>
    </g>
  </g>
  <g id="grass">
    <g>
      <path d="M688.24,818.7v-1a22.17,22.17,0,0,1,15.59,7.94c5.36,6.22,9.89,13.15,14.4,19.25-1.21-3.3-2.51-7.54-4.28-11.58-4.22-9.64-11-17.23-19.39-23.75a64.7,64.7,0,0,1,13.06,6.5c2.1,1.29,3.81,3.44,6,4.23,10,3.55,16.1,10.91,20.64,19.94,1.53,3,2.7,6.27,4,9.41l1.82-.44q-5.28-28.53-10.55-57.06l1.16-.54,11,22.9.6-.24q-3.71-15.48-7.43-31l1.59-.34c16.11,26.42,19.2,55.71,18,86,3.66-24.25-1.32-47.62-6.88-71,12,17.64,15.27,37.76,16.23,58.53h1.73l8-36.35,2,7.22,1,.09c1.26-5,2.51-10,3.87-15.43,4.33,10.83.18,21.45.21,31.92l1.52.1,3.66-21.07c1.06,2.07,2,4.35,1.71,6.44-1.47,10.15-3.29,20.25-4.94,30.38-.52,3.17-.93,6.35-1.41,9.7h6.64c.68-19.33.09-38.52,3-57.44l1.79,0c.91,7.59,1.81,15.17,2.86,24,1-11.57,1.84-21.84,2.7-32.11l1.37.15c6,17.68,6,36.15,7.16,54.5,5-15.05,6.29-30.28,2.64-45.89,6.17,8.38,6.81,18,6.94,28.92,2-5.12,3.65-9.22,5.28-13.32l1.2.42q-.92,7.74-1.82,15.48c8.72-14.73,8.06-33.18,19.83-46.53-1.34,7.51-2.55,15.08-5,22.24-2.48,7.37,1.25,12.86,3.94,18.84l-2.15-13.16,1-.23,3.94,7.87.67-.29q-1.6-8.77-3.19-17.56l1.32-.25c8.58,17,12.24,35.45,13.86,54.29h7.5c-5.62-20.52-11-40.29-16.76-61.2,13.22,10.86,16,26,22.9,39.06q-6.82-23.16-13.67-46.33l1.91-.8,16,33.11c1.36-8.64,2-17.36,8.71-24.22-2.78,13.68-3.66,27.23.46,40.81a55.78,55.78,0,0,0,1.49-11.83c.26-7.29-.23-14.67.79-21.84.79-5.48,3.42-10.69,5.23-16l1.86.51c-2.22,9.59-3.62,19.2-2.27,30,3.1-5.69,5.59-10.25,7.66-14.06l11.67,6.79c4.44-8.28-5-8.85-7.06-13.83a53.37,53.37,0,0,1,10.61,4.82c2.66,1.63,4.68,4.69,7.49,5.65,12.72,4.36,19.21,14.15,23.8,25.83.53,1.37,1.24,2.68,1.87,4l1.65-.44q-5.25-28.59-10.51-57.19l.95-.44q4.61,8.88,9.2,17.78l.72-.23q-5.1-19.78-10.21-39.57h2c1.17,2,2.51,3.83,3.47,5.88,4.65,10,9.19,20,13.77,30l-.29.22q-.88-4.17-1.79-8.34c12.52,16.95,15.65,36.68,17.13,56.9l1.57.12,7.19-33.87.6-.2q1,6.39,2,12.76l.83.19q1.65-10.44,3.28-20.88c5.72,20-3.07,38-7.83,57.82a19.38,19.38,0,0,0,1.9-2.94c4.75-14.61,10.79-28.88,12-44.67.61,1.56,1.22,3.12,2,5.08,3.74-6.67,7.31-13,10.88-19.36l1.42.69c-5.46,20-13.27,39.41-15.71,60.38H998c1.52-19.22,5.32-37.69,14-54.78l1.27.31-3.78,19.62.51.15,4.51-9.53,1.06.37-2.22,13c3.82-6.88,6.22-13.74,3.34-21.76-2.18-6.09-3.17-12.6-4.69-18.93a5.75,5.75,0,0,1,3.43,3.18c3.68,10.11,7.21,20.28,10.83,30.41,1.56,4.35,3.23,8.64,4.85,13l1.15-.38-2-15.74,1.3-.32,5.14,13.48c2.45-23.2,3-25.17,7.78-29.37-4.52,16.16-3,31.56,2.1,46.77.89-18.52.85-37.12,7-54.9l1.41-.07,2.53,31.38,1,0v-22l2.75-.74q5.28,13.71,10.53,27.39l1.77-.58-11.45-38.45,2-.79,16,32.8c1.34-8.33,2-17,8.63-24-2.62,13.67-3.65,27.24.45,40.82a41,41,0,0,0,1.68-10.42c.25-7.62-.13-15.28.5-22.87.59-7.11,3.74-13.19,6.39-15.26-.78,9.19-1.6,18.75-2.42,28.31l1.48.13,7.67-13.63a7,7,0,0,1,.11,4.95c-1.8,6.06-3.45,12.17-5.57,18.12s1.06,11,2.29,16.34c1.3-8.36,2-16.64,3.08-24.88.3-2.33,1.72-4.52,2.62-6.78l1.34.33a39,39,0,0,1,.89,5.31c.47,12,.8,24,1.27,36a24.11,24.11,0,0,0,1,4.51l1.81-.32a32.53,32.53,0,0,0,.3-4.28c-.55-10.11-1.19-20.22-1.75-30.33-.07-1.23-.2-3.43.18-3.54,4.2-1.25,3.49-4.89,4.12-7.86.52-2.43,1-4.87,1.48-7.3l1.22.15,4.4,44.19c7-12.78,2.43-25.6,1.62-38.35l1.3-.3,5.16,12.37,4.23-9.09,1.81.39c-6.28,14.64-2.2,29.16-.84,44.14h11.68v9h-441l.74-8.76,7-.52C712,842.22,704.71,828.61,688.24,818.7Zm211.83,5.07,1.3.28a31.68,31.68,0,0,1,.87,4.77c.45,12.46.77,24.93,1.28,37.39,0,1.16,1.08,2.28,1.65,3.41.55-1.15,1.63-2.33,1.58-3.45-.51-10.61-1.22-21.2-1.82-31.8-.06-1-.08-2.9.34-3,3.63-1.26,2-2.94.42-4.43-2.36-2.21-4.88-4.25-7.52-6.52-7.45,18.91-8.19,27.74-3.35,35.18.84-8.21,1.56-16.65,2.65-25C897.77,828.18,899.17,826,900.07,823.77Zm-183.39,1.46c8.71,13.54,10.81,28.83,11.62,44.1h6.35C734.25,852.13,730.26,836.78,716.68,825.23Zm212.15,6.07c2.43,12.68,4.87,25.36,7.37,38.4.69,0,1.84,0,3,0,.63,0,1.26-.16,2.2-.29C941.56,855.24,938.46,842.36,928.83,831.3Zm91.59,6.93-1.49-.15c-1.65,10.38-3.3,20.75-5,31.36h6.47Zm-186.11-.17-1.24,0v31.74l6.2-.5C837.56,858.56,835.94,848.31,834.31,838.06Zm238,31.37-6.59-29.82-.57.25v29.57ZM958.92,815.84c.88,15.9,1.93,34.83,3,53.75A141,141,0,0,0,958.92,815.84Zm-41.65,46.1c3.09-9.37,2.06-13.35-3.59-21.07Zm-2.7-40L912,823.31l6,11.11,2-1Q917.3,827.69,914.57,822Zm-23.82,47.52c-1.07-3.6-2-6.76-3.16-10.59C884.77,866.45,885.46,869.05,890.75,869.49Zm203.66-11c-2.68,8.82-2,10.92,3.13,10.65C1096.6,866,1095.68,862.85,1094.41,858.53Z" transform="translate(-0.36 -177.83)"/>
      <path d="M937.24,769.7q5.12,19.78,10.21,39.57l-.72.23q-4.59-8.89-9.2-17.78l-.95.44q5.25,28.61,10.51,57.19l-1.65.44c-.63-1.33-1.34-2.64-1.87-4C939,834.1,932.49,824.31,919.77,820c-2.81-1-4.83-4-7.49-5.65a53.37,53.37,0,0,0-10.61-4.82c2,5,11.5,5.55,7.06,13.83l-11.67-6.79c-2.07,3.81-4.56,8.37-7.66,14.06-1.35-10.83.05-20.44,2.27-30l-1.86-.51c-1.81,5.33-4.44,10.54-5.23,16-1,7.17-.53,14.55-.79,21.84a55.78,55.78,0,0,1-1.49,11.83c-4.12-13.58-3.24-27.13-.46-40.81-6.66,6.86-7.35,15.58-8.71,24.22l-16-33.11-1.91.8q6.84,23.16,13.67,46.33C862,834.09,859.25,819,846,808.1c5.73,20.91,11.14,40.68,16.76,61.2h-7.5c-1.62-18.84-5.28-37.24-13.86-54.29l-1.32.25q1.59,8.79,3.19,17.56l-.67.29-3.94-7.87-1,.23,2.15,13.16c-2.69-6-6.42-11.47-3.94-18.84,2.41-7.16,3.62-14.73,5-22.24-11.77,13.35-11.11,31.8-19.83,46.53q.9-7.74,1.82-15.48l-1.2-.42c-1.63,4.1-3.25,8.2-5.28,13.32-.13-10.88-.77-20.54-6.94-28.92,3.65,15.61,2.36,30.84-2.64,45.89-1.2-18.35-1.17-36.82-7.16-54.5l-1.37-.15c-.86,10.27-1.72,20.54-2.7,32.11-1.05-8.81-2-16.39-2.86-24l-1.79,0c-3,18.92-2.37,38.11-3,57.44h-6.64c.48-3.35.89-6.53,1.41-9.7,1.65-10.13,3.47-20.23,4.94-30.38.3-2.09-.65-4.37-1.71-6.44L782.21,844l-1.52-.1c0-10.47,4.12-21.09-.21-31.92-1.36,5.43-2.61,10.43-3.87,15.43l-1-.09-2-7.22-8,36.35h-1.73c-1-20.77-4.19-40.89-16.23-58.53,5.56,23.39,10.54,46.76,6.88,71,1.24-30.27-1.85-59.56-18-86l-1.59.34q3.72,15.5,7.43,31l-.6.24-11-22.9-1.16.54q5.28,28.53,10.55,57.06l-1.82.44c-1.34-3.14-2.51-6.37-4-9.41-4.54-9-10.67-16.39-20.64-19.94-2.23-.79-3.94-2.94-6-4.23a64.7,64.7,0,0,0-13.06-6.5c8.39,6.52,15.17,14.11,19.39,23.75,1.77,4,3.07,8.28,4.28,11.58-4.51-6.1-9-13-14.4-19.25a22.17,22.17,0,0,0-15.59-7.94v-48Z" transform="translate(-0.36 -177.83)" style="fill: #fff"/>
      <path d="M1148.24,869.7h-11.68c-1.36-15-5.44-29.5.84-44.14l-1.81-.39-4.23,9.09-5.16-12.37-1.3.3c.81,12.75,5.33,25.57-1.62,38.35l-4.4-44.19-1.22-.15c-.49,2.43-1,4.87-1.48,7.3-.63,3,.08,6.61-4.12,7.86-.38.11-.25,2.31-.18,3.54.56,10.11,1.2,20.22,1.75,30.33a32.53,32.53,0,0,1-.3,4.28l-1.81.32a24.11,24.11,0,0,1-1-4.51c-.47-12-.8-24-1.27-36a39,39,0,0,0-.89-5.31l-1.34-.33c-.9,2.26-2.32,4.45-2.62,6.78-1.08,8.24-1.78,16.52-3.08,24.88-1.23-5.34-4.45-10.25-2.29-16.34s3.77-12.06,5.57-18.12a7,7,0,0,0-.11-4.95l-7.67,13.63-1.48-.13c.82-9.56,1.64-19.12,2.42-28.31-2.65,2.07-5.8,8.15-6.39,15.26-.63,7.59-.25,15.25-.5,22.87a41,41,0,0,1-1.68,10.42c-4.1-13.58-3.07-27.15-.45-40.82-6.59,6.94-7.29,15.65-8.63,24l-16-32.8-2,.79,11.45,38.45-1.77.58q-5.27-13.68-10.53-27.39l-2.75.74v22l-1,0L1055,803.91l-1.41.07c-6.14,17.78-6.1,36.38-7,54.9-5.15-15.21-6.62-30.61-2.1-46.77-4.83,4.2-5.33,6.17-7.78,29.37L1031.62,828l-1.3.32,2,15.74-1.15.38c-1.62-4.32-3.29-8.61-4.85-13-3.62-10.13-7.15-20.3-10.83-30.41a5.75,5.75,0,0,0-3.43-3.18c1.52,6.33,2.51,12.84,4.69,18.93,2.88,8,.48,14.88-3.34,21.76l2.22-13-1.06-.37-4.51,9.53-.51-.15,3.78-19.62-1.27-.31c-8.7,17.09-12.5,35.56-14,54.78h-6.34c2.44-21,10.25-40.39,15.71-60.38l-1.42-.69c-3.57,6.35-7.14,12.69-10.88,19.36-.76-2-1.37-3.52-2-5.08-1.23,15.79-7.27,30.06-12,44.67a19.38,19.38,0,0,1-1.9,2.94c4.76-19.83,13.55-37.84,7.83-57.82q-1.63,10.44-3.28,20.88l-.83-.19q-1-6.37-2-12.76l-.6.2-7.19,33.87-1.57-.12c-1.48-20.22-4.61-40-17.13-56.9q.9,4.17,1.79,8.34l.29-.22c-4.58-10-9.12-20-13.77-30-1-2.05-2.3-3.92-3.47-5.88h209Z" transform="translate(-0.36 -177.83)" style="fill: #fff"/>
      <path d="M688.24,818.7c16.47,9.91,23.71,23.52,26.79,50.72l-7,.52-.74,8.76h-19Z" transform="translate(-0.36 -177.83)" style="fill: #fff"/>
      <path d="M900.07,823.77c-.9,2.24-2.3,4.41-2.6,6.73-1.09,8.4-1.81,16.84-2.65,25-4.84-7.44-4.1-16.27,3.35-35.18,2.64,2.27,5.16,4.31,7.52,6.52,1.58,1.49,3.21,3.17-.42,4.43-.42.15-.4,2-.34,3,.6,10.6,1.31,21.19,1.82,31.8,0,1.12-1,2.3-1.58,3.45-.57-1.13-1.61-2.25-1.65-3.41-.51-12.46-.83-24.93-1.28-37.39a31.68,31.68,0,0,0-.87-4.77Z" transform="translate(-0.36 -177.83)" style="fill: #fff"/>
      <path d="M716.68,825.23c13.58,11.55,17.57,26.9,18,44.1H728.3C727.49,854.06,725.39,838.77,716.68,825.23Z" transform="translate(-0.36 -177.83)" style="fill: #fff"/>
      <path d="M928.83,831.3c9.63,11.06,12.73,23.94,12.55,38.09-.94.13-1.57.27-2.2.29-1.14.05-2.29,0-3,0C933.7,856.66,931.26,844,928.83,831.3Z" transform="translate(-0.36 -177.83)" style="fill: #fff"/>
      <path d="M1020.42,838.23v31.21H1014c1.68-10.61,3.33-21,5-31.36Z" transform="translate(-0.36 -177.83)" style="fill: #fff"/>
      <path d="M834.31,838.06c1.63,10.25,3.25,20.5,5,31.27l-6.2.5V838.09Z" transform="translate(-0.36 -177.83)" style="fill: #fff"/>
      <path d="M1072.35,869.43h-7.16V839.86l.57-.25Z" transform="translate(-0.36 -177.83)" style="fill: #fff"/>
      <path d="M958.92,815.84a141,141,0,0,1,3,53.75C960.85,850.67,959.8,831.74,958.92,815.84Z" transform="translate(-0.36 -177.83)" style="fill: #fff"/>
      <path d="M917.27,861.94l-3.59-21.07C919.33,848.59,920.36,852.57,917.27,861.94Z" transform="translate(-0.36 -177.83)" style="fill: #fff"/>
      <path d="M914.57,822q2.73,5.71,5.44,11.43l-2,1-6-11.11Z" transform="translate(-0.36 -177.83)" style="fill: #fff"/>
      <path d="M890.75,869.49c-5.29-.44-6-3-3.16-10.59C888.74,862.73,889.68,865.89,890.75,869.49Z" transform="translate(-0.36 -177.83)" style="fill: #fff"/>
      <path d="M1094.41,858.53c1.27,4.32,2.19,7.44,3.13,10.65C1092.42,869.45,1091.73,867.35,1094.41,858.53Z" transform="translate(-0.36 -177.83)" style="fill: #fff"/>
    </g>
  </g>
</svg>
