<svg id="leftTower" xmlns="http://www.w3.org/2000/svg" viewBox="0 0 1911.76 707.98">
  <title>avas-landing</title>
  <g>
    <path d="M174,548.05v13.43c-2.94-1.46-4.42,2.39-6.4,4.58-3.56,3.94-6.14,8.47-4.32,16.5a7.59,7.59,0,0,1,0,1.37l-3.65,2.25q11.7,212.43,23.41,425h56.86v65.37H8.24v-65.28h2.11c17.51,0,35,0,52.53,0,1.68,0,2.17-.64,2.33-3.7,1-20,2.18-40,3.28-60,.69-12.48,1.34-25,2-37.43Q72,882.33,73.6,854.51q1.75-32.18,3.49-64.34c1.11-20.32,2.28-40.62,3.4-60.93q1.58-28.46,3.1-56.91Q85,647,86.41,621.65c.64-11.64,1.23-23.29,1.86-35.24l-4-2.51c.24-2.7.44-5.44.72-8.16a5.32,5.32,0,0,0-.93-4.24c-1.52-1.86-3-3.89-4.38-6-1.8-2.72-3.59-5.29-6.37-4V548.05ZM70.38,1011.16H177.56c-1.36-25.72-2.71-51.13-4.07-76.65h-99C73.11,960.09,71.75,985.5,70.38,1011.16ZM168.6,844.5c0-.75.07-1.06.05-1.37-.92-16.59-1.9-33.17-2.72-49.77-.15-3.1-.6-4.12-2.5-4.11-26.43.11-52.86.07-79.3.08-.63,0-1.26.13-1.9.19-1,18.48-2,36.58-2.94,55Zm-7.93-146.64c0-1.18,0-2,0-2.83-.69-12.68-1.43-25.35-2-38-.12-2.6-.62-3.19-2.06-3.18-21.79.07-43.59.05-65.38.06-.58,0-1.16.1-1.74.15-.78,14.76-1.53,29.16-2.3,43.84Zm-23.18,31.8c.29-5.36.28-5.34-2.27-7.5-3.18-2.71-6.33-5.56-9.55-8.12a2.09,2.09,0,0,0-2.46-.1c-3.54,2.62-7,5.53-10.51,8.29-2.57,2-2.64,2.23-2,7.31L113,730v41.3h23.12v-3.53q0-17.41,0-34.81C136,731.08,136,729.42,137.49,729.66ZM112.58,602.8v41.11h23.07V603.39l.42.3a10.15,10.15,0,0,0,1.06-2.78c.13-1.72.34-3.56-1-4.68-3.7-3-7.3-6.39-11-9.35a2.33,2.33,0,0,0-2.66.24c-3.38,2.46-6.69,5.19-10,7.78-2.4,1.85-2.67,2.79-2,7.42Zm22.28,309.33v-3.79q0-17.25,0-34.5c0-2-.06-3.82,1.62-3.7-.32-2.27.7-4.71-1.06-6.17-3.86-3.18-7.64-6.6-11.48-9.83a1.22,1.22,0,0,0-1.48,0c-3.68,2.86-7.32,5.82-11,8.78-2.48,2-2.5,2.15-1.91,7.13l2.21.5v41.55ZM84.74,561.47l-.08.56,4.69,5.22.35-5.78ZM158.61,567l4.82-5.45h-5.15C158.39,563.36,158.48,564.87,158.61,567Z" transform="translate(-8.24 -368.56)"/>
    <path d="M119.69,393.5c-.72-4.23-1.37-8.16-2-12.07-1-5.81,1.14-11.55,5.23-12.68,3.77-1,8.38,3.38,7.24,12.58-.25,2-.53,4-.92,6s-.92,3.8-1.46,6c1.85,1.75,3.73,3.56,5.61,5.33q17,15.9,34,31.82c1.6,1.51,1.58,1.59,1.14,6.78H153.33c-.06,1.93-.11,3.53-.17,5.34a15.26,15.26,0,0,1-1.59.19c-3,.07-2.65-.62-2.65,4.75q0,19.26,0,38.53v3.65h11.72v23.57H87.39V489.94h12.77V442.82h-5.3v-5.39H79.72c-.5-5.63-.45-5.86,2.42-8.54,6.4-6,12.82-11.94,19.22-17.92q8.81-8.25,17.6-16.54A5.81,5.81,0,0,0,119.69,393.5Zm-16.88,70.94v19.11h6.76V464.44Zm43.68,19.22V464.48h-6.35v19.18ZM109.6,443.05h-6.78v17h6.78Zm30.45-.08v17.11h6.43V443Zm-2.52,21.63h-4.48v19.06h4.48Zm0-21.8a20,20,0,0,0-3.59.07,2,2,0,0,0-1,1.5c-.08,5.21,0,10.42,0,15.7h4.68Zm14.33,51.33v9.73h6.3v-9.73Zm-36.48-10.46V464.55h-3.15v19.12ZM112.26,443V460.1h3.13V443ZM89.8,503.94h4.87v-9.79H89.8Zm43.18,0h4.46v-9.71H133Zm-20.75,0h3.18v-9.74h-3.18Zm31.34-9.78v9.77h2.9v-9.77Zm-46.21,0v9.85h2.78v-9.85Zm7.9,9.85v-9.78h-2.45v9.78Zm2.68-9.82v10l1.62-.28v-9.75Zm1.91-6-.32-.82c-2,0-4-.08-5.93.07-.36,0-.69,1-1,1.6l.32.83c2,0,4,.09,5.93-.07C109.17,489.72,109.5,488.7,109.85,488.14Zm30.39-.83-.36.79c.34.57.67,1.61,1,1.65,1.85.16,3.71.07,5.56.07l.29-1c-.37-.51-.73-1.43-1.12-1.47C143.84,487.22,142,487.31,140.24,487.31Zm-7.19,2.34c4.29.6,4.45.52,4.33-2.11C133.43,486.79,133.05,487,133.05,489.65ZM140.21,504c1.34-2.38,1.15-8.82,0-9.88Zm-27.87-16.45c-.12,2.59.22,2.81,3,1.95C115.37,487,115.35,486.94,112.34,487.55Zm36.59,15.56h.24v-8l-.24,0Z" transform="translate(-8.24 -368.56)"/>
    <path d="M157.47,517.12v28.16H90.59V517.12Z" transform="translate(-8.24 -368.56)"/>
    <path d="M84.74,561.47h5l-.35,5.78L84.66,562Z" transform="translate(-8.24 -368.56)" style="fill: #fff"/>
    <path d="M158.61,567c-.13-2.16-.22-3.67-.33-5.45h5.15Z" transform="translate(-8.24 -368.56)" style="fill: #fff"/>
    <path d="M117.34,742.75h6v21.7h-6Z" transform="translate(-8.24 -368.56)"/>
    <path d="M131.22,742.81v21.7h-5.64v-21.7Z" transform="translate(-8.24 -368.56)"/>
    <path d="M117.35,739c-.55-11.05-.09-15,6.11-16.44V739Z" transform="translate(-8.24 -368.56)"/>
    <path d="M125.55,723c4.34.71,6.64,5,5.59,15.93h-5.59Z" transform="translate(-8.24 -368.56)"/>
    <path d="M130.82,615.39v21.84h-5.73V615.39Z" transform="translate(-8.24 -368.56)"/>
    <path d="M123,637.22h-6V615.43h6Z" transform="translate(-8.24 -368.56)"/>
    <path d="M123,595.68v15.88h-5.93C115.92,601.1,118,595.5,123,595.68Z" transform="translate(-8.24 -368.56)"/>
    <path d="M130.75,611.64h-5.63V596C129.21,596.54,131.86,600.39,130.75,611.64Z" transform="translate(-8.24 -368.56)"/>
    <path d="M122.15,905.29h-6V883.62h6Z" transform="translate(-8.24 -368.56)"/>
    <path d="M124.31,883.53H130V905.3h-5.67Z" transform="translate(-8.24 -368.56)"/>
    <path d="M122.19,863.61V879.7h-5.94C115.34,870,116.38,863.52,122.19,863.61Z" transform="translate(-8.24 -368.56)"/>
    <path d="M124.32,879.91V863.75c3.42.08,5.75,4,5.77,9.6,0,6.55,0,6.55-3.75,6.56Z" transform="translate(-8.24 -368.56)"/>
  </g>
  <g>
    <path d="M492.28,679.75v7c-1.8-.77-2.71,1.25-3.93,2.39-2.19,2.07-3.78,4.44-2.65,8.65a3.42,3.42,0,0,1,0,.72l-2.24,1.18q7.2,111.33,14.39,222.73H532.8v34.27H390.38V922.52h1.29c10.76,0,21.53,0,32.29,0,1,0,1.34-.34,1.43-1.95.62-10.48,1.35-21,2-31.44.43-6.54.82-13.08,1.24-19.62q.94-14.58,1.9-29.17,1.08-16.86,2.15-33.72c.68-10.65,1.4-21.29,2.09-31.93q1-14.91,1.9-29.83c.57-8.86,1.17-17.71,1.74-26.56.39-6.1.75-12.21,1.14-18.47l-2.46-1.31c.14-1.42.26-2.86.44-4.28a2.46,2.46,0,0,0-.57-2.22c-.94-1-1.83-2-2.7-3.15-1.1-1.42-2.21-2.77-3.91-2.09v-7.06ZM428.57,922.47h65.89c-.84-13.48-1.67-26.79-2.5-40.17H431.09C430.25,895.71,429.42,909,428.57,922.47ZM489,835.12c0-.39.05-.55,0-.71-.57-8.7-1.17-17.39-1.68-26.09-.09-1.62-.36-2.16-1.53-2.15-16.25.06-32.5,0-48.75,0-.39,0-.78.07-1.17.1-.61,9.68-1.2,19.17-1.81,28.81Zm-4.87-76.85c0-.62,0-1,0-1.48-.42-6.65-.88-13.29-1.25-19.94-.07-1.36-.38-1.67-1.26-1.67-13.4,0-26.8,0-40.2,0-.35,0-.71,0-1.07.07-.48,7.74-.94,15.29-1.41,23Zm-14.25,16.67c.17-2.81.17-2.8-1.4-3.94-1.95-1.42-3.89-2.91-5.87-4.25a1.46,1.46,0,0,0-1.51,0c-2.18,1.37-4.31,2.9-6.46,4.34-1.58,1.06-1.63,1.17-1.22,3.84l1.37.25v21.64H469v-1.85c0-6.08,0-12.16,0-18.24C468.94,775.68,468.93,774.81,469.83,774.94Zm-15.32-66.49V730H468.7V708.76l.26.15a4.94,4.94,0,0,0,.65-1.45c.08-.9.21-1.87-.64-2.45-2.28-1.58-4.49-3.35-6.77-4.9a1.65,1.65,0,0,0-1.64.12c-2.07,1.29-4.11,2.72-6.17,4.08-1.47,1-1.64,1.46-1.26,3.89Zm13.7,162.12v-2c0-6,0-12.05,0-18.08,0-1,0-2,1-1.94-.19-1.19.43-2.47-.65-3.23-2.37-1.67-4.7-3.46-7.06-5.15a.85.85,0,0,0-.91,0c-2.26,1.5-4.5,3-6.74,4.61-1.53,1.06-1.54,1.12-1.17,3.73l1.35.26v21.78ZM437.4,686.79l0,.29,2.88,2.74.22-3Zm45.41,2.91,3-2.85h-3.16Z" transform="translate(-8.24 -368.56)"/>
    <path d="M458.89,598.76l-1.26-6.33c-.62-3,.69-6,3.21-6.64,2.32-.55,5.15,1.77,4.45,6.59-.15,1-.32,2.11-.56,3.14s-.57,2-.9,3.15l3.45,2.79,20.88,16.68c1,.79,1,.83.7,3.55h-9.3c0,1-.06,1.85-.1,2.8-.34,0-.66.09-1,.1-1.82,0-1.62-.33-1.62,2.49q0,10.09,0,20.19v1.92h7.21v12.35H439V649.3h7.85V624.61h-3.26v-2.83h-9.31c-.3-2.95-.27-3.07,1.49-4.48l11.82-9.39q5.42-4.32,10.82-8.67A3.8,3.8,0,0,0,458.89,598.76Zm-10.38,37.17v10h4.15v-10ZM475.36,646V636h-3.9v10Zm-22.68-21.29h-4.17v8.93h4.17Zm18.72,0v9h4v-9ZM469.85,636H467.1v10h2.75Zm0-11.43a14.49,14.49,0,0,0-2.21,0,1.08,1.08,0,0,0-.64.79c-.05,2.73,0,5.46,0,8.22h2.88Zm8.81,26.91v5.1h3.87v-5.1ZM456.24,646V636h-1.93v10Zm-1.92-21.3v8.95h1.92v-8.95Zm-13.81,31.93h3v-5.13h-3Zm26.55,0h2.74v-5.09h-2.74Zm-12.76,0h2v-5.1h-2Zm19.27-5.12v5.12h1.78v-5.12Zm-28.41,0v5.17h1.71v-5.17Zm4.86,5.17v-5.13h-1.51v5.13Zm1.64-5.15v5.26l1-.15v-5.11Zm1.18-3.13-.2-.43c-1.22,0-2.43,0-3.65,0-.22,0-.42.54-.63.83l.19.44c1.22,0,2.43,0,3.65,0C452.42,649.18,452.62,648.65,452.84,648.36Zm18.68-.44-.22.41c.21.31.41.85.63.87,1.14.09,2.28,0,3.42,0l.18-.51c-.23-.27-.45-.75-.69-.77C473.73,647.88,472.62,647.92,471.52,647.92Zm-4.42,1.23c2.64.31,2.74.27,2.66-1.11C467.34,647.65,467.1,647.74,467.1,649.15Zm4.4,7.52c.82-1.25.71-4.63,0-5.18Zm-17.13-8.62c-.08,1.35.13,1.47,1.87,1C456.23,647.73,456.22,647.73,454.37,648.05Zm22.49,8.15H477V652h-.15Z" transform="translate(-8.24 -368.56)"/>
    <path d="M482.11,663.54V678.3H441V663.54Z" transform="translate(-8.24 -368.56)"/>
    <path d="M437.4,686.79h3.05l-.22,3-2.88-2.74Z" transform="translate(-8.24 -368.56)" style="fill: #fff"/>
    <path d="M482.81,689.7l-.2-2.85h3.16Z" transform="translate(-8.24 -368.56)" style="fill: #fff"/>
    <path d="M457.44,781.8h3.72v11.37h-3.72Z" transform="translate(-8.24 -368.56)"/>
    <path d="M466,781.83V793.2h-3.46V781.83Z" transform="translate(-8.24 -368.56)"/>
    <path d="M457.45,779.81c-.34-5.79-.06-7.88,3.76-8.61v8.61Z" transform="translate(-8.24 -368.56)"/>
    <path d="M462.49,771.44c2.67.38,4.08,2.64,3.44,8.35h-3.44Z" transform="translate(-8.24 -368.56)"/>
    <path d="M465.73,715.05V726.5H462.2V715.05Z" transform="translate(-8.24 -368.56)"/>
    <path d="M460.91,726.49H457.2V715.07h3.71Z" transform="translate(-8.24 -368.56)"/>
    <path d="M460.92,704.72V713h-3.64C456.57,707.56,457.85,704.63,460.92,704.72Z" transform="translate(-8.24 -368.56)"/>
    <path d="M465.68,713.08h-3.45V704.9C464.74,705.17,466.37,707.19,465.68,713.08Z" transform="translate(-8.24 -368.56)"/>
    <path d="M460.4,867h-3.67V855.63h3.67Z" transform="translate(-8.24 -368.56)"/>
    <path d="M461.73,855.58h3.48V867h-3.48Z" transform="translate(-8.24 -368.56)"/>
    <path d="M460.42,845.14v8.44h-3.65C456.21,848.51,456.85,845.09,460.42,845.14Z" transform="translate(-8.24 -368.56)"/>
    <path d="M461.73,853.68v-8.46c2.11,0,3.54,2.09,3.55,5,0,3.43,0,3.43-2.3,3.43Z" transform="translate(-8.24 -368.56)"/>
  </g>
  <g>
    <path d="M1466.51,679.78v7c-1.81-.77-2.72,1.25-3.93,2.4-2.2,2.06-3.78,4.44-2.66,8.65a3.32,3.32,0,0,1,0,.71l-2.24,1.18q7.2,111.35,14.39,222.74h35v34.26H1364.6V922.55h1.29c10.77,0,21.53,0,32.3,0,1,0,1.33-.33,1.43-1.94.61-10.49,1.34-21,2-31.44.42-6.54.81-13.08,1.24-19.62.62-9.73,1.27-19.45,1.89-29.18.73-11.24,1.42-22.48,2.15-33.72q1-16,2.09-31.93,1-14.91,1.9-29.83.87-13.27,1.74-26.56c.39-6.1.76-12.2,1.14-18.47l-2.46-1.31c.14-1.41.27-2.85.44-4.28a2.47,2.47,0,0,0-.57-2.22,39.7,39.7,0,0,1-2.69-3.15c-1.11-1.42-2.21-2.77-3.92-2.09v-7.05ZM1402.8,922.5h65.89c-.84-13.48-1.67-26.8-2.51-40.18h-60.87C1404.47,895.73,1403.64,909.05,1402.8,922.5Zm60.38-87.35c0-.39,0-.56,0-.72-.57-8.69-1.17-17.38-1.68-26.08-.09-1.63-.36-2.16-1.53-2.16-16.25.06-32.5,0-48.75,0a11.54,11.54,0,0,0-1.17.1c-.61,9.68-1.2,19.17-1.81,28.81Zm-4.88-76.85c0-.62,0-1.06,0-1.49-.42-6.64-.88-13.28-1.25-19.94-.07-1.36-.38-1.67-1.26-1.66q-20.1.06-40.2,0c-.35,0-.71,0-1.07.08-.47,7.73-.94,15.28-1.41,23ZM1444.05,775c.18-2.81.17-2.8-1.39-3.93-2-1.42-3.9-2.91-5.88-4.26a1.49,1.49,0,0,0-1.51,0c-2.18,1.38-4.31,2.9-6.46,4.35-1.58,1.06-1.62,1.17-1.22,3.83l1.37.25V796.8h14.22v-1.86c0-6.08,0-12.16,0-18.24C1443.16,775.71,1443.15,774.84,1444.05,775Zm-15.32-66.49V730h14.19V708.78l.26.16a4.74,4.74,0,0,0,.65-1.46c.08-.9.21-1.86-.64-2.45-2.27-1.57-4.49-3.35-6.77-4.9a1.61,1.61,0,0,0-1.63.13c-2.08,1.28-4.12,2.72-6.18,4.07-1.47,1-1.64,1.46-1.26,3.89Zm13.7,162.13v-2q0-9,0-18.08c0-1,0-2,1-1.94-.2-1.19.43-2.47-.66-3.24-2.37-1.66-4.7-3.46-7.06-5.15a.88.88,0,0,0-.91,0c-2.25,1.5-4.5,3-6.74,4.6-1.53,1.06-1.54,1.12-1.17,3.73l1.36.27V870.6Zm-30.81-183.79,0,.3,2.88,2.73.21-3Zm45.42,2.92,3-2.86h-3.17Z" transform="translate(-8.24 -368.56)"/>
    <path d="M1433.11,598.78c-.44-2.22-.84-4.28-1.26-6.33-.62-3,.7-6.05,3.22-6.64,2.31-.54,5.15,1.77,4.44,6.59-.15,1.06-.32,2.12-.56,3.14s-.56,2-.9,3.15l3.45,2.79q10.44,8.34,20.88,16.68c1,.79,1,.83.7,3.56h-9.29c0,1-.07,1.85-.1,2.8-.35,0-.67.09-1,.09-1.82,0-1.62-.32-1.62,2.49q0,10.1,0,20.19v1.92h7.21v12.35h-45V649.32h7.85V624.63h-3.26v-2.82h-9.3c-.31-3-.28-3.08,1.48-4.48l11.82-9.4c3.61-2.87,7.22-5.77,10.82-8.66A3.65,3.65,0,0,0,1433.11,598.78ZM1422.73,636v10h4.16V636ZM1449.58,646V636h-3.9V646Zm-22.68-21.29h-4.16v8.93h4.16Zm18.73,0v9h3.95v-9ZM1444.08,636h-2.76v10h2.76Zm0-11.42a16,16,0,0,0-2.21,0,1.11,1.11,0,0,0-.64.79c0,2.73,0,5.46,0,8.23h2.88Zm8.81,26.9v5.1h3.87v-5.1ZM1430.46,646V636h-1.93v10Zm-1.92-21.3v8.94h1.93v-8.94Zm-13.81,31.92h3v-5.13h-3Zm26.55,0H1444v-5.09h-2.74Zm-12.76,0h2v-5.11h-2Zm19.27-5.13v5.12h1.78v-5.12Zm-28.41,0v5.16h1.71V651.5Zm4.86,5.16v-5.12h-1.51v5.12Zm1.65-5.14v5.25l1-.14v-5.11Zm1.17-3.14-.2-.43c-1.21,0-2.43,0-3.64,0-.22,0-.43.55-.64.84l.19.43c1.22,0,2.44,0,3.65,0C1426.64,649.21,1426.85,648.67,1427.06,648.38Zm18.68-.43-.22.41c.21.3.41.85.63.86,1.14.09,2.28,0,3.42,0l.18-.51c-.23-.27-.45-.75-.69-.77C1448,647.9,1446.85,648,1445.74,648Zm-4.42,1.22c2.64.32,2.74.27,2.67-1.11C1441.56,647.67,1441.32,647.76,1441.32,649.17Zm4.4,7.53c.82-1.25.71-4.63,0-5.18Zm-17.13-8.63c-.08,1.36.13,1.47,1.87,1C1430.46,647.76,1430.44,647.75,1428.59,648.07Zm22.5,8.16h.14v-4.18h-.14Z" transform="translate(-8.24 -368.56)"/>
    <path d="M1456.33,663.57v14.76h-41.11V663.57Z" transform="translate(-8.24 -368.56)"/>
    <path d="M1411.62,686.81h3.05l-.21,3-2.88-2.73Z" transform="translate(-8.24 -368.56)" style="fill: #fff"/>
    <path d="M1457,689.73l-.21-2.86H1460Z" transform="translate(-8.24 -368.56)" style="fill: #fff"/>
    <path d="M1431.67,781.82h3.71V793.2h-3.71Z" transform="translate(-8.24 -368.56)"/>
    <path d="M1440.2,781.86v11.37h-3.47V781.86Z" transform="translate(-8.24 -368.56)"/>
    <path d="M1431.67,779.83c-.34-5.78-.05-7.87,3.76-8.61v8.61Z" transform="translate(-8.24 -368.56)"/>
    <path d="M1436.71,771.47c2.67.37,4.08,2.64,3.44,8.35h-3.44Z" transform="translate(-8.24 -368.56)"/>
    <path d="M1440,715.07v11.45h-3.52V715.07Z" transform="translate(-8.24 -368.56)"/>
    <path d="M1435.13,726.51h-3.7V715.09h3.7Z" transform="translate(-8.24 -368.56)"/>
    <path d="M1435.15,704.74v8.33h-3.65C1430.79,707.58,1432.07,704.65,1435.15,704.74Z" transform="translate(-8.24 -368.56)"/>
    <path d="M1439.9,713.11h-3.45v-8.18C1439,705.19,1440.59,707.21,1439.9,713.11Z" transform="translate(-8.24 -368.56)"/>
    <path d="M1434.62,867H1431V855.65h3.67Z" transform="translate(-8.24 -368.56)"/>
    <path d="M1436,855.61h3.48V867H1436Z" transform="translate(-8.24 -368.56)"/>
    <path d="M1434.64,845.17v8.43H1431C1430.43,848.54,1431.07,845.12,1434.64,845.17Z" transform="translate(-8.24 -368.56)"/>
    <path d="M1436,853.71v-8.47c2.1,0,3.53,2.1,3.54,5,0,3.44,0,3.44-2.3,3.44Z" transform="translate(-8.24 -368.56)"/>
  </g>
  <g>
    <path d="M1854.09,548v13.44c-2.94-1.47-4.42,2.39-6.39,4.57-3.57,3.94-6.15,8.47-4.33,16.5a7.6,7.6,0,0,1,0,1.37l-3.64,2.25q11.7,212.43,23.4,425H1920v65.38H1688.32v-65.28h2.1c17.51,0,35-.05,52.53,0,1.69,0,2.18-.65,2.33-3.71,1-20,2.18-40,3.29-60,.69-12.47,1.33-24.95,2-37.43q1.53-27.84,3.09-55.66,1.77-32.18,3.49-64.34,1.68-30.47,3.4-60.93,1.57-28.44,3.1-56.91c.93-16.9,1.9-33.78,2.82-50.68.64-11.64,1.23-23.29,1.86-35.24l-4-2.5c.23-2.7.43-5.45.71-8.17a5.32,5.32,0,0,0-.92-4.24,71.92,71.92,0,0,1-4.39-6c-1.8-2.71-3.59-5.28-6.37-4V548Zm-103.64,463.11h107.19c-1.37-25.72-2.72-51.13-4.08-76.65h-99C1753.18,960,1751.82,985.46,1750.45,1011.11Zm98.22-166.66c0-.75.07-1.06,0-1.36-.92-16.59-1.9-33.17-2.72-49.78-.15-3.1-.59-4.12-2.5-4.11-26.43.11-52.86.08-79.29.09a17.64,17.64,0,0,0-1.91.19c-1,18.47-2,36.57-2.94,55Zm-7.92-146.63c0-1.19,0-2,0-2.84-.68-12.68-1.43-25.35-2-38-.13-2.6-.63-3.19-2.07-3.18-21.79.08-43.58.06-65.38.07-.58,0-1.15.09-1.74.14-.78,14.76-1.53,29.17-2.3,43.85Zm-23.19,31.79c.29-5.36.28-5.33-2.26-7.5-3.19-2.71-6.34-5.56-9.56-8.12a2.09,2.09,0,0,0-2.46-.1c-3.54,2.62-7,5.53-10.51,8.29-2.56,2-2.64,2.24-2,7.31l2.24.48v41.3h23.12v-3.53c0-11.6,0-23.2,0-34.8C1816.12,731,1816.1,729.37,1817.56,729.61Zm-24.91-126.86v41.11h23.07V603.34l.43.3a10.32,10.32,0,0,0,1-2.78c.14-1.72.34-3.56-1-4.68-3.71-3-7.3-6.39-11-9.35a2.32,2.32,0,0,0-2.66.25c-3.38,2.45-6.69,5.18-10,7.77-2.39,1.85-2.67,2.79-2,7.43Zm22.28,309.34v-3.8q0-17.25,0-34.49c0-2-.06-3.83,1.63-3.71-.32-2.27.7-4.71-1.07-6.17-3.85-3.18-7.64-6.6-11.48-9.83a1.23,1.23,0,0,0-1.48,0c-3.67,2.87-7.32,5.82-11,8.79-2.48,2-2.5,2.14-1.9,7.12l2.2.5v41.56Zm-50.12-350.67-.07.56,4.68,5.22.36-5.78Zm73.88,5.56,4.81-5.44h-5.15C1838.46,563.32,1838.55,564.82,1838.69,567Z" transform="translate(-8.24 -368.56)"/>
    <path d="M1799.77,393.46c-.72-4.24-1.38-8.17-2.06-12.08-1-5.8,1.14-11.55,5.24-12.67,3.77-1,8.37,3.38,7.23,12.57-.25,2-.53,4-.91,6s-.92,3.81-1.47,6c1.85,1.75,3.73,3.56,5.62,5.33q17,15.92,34,31.82c1.61,1.51,1.58,1.59,1.14,6.78H1833.4c-.06,1.93-.11,3.54-.16,5.35-.56.06-1.08.17-1.6.18-3,.07-2.64-.62-2.65,4.75q0,19.26,0,38.53v3.66h11.72v23.56h-73.24V489.89h12.76V442.78h-5.3v-5.39h-15.14c-.5-5.63-.45-5.86,2.42-8.55,6.4-6,12.82-11.93,19.22-17.92q8.82-8.24,17.6-16.54A7,7,0,0,0,1799.77,393.46Zm-16.89,70.93V483.5h6.76V464.39Zm43.68,19.23V464.44h-6.35v19.18ZM1789.67,443h-6.78v17h6.78Zm30.46-.08V460h6.42V442.92Zm-2.53,21.63h-4.48v19.06h4.48Zm0-21.8a21,21,0,0,0-3.59.07,2,2,0,0,0-1,1.51c-.08,5.2,0,10.41,0,15.69h4.68Zm14.33,51.33v9.74h6.3v-9.74Zm-36.48-10.46V464.51h-3.15v19.11ZM1792.33,443v17.07h3.13V443Zm-22.46,60.92h4.88v-9.79h-4.88Zm43.18,0h4.46v-9.72h-4.46Zm-20.75,0h3.19V494.1h-3.19Zm31.34-9.79v9.78h2.9v-9.78Zm-46.2,0v9.85h2.77V494Zm7.89,9.86v-9.79h-2.45v9.79Zm2.69-9.82v10l1.61-.27v-9.75Zm1.9-6-.32-.82c-2,0-4-.08-5.93.08-.36,0-.69,1-1,1.6l.32.83c2,0,4,.08,5.93-.08C1789.24,489.67,1789.57,488.65,1789.92,488.09Zm30.39-.82-.35.78c.34.58.66,1.62,1,1.65,1.85.17,3.71.08,5.57.08l.28-1c-.37-.51-.73-1.43-1.12-1.46C1823.91,487.18,1822.11,487.27,1820.31,487.27Zm-7.19,2.33c4.29.6,4.46.52,4.34-2.11C1813.51,486.74,1813.12,486.92,1813.12,489.6Zm7.16,14.36c1.34-2.39,1.15-8.83,0-9.88Zm-27.87-16.46c-.12,2.59.22,2.81,3,1.95C1795.45,486.9,1795.42,486.89,1792.41,487.5Zm36.6,15.56h.23v-8l-.23,0Z" transform="translate(-8.24 -368.56)"/>
    <path d="M1837.54,517.07v28.16h-66.87V517.07Z" transform="translate(-8.24 -368.56)"/>
    <path d="M1764.81,561.42h5l-.36,5.78-4.68-5.22Z" transform="translate(-8.24 -368.56)" style="fill: #fff"/>
    <path d="M1838.69,567c-.14-2.16-.23-3.66-.34-5.44h5.15Z" transform="translate(-8.24 -368.56)" style="fill: #fff"/>
    <path d="M1797.42,742.7h6v21.71h-6Z" transform="translate(-8.24 -368.56)"/>
    <path d="M1811.29,742.77v21.69h-5.64V742.77Z" transform="translate(-8.24 -368.56)"/>
    <path d="M1797.42,738.91c-.55-11-.09-15,6.12-16.43v16.43Z" transform="translate(-8.24 -368.56)"/>
    <path d="M1805.63,723c4.33.71,6.63,5,5.59,15.93h-5.59Z" transform="translate(-8.24 -368.56)"/>
    <path d="M1810.9,615.34v21.85h-5.74V615.34Z" transform="translate(-8.24 -368.56)"/>
    <path d="M1803.06,637.17h-6V615.38h6Z" transform="translate(-8.24 -368.56)"/>
    <path d="M1803.08,595.63v15.89h-5.93C1796,601.05,1798.07,595.46,1803.08,595.63Z" transform="translate(-8.24 -368.56)"/>
    <path d="M1810.82,611.59h-5.62V596C1809.28,596.49,1811.93,600.34,1810.82,611.59Z" transform="translate(-8.24 -368.56)"/>
    <path d="M1802.23,905.24h-6V883.57h6Z" transform="translate(-8.24 -368.56)"/>
    <path d="M1804.39,883.48h5.66v21.77h-5.66Z" transform="translate(-8.24 -368.56)"/>
    <path d="M1802.26,863.56v16.1h-5.94C1795.41,870,1796.45,863.47,1802.26,863.56Z" transform="translate(-8.24 -368.56)"/>
    <path d="M1804.4,879.86V863.7c3.41.09,5.75,4,5.76,9.6,0,6.56,0,6.56-3.75,6.56Z" transform="translate(-8.24 -368.56)"/>
  </g>
  <path d="M509.29,895.91v-1a22.17,22.17,0,0,1,15.59,7.94c5.35,6.22,9.89,13.15,14.39,19.25-1.2-3.3-2.5-7.54-4.27-11.58-4.22-9.64-11-17.23-19.39-23.75a64.7,64.7,0,0,1,13.06,6.5c2.1,1.28,3.81,3.44,6,4.23,10,3.55,16.1,10.91,20.64,19.94,1.53,3,2.7,6.27,4,9.41l1.82-.44q-5.28-28.53-10.55-57.07l1.16-.53,11,22.9.6-.24q-3.72-15.5-7.43-31l1.59-.34c16.11,26.42,19.2,55.71,18,86,3.66-24.24-1.33-47.61-6.88-71,12,17.64,15.27,37.76,16.23,58.53h1.73l8-36.34,2,7.22,1,.09c1.25-5,2.51-10,3.87-15.44,4.33,10.84.18,21.45.21,31.93l1.52.1,3.66-21.07c1.06,2.07,2,4.34,1.7,6.44-1.46,10.15-3.28,20.25-4.94,30.38-.51,3.17-.92,6.35-1.41,9.7h6.65c.68-19.33.09-38.52,3.05-57.44l1.79-.05c.9,7.58,1.81,15.17,2.86,24,1-11.57,1.84-21.84,2.7-32.11l1.37.14c6,17.69,6,36.16,7.15,54.5,5-15,6.3-30.27,2.65-45.88,6.17,8.38,6.81,18,6.94,28.91l5.28-13.31,1.2.42-1.83,15.48c8.73-14.73,8.07-33.18,19.84-46.53-1.34,7.51-2.55,15.08-5,22.24-2.49,7.37,1.25,12.86,3.94,18.84l-2.15-13.16,1-.23,3.95,7.86.66-.28q-1.59-8.78-3.19-17.56l1.32-.26c8.58,17.06,12.25,35.46,13.87,54.29h7.5l-16.76-61.19c13.22,10.86,16,26,22.9,39.06q-6.84-23.16-13.67-46.34l1.91-.79,16,33.11c1.36-8.65,2.05-17.36,8.7-24.22-2.78,13.67-3.65,27.23.47,40.81a56.43,56.43,0,0,0,1.49-11.83c.26-7.29-.23-14.67.79-21.85.78-5.47,3.42-10.69,5.23-16l1.85.52c-2.21,9.58-3.61,19.2-2.26,30l7.66-14.06,11.67,6.79c4.44-8.28-5-8.85-7.06-13.83a52.26,52.26,0,0,1,10.61,4.82c2.66,1.63,4.68,4.69,7.49,5.65,12.72,4.36,19.21,14.14,23.8,25.83.53,1.37,1.24,2.68,1.87,4l1.65-.45q-5.26-28.59-10.51-57.18l1-.45,9.2,17.79.71-.24-10.2-39.56h2a65.67,65.67,0,0,1,3.47,5.88c4.64,10,9.19,20,13.76,30l-.28.21q-.88-4.15-1.79-8.33c12.51,17,15.65,36.68,17.12,56.9l1.58.12,7.18-33.87.61-.2,2,12.76.84.19q1.63-10.44,3.28-20.88c5.72,20-3.07,38-7.83,57.82a19.27,19.27,0,0,0,1.9-2.95c4.74-14.6,10.79-28.87,12-44.66.61,1.56,1.22,3.12,2,5.07,3.74-6.66,7.31-13,10.87-19.35l1.43.69c-5.46,20-13.27,39.41-15.71,60.38H819c1.52-19.22,5.31-37.69,14-54.79l1.28.32-3.78,19.62.51.15,4.5-9.53,1.06.37-2.21,12.95c3.81-6.88,6.22-13.74,3.34-21.76-2.18-6.09-3.17-12.6-4.69-18.93a5.75,5.75,0,0,1,3.43,3.18c3.68,10.11,7.21,20.28,10.83,30.41,1.55,4.34,3.23,8.64,4.85,13l1.15-.38-2-15.74,1.3-.32c1.66,4.37,3.33,8.73,5.14,13.48,2.45-23.21,3-25.17,7.78-29.37-4.53,16.15-3.05,31.56,2.09,46.77.9-18.53.86-37.12,7-54.91l1.41-.06,2.52,31.38,1,0v-22l2.75-.73q5.26,13.71,10.52,27.39l1.78-.58-11.45-38.45,2-.79q8,16.38,16,32.8c1.34-8.33,2-17.05,8.63-24-2.62,13.67-3.66,27.24.45,40.82a41.44,41.44,0,0,0,1.68-10.42c.25-7.62-.13-15.28.5-22.87.59-7.11,3.74-13.19,6.39-15.26-.79,9.19-1.6,18.74-2.42,28.3l1.48.13,7.66-13.62a7,7,0,0,1,.12,4.95c-1.81,6.05-3.45,12.17-5.57,18.12s1.06,11,2.29,16.34c1.3-8.36,2-16.64,3.08-24.88.3-2.33,1.72-4.52,2.62-6.78l1.34.33a40.58,40.58,0,0,1,.89,5.31c.47,12,.8,24,1.27,35.95a25,25,0,0,0,1,4.5l1.82-.31a32.65,32.65,0,0,0,.3-4.28c-.55-10.11-1.19-20.22-1.76-30.33-.07-1.23-.2-3.43.19-3.55,4.2-1.25,3.49-4.89,4.12-7.86.52-2.42,1-4.86,1.48-7.29l1.22.15,4.4,44.18c6.95-12.78,2.42-25.59,1.62-38.34l1.3-.3,5.16,12.36,4.23-9.08,1.81.39c-6.28,14.64-2.2,29.15-.84,44.14h11.68v9h-441l.74-8.76,7-.53C533,919.42,525.76,905.82,509.29,895.91ZM721.12,901l1.3.28a31.68,31.68,0,0,1,.87,4.77c.45,12.46.77,24.93,1.27,37.39.05,1.16,1.09,2.27,1.66,3.41.55-1.15,1.63-2.33,1.58-3.46-.51-10.6-1.22-21.2-1.82-31.8-.06-1-.09-2.9.33-3,3.64-1.26,2-2.94.43-4.43-2.36-2.21-4.88-4.25-7.52-6.52-7.45,18.91-8.19,27.74-3.35,35.17.83-8.2,1.56-16.65,2.65-25C718.82,905.39,720.22,903.22,721.12,901Zm-183.39,1.46c8.7,13.54,10.81,28.83,11.62,44.1h6.35C555.29,929.34,551.31,914,537.73,902.44Zm212.14,6.06c2.44,12.69,4.88,25.37,7.38,38.4.69,0,1.84,0,3,0a21.1,21.1,0,0,0,2.2-.3C762.61,932.45,759.51,919.57,749.87,908.5Zm91.6,6.94-1.49-.15c-1.65,10.38-3.3,20.75-5,31.36h6.47Zm-186.11-.17-1.24,0V947l6.2-.5C658.61,935.77,657,925.52,655.36,915.27Zm238,31.37-6.59-29.82-.57.25v29.57ZM780,893c.88,15.91,1.93,34.84,3,53.76A140.89,140.89,0,0,0,780,893Zm-41.65,46.1c3.09-9.36,2.06-13.34-3.59-21.06Zm-2.7-40-2.55,1.34,6,11.11,2-1Q738.35,904.9,735.62,899.18Zm179.84,36.55c-2.68,8.83-2,10.93,3.13,10.66Z" transform="translate(-8.24 -368.56)"/>
  <path d="M948.39,893.67v-1A22.25,22.25,0,0,1,964,900.61c5.35,6.23,9.89,13.15,14.39,19.25-1.2-3.29-2.51-7.54-4.28-11.58-4.22-9.63-11-17.23-19.39-23.75a65,65,0,0,1,13.06,6.5c2.1,1.29,3.81,3.44,6,4.24,10,3.55,16.09,10.91,20.64,19.93,1.53,3,2.7,6.27,4,9.42l1.83-.45-10.56-57.06,1.17-.53,11,22.89.6-.23-7.44-31,1.59-.34c16.11,26.43,19.21,55.71,18,86,3.67-24.25-1.32-47.62-6.88-71,12,17.64,15.27,37.75,16.23,58.53h1.73l8-36.35,2,7.22,1,.1c1.25-5,2.5-10,3.87-15.44,4.33,10.83.17,21.45.21,31.93l1.51.09,3.66-21.07c1.06,2.08,2,4.35,1.71,6.44-1.47,10.15-3.28,20.26-4.94,30.38-.52,3.17-.93,6.35-1.41,9.7H1048c.68-19.33.09-38.52,3.06-57.44l1.78-.05c.91,7.59,1.82,15.18,2.87,24l2.69-32.11,1.37.14c6,17.68,6,36.15,7.16,54.5,5-15,6.29-30.28,2.64-45.89,6.17,8.39,6.81,18.05,6.94,28.92,2-5.11,3.66-9.21,5.28-13.31l1.21.42-1.83,15.47c8.72-14.73,8.06-33.18,19.84-46.52-1.35,7.51-2.56,15.07-5,22.23-2.48,7.37,1.25,12.86,4,18.84l-2.15-13.15,1-.24c1.31,2.63,2.63,5.25,3.94,7.87l.67-.28q-1.59-8.79-3.19-17.56l1.32-.26c8.58,17,12.24,35.46,13.86,54.29h7.5c-5.61-20.52-11-40.29-16.75-61.2,13.21,10.86,16,26,22.9,39.07q-6.84-23.17-13.67-46.34l1.91-.79,16,33.1c1.36-8.64,2.06-17.35,8.71-24.22-2.78,13.68-3.66,27.23.46,40.82a55.3,55.3,0,0,0,1.49-11.83c.26-7.29-.23-14.68.8-21.85.78-5.48,3.41-10.69,5.22-16l1.86.51c-2.22,9.59-3.62,19.21-2.27,30l7.66-14.06,11.67,6.78c4.44-8.27-5-8.84-7-13.83a53.28,53.28,0,0,1,10.6,4.82c2.67,1.63,4.69,4.69,7.5,5.65,12.72,4.36,19.2,14.15,23.79,25.84.54,1.37,1.24,2.67,1.87,4l1.65-.44q-5.25-28.59-10.51-57.18l1-.45,9.21,17.78.71-.23-10.2-39.56h2a66.84,66.84,0,0,1,3.46,5.87c4.65,10,9.19,20,13.77,30l-.28.21q-.9-4.17-1.79-8.34c12.51,17,15.64,36.68,17.12,56.9l1.57.12,7.19-33.86.6-.21q1,6.39,2,12.77l.84.18q1.64-10.44,3.28-20.88c5.72,20-3.08,38-7.84,57.82a18.87,18.87,0,0,0,1.9-2.94c4.75-14.61,10.79-28.88,12-44.66l2,5.07c3.74-6.66,7.3-13,10.87-19.35l1.43.68c-5.47,20-13.28,39.41-15.71,60.38h6.33c1.52-19.22,5.32-37.69,14-54.78l1.28.31q-1.89,9.81-3.79,19.63l.51.14,4.51-9.53,1.06.37-2.22,12.95c3.82-6.88,6.22-13.74,3.35-21.76-2.19-6.08-3.18-12.6-4.7-18.92a5.78,5.78,0,0,1,3.44,3.17c3.67,10.12,7.2,20.28,10.83,30.42,1.55,4.34,3.22,8.64,4.84,12.95l1.15-.38q-1-7.87-1.94-15.74l1.29-.31,5.15,13.47c2.44-23.2,2.94-25.17,7.78-29.37-4.53,16.16-3.06,31.56,2.09,46.77.9-18.52.86-37.11,7-54.9l1.41-.07,2.53,31.38,1,0v-22l2.76-.74q5.26,13.72,10.52,27.39l1.77-.58-11.45-38.45,2-.79,16,32.81c1.34-8.33,2-17.05,8.64-24-2.63,13.67-3.66,27.24.44,40.82a41.38,41.38,0,0,0,1.69-10.42c.24-7.62-.14-15.28.49-22.86.6-7.12,3.74-13.2,6.39-15.27-.78,9.19-1.6,18.75-2.41,28.31l1.48.13,7.66-13.63a6.9,6.9,0,0,1,.11,4.95c-1.8,6.06-3.45,12.18-5.56,18.13s1.06,11,2.28,16.34c1.31-8.36,2-16.65,3.08-24.88.31-2.34,1.72-4.53,2.63-6.78l1.33.32a40.9,40.9,0,0,1,.9,5.31c.46,12,.8,24,1.27,36a24.16,24.16,0,0,0,1,4.5l1.81-.32a32.53,32.53,0,0,0,.3-4.28c-.55-10.11-1.18-20.22-1.75-30.33-.07-1.22-.2-3.43.18-3.54,4.2-1.25,3.49-4.89,4.13-7.86.52-2.43,1-4.86,1.47-7.29l1.23.15,4.39,44.18c7-12.78,2.43-25.6,1.63-38.34l1.29-.31c1.64,3.93,3.28,7.86,5.17,12.37,1.62-3.5,2.92-6.29,4.22-9.08l1.81.38c-6.28,14.64-2.2,29.16-.84,44.14h11.69v9h-441l.73-8.76,7-.52C972.1,917.19,964.86,903.58,948.39,893.67Zm211.82,5.07,1.3.28a31.94,31.94,0,0,1,.88,4.77c.45,12.47.77,24.93,1.27,37.39,0,1.16,1.08,2.28,1.66,3.42.55-1.16,1.62-2.34,1.57-3.46-.5-10.61-1.21-21.2-1.82-31.8-.06-1.05-.08-2.9.34-3.05,3.64-1.25,2-2.94.42-4.43-2.36-2.21-4.88-4.24-7.52-6.52-7.45,18.92-8.18,27.74-3.35,35.18.84-8.21,1.56-16.65,2.65-25C1157.91,903.16,1159.32,901,1160.21,898.74ZM976.82,900.2c8.71,13.54,10.82,28.83,11.63,44.1h6.35C994.39,927.1,990.41,911.75,976.82,900.2ZM1189,906.27c2.43,12.68,4.87,25.37,7.37,38.4.7,0,1.84,0,3,0,.63,0,1.25-.17,2.19-.3C1201.7,930.21,1198.6,917.33,1189,906.27Zm91.59,6.93-1.48-.14c-1.65,10.37-3.3,20.75-5,31.35h6.47Zm-186.1-.16-1.25,0v31.75l6.2-.51C1097.71,933.53,1096.08,923.28,1094.46,913Zm238,31.36-6.59-29.82-.56.26V944.4Zm-113.43-53.59c.89,15.91,1.94,34.83,3,53.76A141.06,141.06,0,0,0,1219.06,890.81Zm-41.65,46.1c3.09-9.36,2.06-13.34-3.58-21.07C1175,922.41,1176.06,929,1177.41,936.91Zm-2.69-40-2.56,1.35,6,11.11,2-1Zm179.84,36.56c-2.69,8.83-2,10.92,3.12,10.66C1356.74,941,1355.82,937.82,1354.56,933.5Z" transform="translate(-8.24 -368.56)"/>
  <path d="M946.48,895.91v-1a22.17,22.17,0,0,1,15.58,7.94c5.36,6.22,9.9,13.15,14.4,19.25-1.21-3.3-2.51-7.54-4.28-11.58-4.22-9.64-11-17.23-19.39-23.75a64.44,64.44,0,0,1,13.06,6.5c2.1,1.28,3.81,3.44,6,4.23,10,3.55,16.1,10.91,20.64,19.94,1.54,3,2.71,6.27,4,9.41l1.82-.44q-5.26-28.53-10.55-57.07l1.17-.53,11,22.9.6-.24-7.44-31,1.59-.34c16.11,26.42,19.21,55.71,18,86,3.67-24.24-1.32-47.61-6.88-71,12,17.64,15.27,37.76,16.23,58.53h1.73l8-36.34,2,7.22,1,.09c1.26-5,2.51-10,3.87-15.44,4.34,10.84.18,21.45.21,31.93l1.52.1,3.66-21.07c1.06,2.07,2,4.34,1.71,6.44-1.47,10.15-3.29,20.25-4.94,30.38-.52,3.17-.93,6.35-1.41,9.7h6.64c.68-19.33.09-38.52,3.06-57.44l1.78-.05c.91,7.58,1.81,15.17,2.87,24L1056.5,881l1.37.14c6,17.69,6,36.16,7.16,54.5,5-15,6.29-30.27,2.64-45.88,6.17,8.38,6.81,18,6.94,28.91,2-5.11,3.66-9.21,5.28-13.31l1.2.42q-.91,7.74-1.82,15.48c8.72-14.73,8.06-33.18,19.84-46.53-1.35,7.51-2.56,15.08-5,22.24-2.48,7.37,1.25,12.86,3.95,18.84l-2.16-13.16,1-.23,3.94,7.86.67-.28q-1.6-8.78-3.19-17.56l1.32-.26c8.58,17.06,12.24,35.46,13.86,54.29h7.5c-5.62-20.51-11-40.28-16.75-61.19,13.21,10.86,16,26,22.89,39.06q-6.83-23.16-13.67-46.34l1.91-.79,16,33.11c1.36-8.65,2.05-17.36,8.71-24.22-2.78,13.67-3.66,27.23.46,40.81a55.14,55.14,0,0,0,1.49-11.83c.26-7.29-.23-14.67.8-21.85.78-5.47,3.41-10.69,5.22-16l1.86.52c-2.22,9.58-3.62,19.2-2.27,30l7.66-14.06,11.67,6.79c4.44-8.28-5-8.85-7-13.83a52.42,52.42,0,0,1,10.6,4.82c2.67,1.63,4.69,4.69,7.49,5.65,12.72,4.36,19.21,14.14,23.8,25.83.54,1.37,1.24,2.68,1.87,4l1.65-.45q-5.25-28.59-10.51-57.18l1-.45,9.21,17.79.71-.24-10.2-39.56h2a65.57,65.57,0,0,1,3.46,5.88c4.65,10,9.19,20,13.77,30l-.28.21-1.8-8.33c12.52,17,15.65,36.68,17.13,56.9l1.57.12,7.19-33.87.6-.2q1,6.38,2,12.76l.83.19q1.65-10.44,3.28-20.88c5.72,20-3.07,38-7.83,57.82a19.27,19.27,0,0,0,1.9-2.95c4.75-14.6,10.79-28.87,12-44.66l2,5.07,10.88-19.35,1.43.69c-5.47,20-13.28,39.41-15.71,60.38h6.33c1.52-19.22,5.32-37.69,14-54.79l1.28.32q-1.9,9.81-3.79,19.62l.51.15,4.51-9.53,1.06.37-2.22,12.95c3.82-6.88,6.22-13.74,3.34-21.76-2.18-6.09-3.17-12.6-4.69-18.93a5.8,5.8,0,0,1,3.44,3.18c3.67,10.11,7.2,20.28,10.82,30.41,1.56,4.34,3.23,8.64,4.85,13l1.15-.38q-1-7.87-1.94-15.74l1.29-.32c1.67,4.37,3.33,8.73,5.15,13.48,2.44-23.21,2.94-25.17,7.78-29.37-4.53,16.15-3.06,31.56,2.09,46.77.9-18.53.85-37.12,7-54.91l1.41-.06,2.53,31.38,1,0v-22l2.75-.73q5.28,13.71,10.53,27.39l1.77-.58-11.45-38.45,2-.79q8,16.38,16,32.8c1.34-8.33,2-17.05,8.64-24-2.63,13.67-3.66,27.24.44,40.82a41.46,41.46,0,0,0,1.69-10.42c.24-7.62-.14-15.28.49-22.87.6-7.11,3.74-13.19,6.39-15.26-.78,9.19-1.6,18.74-2.41,28.3l1.47.13,7.67-13.62a6.9,6.9,0,0,1,.11,4.95c-1.8,6.05-3.45,12.17-5.56,18.12s1.06,11,2.28,16.34c1.3-8.36,2-16.64,3.08-24.88.31-2.33,1.72-4.52,2.63-6.78l1.33.33a40.62,40.62,0,0,1,.9,5.31c.46,12,.79,24,1.27,35.95a24.16,24.16,0,0,0,1,4.5l1.81-.31a32.65,32.65,0,0,0,.3-4.28c-.55-10.11-1.18-20.22-1.75-30.33-.07-1.23-.2-3.43.18-3.55,4.2-1.25,3.49-4.89,4.13-7.86.51-2.42,1-4.86,1.47-7.29l1.23.15,4.39,44.18c7-12.78,2.43-25.59,1.62-38.34l1.3-.3,5.16,12.36,4.23-9.08,1.81.39c-6.28,14.64-2.2,29.15-.84,44.14h11.69v9h-441l.73-8.76,7-.53C970.18,919.42,962.94,905.82,946.48,895.91ZM1158.3,901l1.3.28a33,33,0,0,1,.88,4.77c.45,12.46.77,24.93,1.27,37.39,0,1.16,1.08,2.27,1.65,3.41.56-1.15,1.63-2.33,1.58-3.46-.5-10.6-1.22-21.2-1.82-31.8-.06-1-.08-2.9.34-3,3.64-1.26,2-2.94.42-4.43-2.36-2.21-4.88-4.25-7.52-6.52-7.45,18.91-8.19,27.74-3.35,35.17.84-8.2,1.56-16.65,2.65-25C1156,905.39,1157.41,903.22,1158.3,901Zm-183.39,1.46c8.71,13.54,10.81,28.83,11.63,44.1h6.35C992.48,929.34,988.49,914,974.91,902.44Zm212.15,6.06c2.43,12.69,4.87,25.37,7.37,38.4.69,0,1.84,0,3,0a21,21,0,0,0,2.19-.3C1199.79,932.45,1196.69,919.57,1187.06,908.5Zm91.59,6.94-1.48-.15c-1.65,10.38-3.3,20.75-5,31.36h6.47Zm-186.11-.17-1.24,0V947l6.2-.5C1095.79,935.77,1094.17,925.52,1092.54,915.27Zm238,31.37L1324,916.82l-.56.25v29.57ZM1217.15,893c.89,15.91,1.94,34.84,3,53.76A141.08,141.08,0,0,0,1217.15,893Zm-41.65,46.1c3.09-9.36,2.06-13.34-3.59-21.06Zm-2.7-40-2.55,1.34,6,11.11,2-1Zm179.85,36.55c-2.69,8.83-2,10.93,3.12,10.66C1354.83,943.18,1353.91,940.06,1352.65,935.73Z" transform="translate(-8.24 -368.56)"/>
</svg>
