<svg id="Layer_1" data-name="Layer 1" xmlns="http://www.w3.org/2000/svg" viewBox="0 0 1920.33 748.13">
  <title>avas-landing-l</title>
  <g>
    <path d="M188.42,522.63v14.2c-3.34-1.55-5,2.52-7.27,4.83-4,4.16-7,9-4.91,17.44a6.93,6.93,0,0,1,0,1.44l-4.15,2.38Q185.4,787.41,198.7,1012h64.63v69.09H0v-69H62.1c1.91,0,2.47-.68,2.65-3.91,1.13-21.15,2.48-42.27,3.73-63.4.79-13.19,1.51-26.38,2.29-39.56q1.74-29.41,3.52-58.82,2-34,4-68,1.9-32.2,3.86-64.39,1.75-30,3.49-60c1-17.85,2.15-35.7,3.2-53.56.73-12.3,1.4-24.61,2.12-37.24l-4.55-2.64c.26-2.86.49-5.76.81-8.63a5.56,5.56,0,0,0-1-4.48,80.49,80.49,0,0,1-5-6.34c-2-2.87-4.08-5.59-7.24-4.23V522.63ZM70.63,1012H192.45c-1.56-27.18-3.09-54-4.63-81H75.33C73.73,958.06,72.18,984.91,70.63,1012ZM182.26,835.9c0-.79.08-1.12.06-1.44-1-17.53-2.16-35.05-3.09-52.6-.18-3.28-.68-4.35-2.84-4.34-30,.12-60.09.08-90.13.09-.72,0-1.44.13-2.17.2-1.12,19.52-2.22,38.65-3.34,58.09Zm-9-155v-3c-.77-13.4-1.62-26.79-2.3-40.2-.14-2.75-.7-3.37-2.34-3.36-24.77.08-49.54.06-74.31.07-.66,0-1.31.1-2,.15-.88,15.6-1.74,30.82-2.62,46.33Zm-26.35,33.6c.33-5.66.32-5.63-2.58-7.92-3.62-2.87-7.19-5.87-10.86-8.58a2.51,2.51,0,0,0-2.79-.11c-4,2.77-8,5.85-12,8.76-2.91,2.14-3,2.36-2.26,7.73l2.54.51v43.64h26.37V718c-.07-2-.09-3.73,1.57-3.48Zm-28.33-134v43.45h26.23V581.11l.48.31a10.12,10.12,0,0,0,1.2-2.93c.16-1.82.39-3.77-1.18-5-4.21-3.17-8.29-6.75-12.51-9.88a2.81,2.81,0,0,0-3,.26c-3.84,2.59-7.61,5.48-11.41,8.22-2.72,2-3,2.94-2.33,7.84Zm25.33,326.9V866.93c0-2.07-.07-4,1.85-3.91-.37-2.4.79-5-1.21-6.52-4.38-3.37-8.69-7-13.06-10.39a1.48,1.48,0,0,0-1.68,0c-4.17,3-8.32,6.15-12.46,9.29-2.82,2.13-2.84,2.26-2.17,7.52l2.51.53v43.92Zm-57-370.57-.09.59,5.32,5.51.41-6.1Zm84,5.87,5.47-5.75h-5.85C170.65,538.81,170.76,540.41,170.91,542.68Z" transform="translate(0 -332.98)"/>
    <path d="M126.67,359.31a27.67,27.67,0,0,1-2.33-12.76c.29-4.66,2.07-13.08,5.66-13.55s8.78,7.16,8.56,13.45a46.66,46.66,0,0,1-1,6.33c-.4,2.06-1,4-1.66,6.35,2.1,1.85,4.23,3.76,6.38,5.63l38.6,33.63c1.83,1.59,1.8,1.67,1.3,7.16H164.9c-.07,2-.12,3.74-.18,5.65-.64.07-1.23.18-1.82.2-3.37.07-3-.66-3,5V461h13.32v24.9H90V461.22h14.51V411.43h-6v-5.7H81.24c-.57-6-.51-6.19,2.75-9,7.3-6.29,14.18-13.09,21.84-18.93A192.19,192.19,0,0,0,126.67,359.31Zm-19.19,75v20.2h7.69v-20.2Zm49.65,20.32V434.32h-7.22v20.27ZM115.2,411.71h-7.71v18h7.71Zm34.61-.09v18.09h7.31V411.58ZM147,434.48h-5.09v20.14H147Zm0-23a24.3,24.3,0,0,0-4.09.08,2.15,2.15,0,0,0-1.18,1.59c-.09,5.5-.06,11-.06,16.58H147Zm16.28,54.25V476h7.16V465.65Zm-41.46-11.06v-20.2h-3.58v20.2Zm-3.55-42.94v18h3.55v-18ZM92.69,476h5.55V465.67H92.69Zm49.09,0h5.07V465.74h-5.07Zm-23.59,0h3.62V465.7h-3.62Zm35.62-10.34V476h3.3V465.63Zm-52.52,0V476h3.16V465.6Zm9,10.42v-10.4H107.5V476Zm3-10.38v10.59l1.84-.28V465.64Zm2.16-6.32-.36-.87c-2.25,0-4.5-.09-6.74.08-.41,0-.79,1.1-1.18,1.69l.36.88c2.25,0,4.5.09,6.74-.08.44-.08.82-1.17,1.21-1.76ZM150,458.5l-.4.83c.39.61.76,1.71,1.16,1.75,2.11.17,4.22.08,6.33.08l.33-1c-.43-.54-.84-1.52-1.28-1.55a47.76,47.76,0,0,0-6.11-.17ZM141.83,461c4.87.64,5.06.55,4.92-2.23-4.42-.85-4.89-.66-4.89,2.17ZM150,476.14c1.52-2.52,1.31-9.33,0-10.44ZM118.33,458.7c-.13,2.73.25,3,3.47,2.05C121.77,458.06,121.74,458.05,118.33,458.7Zm41.6,16.44h.26v-8.43h-.26Z" transform="translate(0 -332.98)"/>
    <path d="M169.61,489.94V519.7h-76V489.94Z" transform="translate(0 -332.98)"/>
    <path id="window" d="M146.9,714.54c-1.66-.25-1.64,1.5-1.64,3.52v40.51H119V714.93l-2.54-.51c-.74-5.37-.65-5.59,2.26-7.73,4-2.91,7.92-6,12-8.76a2.51,2.51,0,0,1,2.79.11c3.67,2.71,7.24,5.71,10.86,8.58C147.22,708.91,147.23,708.88,146.9,714.54ZM124,728.38v22.93h6.87V728.38Zm15.77.07h-6.44v22.92h6.4ZM124,724.37h7V707C123.91,708.49,123.38,712.7,124,724.37Zm9.32-16.87v16.84h6.36C140.88,712.82,138.26,708.26,133.33,707.5Z" transform="translate(0 -332.98)" style="fill: #fff"/>
    <path id="window-2" d="M118.58,580.48,116,580c-.71-4.9-.39-5.89,2.33-7.84,3.8-2.74,7.57-5.63,11.41-8.22a2.81,2.81,0,0,1,3-.26c4.22,3.13,8.3,6.71,12.51,9.88,1.57,1.18,1.34,3.13,1.18,5a10.12,10.12,0,0,1-1.2,2.93l-.48-.31V624h-26.2Zm20.75,13.31h-6.52v23.09h6.52Zm-8.9,23.07v-23h-6.86v23Zm0-43.9c-5.69-.18-8.06,5.73-6.74,16.79h6.74Zm8.8,16.87c1.26-11.89-1.75-16-6.39-16.5v16.5Z" transform="translate(0 -332.98)" style="fill: #fff"/>
    <path id="window-3" d="M143.91,907.38H117.68V863.46l-2.51-.53c-.67-5.26-.65-5.39,2.17-7.52,4.14-3.14,8.29-6.26,12.46-9.29a1.48,1.48,0,0,1,1.68,0c4.37,3.41,8.68,7,13.06,10.39,2,1.54.84,4.12,1.21,6.52-1.92-.13-1.86,1.84-1.85,3.91v40.44Zm-14.44-7.24V877.25h-6.79v22.89Zm2.45-23v23h6.41v-23Zm-2.41-21c-6.6-.1-7.79,6.8-6.75,17h6.75Zm2.43,17.22h2.29c4.28,0,4.28,0,4.26-6.93,0-5.91-2.67-10-6.55-10.14Z" transform="translate(0 -332.98)" style="fill: #fff"/>
    <path d="M124,728.38h6.87v22.93H124Z" transform="translate(0 -332.98)"/>
    <path d="M139.77,728.45v22.92h-6.44V728.45Z" transform="translate(0 -332.98)"/>
    <path d="M124,724.37c-.63-11.67-.1-15.88,7-17.37v17.37Z" transform="translate(0 -332.98)"/>
    <path d="M133.33,707.5c4.93.76,7.55,5.32,6.36,16.84h-6.36Z" transform="translate(0 -332.98)"/>
    <path d="M139.33,593.79v23.09h-6.52V593.79Z" transform="translate(0 -332.98)"/>
    <path d="M130.42,616.86h-6.86v-23h6.86Z" transform="translate(0 -332.98)"/>
    <path d="M130.44,573v16.79H123.7C122.38,578.69,124.75,572.78,130.44,573Z" transform="translate(0 -332.98)"/>
    <path d="M139.24,589.83h-6.39v-16.5C137.49,573.87,140.5,577.94,139.24,589.83Z" transform="translate(0 -332.98)"/>
    <path d="M129.47,900.14h-6.79V877.25h6.79Z" transform="translate(0 -332.98)"/>
    <path d="M131.92,877.15h6.41v23h-6.44Z" transform="translate(0 -332.98)"/>
    <path d="M129.51,856.1v17h-6.75C121.72,862.9,122.91,856,129.51,856.1Z" transform="translate(0 -332.98)"/>
    <path d="M131.94,873.32V856.25c3.88.09,6.53,4.23,6.55,10.14,0,6.93,0,6.93-4.26,6.93Z" transform="translate(0 -332.98)"/>
  </g>
  <g>
    <path d="M481.85,676.29v8.26c-1.9-.9-2.85,1.47-4.12,2.81-2.3,2.42-4,5.2-2.79,10.14a3.93,3.93,0,0,1,0,.84l-2.35,1.39q7.55,130.56,15.08,261.2h36.66v40.18H375V961h35.19c1.08,0,1.4-.4,1.5-2.28.64-12.3,1.4-24.59,2.12-36.88.44-7.67.85-15.34,1.3-23q1-17.12,2-34.22,1.13-19.77,2.24-39.54,1.08-18.72,2.2-37.45,1-17.48,2-35c.6-10.38,1.23-20.76,1.82-31.15.41-7.15.8-14.31,1.2-21.66L424,698.29c.15-1.66.28-3.35.46-5a3.14,3.14,0,0,0-.6-2.61A41.84,41.84,0,0,1,421,687c-1.16-1.66-2.32-3.24-4.11-2.45v-8.27Zm-66.8,284.64h69.08c-.88-15.81-1.75-31.43-2.62-47.11H417.69c-.88,15.72-1.75,31.34-2.64,47.11Zm63.28-102.44v-.84c-.59-10.19-1.22-20.38-1.75-30.59-.1-1.9-.39-2.53-1.61-2.52-17,.07-34.08,0-51.11.05-.41,0-.82.07-1.23.11-.64,11.36-1.26,22.48-1.9,33.79Zm-5.11-90.12v-1.74c-.44-7.79-.91-15.58-1.3-23.38-.08-1.6-.4-2-1.33-2-14,0-28.09,0-42.14,0-.37,0-.74.06-1.12.09-.5,9.07-1,17.93-1.49,27Zm-14.89,19.54c.18-3.29.18-3.28-1.47-4.61-2.05-1.67-4.08-3.42-6.15-5a1.4,1.4,0,0,0-1.59-.06c-2.28,1.61-4.52,3.4-6.77,5.09-1.66,1.25-1.71,1.38-1.29,4.5l1.45.29v25.39h14.9V789.94C457.33,788.78,457.33,787.76,458.33,787.91Zm-16.06-78v25.27h14.87V710.3l.27.19a6.17,6.17,0,0,0,.68-1.71c.09-1.06.22-2.19-.66-2.88-2.39-1.84-4.71-3.92-7.1-5.74a1.53,1.53,0,0,0-1.72.15c-2.18,1.5-4.31,3.18-6.47,4.77-1.54,1.14-1.72,1.72-1.32,4.57ZM456.63,900V876.5c0-1.2,0-2.35,1.05-2.28-.2-1.39.45-2.89-.69-3.79-2.48-2-4.92-4.06-7.4-6a.81.81,0,0,0-1,0c-2.37,1.76-4.72,3.57-7.07,5.4-1.6,1.24-1.61,1.31-1.23,4.37l1.43.31v25.54Zm-32.3-215.49-.05.34,3,3.21.23-3.55ZM471.92,688l3.1-3.34H471.7C471.77,685.7,471.83,686.63,471.92,688Z" transform="translate(0 -332.98)"/>
    <path d="M446.83,581.3c-.46-2.6-.88-5-1.32-7.42-.64-3.57.73-7.1,3.38-7.79,2.42-.64,5.4,2.08,4.66,7.73-.16,1.24-.34,2.48-.59,3.68s-.59,2.34-.95,3.7c1.2,1.07,2.41,2.18,3.62,3.27L477.53,604c1,.92,1,1,.73,4.17h-9.75c0,1.18-.07,2.17-.1,3.28-.36,0-.7.11-1,.12-1.91,0-1.7-.38-1.71,2.91v25.93h7.56V654.9H426V640.57h8.23v-29h-3.42V608.3h-9.76c-.32-3.46-.29-3.6,1.56-5.25,4.12-3.68,8.26-7.33,12.39-11l11.31-10.18A3,3,0,0,0,446.83,581.3ZM436,624.9v11.75h4.38V624.9Zm28.16,11.82V624.93H460v11.79Zm-23.78-25H436V622.2h4.37Zm19.63,0v10.51h4.14V611.71ZM458.33,625h-2.88v11.71h2.88Zm0-13.4a15,15,0,0,0-2.32,0,1.29,1.29,0,0,0-.67.93v9.64h3Zm9.23,31.55v6h4.06v-6Zm-23.51-6.43V625h-2v11.75Zm-2-25v10.49h2V611.74Zm-14.47,37.44h3.14v-6h-3.14Zm27.83,0h2.87v-6h-2.87Zm-13.38,0h2.06v-6H442Zm20.21-6v6h1.87v-6Zm-29.79,0v6.06h1.79v-6.06Zm5.09,6.06v-6H436v6Zm1.73-6v6.16l1-.17v-6Zm1.23-3.68-.17-.54c-1.27,0-2.55,0-3.82,0-.23,0-.44.64-.67,1l.21.51h3.82c.18-.07.4-.7.62-1Zm19.59-.51-.23.48c.22.36.43,1,.66,1,1.19.1,2.39,0,3.59,0l.18-.6c-.24-.31-.47-.88-.72-.9-1.17-.1-2.33,0-3.49,0Zm-4.64,1.44c2.77.36,2.88.31,2.8-1.3-2.56-.53-2.81-.42-2.81,1.23Zm4.62,8.82c.86-1.47.74-5.43,0-6.07Zm-18-10.11c-.07,1.59.15,1.72,2,1.19,0-1.63,0-1.64-2-1.26Zm23.59,9.56h.15v-4.9h-.15Z" transform="translate(0 -332.98)"/>
    <path d="M471.18,657.28v17.31h-43.1V657.28Z" transform="translate(0 -332.98)"/>
    <path id="window-4" d="M458.33,787.91c-1-.15-.94.87-.93,2v23.57H442.5V788.13l-1.45-.29c-.42-3.12-.37-3.25,1.29-4.5,2.25-1.69,4.49-3.48,6.77-5.09a1.4,1.4,0,0,1,1.59.06c2.07,1.57,4.1,3.32,6.15,5C458.49,784.63,458.49,784.62,458.33,787.91Zm-13,8V809.3h3.89V796Zm8.94,0h-3.64v13.33h3.63Zm-8.94-2.29h3.95V783.53C445.27,784.39,445,786.84,445.33,793.62Zm5.29-9.8v9.79h3.61c.66-6.7-.82-9.36-3.62-9.79Z" transform="translate(0 -332.98)" style="fill: #fff"/>
    <path id="window-5" d="M442.25,709.94l-1.45-.29c-.4-2.85-.22-3.43,1.32-4.57,2.16-1.59,4.29-3.27,6.47-4.77a1.53,1.53,0,0,1,1.72-.15c2.39,1.82,4.71,3.9,7.1,5.74.88.69.75,1.82.66,2.88a6.17,6.17,0,0,1-.68,1.71l-.27-.19v24.91H442.25ZM454,717.68h-3.68v13.43H454ZM449,731.1V717.7h-3.89v13.4Zm0-25.54c-3.23-.1-4.57,3.34-3.82,9.77H449Zm5,9.81c.72-6.91-1-9.28-3.62-9.59v9.59Z" transform="translate(0 -332.98)" style="fill: #fff"/>
    <path id="window-6" d="M456.61,900.06H441.74V874.52l-1.43-.31c-.38-3.06-.37-3.13,1.23-4.37,2.35-1.83,4.7-3.64,7.07-5.4a.81.81,0,0,1,1,0c2.48,2,4.92,4.08,7.4,6,1.14.9.49,2.4.69,3.79-1.08-.07-1.05,1.08-1.05,2.28v21.2Zm-8.19-4.2V882.54h-3.85v13.32Zm1.39-13.38v13.38h3.65V882.48Zm-1.37-12.24c-3.74-.06-4.41,4-3.82,9.89h3.82Zm1.38,10h1.3c2.43,0,2.43,0,2.42-4,0-3.44-1.52-5.85-3.72-5.9Z" transform="translate(0 -332.98)" style="fill: #fff"/>
    <path d="M445.33,796h3.89v13.3h-3.89Z" transform="translate(0 -332.98)"/>
    <path d="M454.26,796v13.33h-3.63V796Z" transform="translate(0 -332.98)"/>
    <path d="M445.33,793.62c-.35-6.78-.05-9.23,3.95-10.09v10.09Z" transform="translate(0 -332.98)"/>
    <path d="M450.61,783.82c2.8.43,4.28,3.09,3.61,9.79h-3.61Z" transform="translate(0 -332.98)"/>
    <path d="M454,717.68v13.43h-3.68V717.68Z" transform="translate(0 -332.98)"/>
    <path d="M449,731.1h-3.89V717.7H449Z" transform="translate(0 -332.98)"/>
    <path d="M449,705.56v9.77h-3.82C444.4,708.9,445.74,705.46,449,705.56Z" transform="translate(0 -332.98)"/>
    <path d="M454,715.37h-3.63v-9.59C453,706.09,454.68,708.46,454,715.37Z" transform="translate(0 -332.98)"/>
    <path d="M448.42,895.86h-3.85V882.54h3.85Z" transform="translate(0 -332.98)"/>
    <path d="M449.81,882.48h3.65v13.38h-3.65Z" transform="translate(0 -332.98)"/>
    <path d="M448.44,870.24v9.89h-3.82C444,874.19,444.7,870.18,448.44,870.24Z" transform="translate(0 -332.98)"/>
    <path d="M449.82,880.26v-9.93c2.2,0,3.71,2.46,3.72,5.9,0,4,0,4-2.42,4Z" transform="translate(0 -332.98)"/>
  </g>
  <g>
    <path d="M1474.85,681.29v8.26c-1.9-.9-2.85,1.47-4.12,2.81-2.3,2.42-4,5.2-2.79,10.14a3.93,3.93,0,0,1,0,.84l-2.35,1.39q7.54,130.56,15.08,261.2h36.66v40.18H1368V966h35.19c1.08,0,1.4-.4,1.5-2.28.64-12.3,1.4-24.59,2.12-36.88.44-7.67.85-15.34,1.3-23q1-17.12,2-34.22,1.13-19.77,2.24-39.54,1.08-18.72,2.2-37.45,1-17.48,2-35c.6-10.38,1.23-20.76,1.82-31.15.41-7.15.8-14.31,1.2-21.66l-2.58-1.53c.15-1.66.28-3.35.46-5a3.14,3.14,0,0,0-.6-2.61A41.84,41.84,0,0,1,1414,692c-1.16-1.66-2.32-3.24-4.11-2.45v-8.27Zm-66.8,284.64h69.08c-.88-15.81-1.75-31.43-2.62-47.11h-63.82C1409.81,934.54,1408.94,950.16,1408.05,965.93Zm63.28-102.44v-.84c-.59-10.19-1.22-20.38-1.75-30.59-.1-1.9-.39-2.53-1.61-2.52-17,.07-34.08,0-51.11.05-.41,0-.82.07-1.23.11-.64,11.36-1.26,22.48-1.9,33.79Zm-5.11-90.12v-1.74c-.44-7.79-.91-15.58-1.3-23.38-.08-1.6-.4-2-1.33-2-14,0-28.09,0-42.14,0-.37,0-.74.06-1.12.09-.5,9.07-1,17.93-1.49,27Zm-14.89,19.54c.18-3.29.18-3.28-1.47-4.61-2-1.67-4.08-3.42-6.15-5a1.4,1.4,0,0,0-1.59-.06c-2.28,1.61-4.52,3.4-6.77,5.09-1.66,1.25-1.71,1.38-1.29,4.5l1.45.29v25.39h14.9V794.94C1450.33,793.78,1450.33,792.76,1451.33,792.91Zm-16.06-78v25.27h14.87V715.3l.27.19a6.17,6.17,0,0,0,.68-1.71c.09-1.06.22-2.19-.66-2.88-2.39-1.84-4.71-3.92-7.1-5.74a1.53,1.53,0,0,0-1.72.15c-2.18,1.5-4.31,3.18-6.47,4.77-1.54,1.14-1.72,1.72-1.32,4.57ZM1449.63,905V881.5c0-1.2,0-2.35,1-2.28-.2-1.39.45-2.89-.69-3.79-2.48-2-4.92-4.06-7.4-6a.81.81,0,0,0-1,0c-2.37,1.76-4.72,3.57-7.07,5.4-1.6,1.24-1.61,1.31-1.23,4.37l1.43.31v25.54Zm-32.3-215.49v.34l3,3.21.23-3.55Zm47.61,3.41,3.1-3.34h-3.32c0,1.09.11,2,.2,3.39Z" transform="translate(0 -332.98)"/>
    <path d="M1439.83,586.3c-.46-2.6-.88-5-1.32-7.42-.64-3.57.73-7.1,3.38-7.79,2.42-.64,5.4,2.08,4.66,7.73-.16,1.24-.34,2.48-.59,3.68s-.59,2.34-1,3.7c1.2,1.07,2.41,2.18,3.62,3.27q11,9.78,21.9,19.56c1,.92,1,1,.73,4.17h-9.75c0,1.18-.07,2.17-.1,3.28-.36,0-.7.11-1,.12-1.91,0-1.7-.38-1.71,2.91v25.93h7.56v14.49H1419V645.57h8.23v-29h-3.42V613.3h-9.76c-.32-3.46-.29-3.6,1.56-5.25,4.12-3.68,8.26-7.33,12.39-11l11.33-10.18A3,3,0,0,0,1439.83,586.3ZM1429,629.9v11.75h4.38V629.9Zm28.16,11.82V629.93H1453v11.79Zm-23.78-25H1429V627.2h4.37Zm19.63,0v10.51h4.14V616.71ZM1451.33,630h-2.88v11.71h2.88Zm0-13.4a15,15,0,0,0-2.32,0,1.29,1.29,0,0,0-.67.93v9.64h3Zm9.23,31.55v6h4.06v-6Zm-23.51-6.43V630h-2v11.75Zm-2-25v10.49h2V616.74Zm-14.47,37.44h3.14v-6h-3.14Zm27.83,0h2.87v-6h-2.87Zm-13.38,0h2.06v-6H1435Zm20.21-6v6h1.87v-6Zm-29.79,0v6.06h1.79v-6.06Zm5.09,6.06v-6H1429v6Zm1.73-6v6.16l1-.17v-6Zm1.23-3.68-.17-.54c-1.27,0-2.55,0-3.82,0-.23,0-.44.64-.67,1l.21.51h3.82c.18-.07.4-.7.62-1Zm19.59-.51-.23.48c.22.36.43,1,.66,1,1.19.1,2.39,0,3.59,0l.18-.6c-.24-.31-.47-.88-.72-.9-1.17-.1-2.33,0-3.49,0Zm-4.64,1.44c2.77.36,2.88.31,2.8-1.3-2.56-.53-2.81-.42-2.81,1.23Zm4.62,8.82c.86-1.47.74-5.43,0-6.07Zm-18-10.11c-.07,1.59.15,1.72,2,1.19,0-1.63,0-1.64-2-1.26Zm23.59,9.56h.15v-4.9h-.15Z" transform="translate(0 -332.98)"/>
    <path d="M1464.18,662.28v17.31h-43.1V662.28Z" transform="translate(0 -332.98)"/>
    <path id="window-7" d="M1451.33,792.91c-1-.15-.94.87-.93,2v23.57h-14.9V793.13l-1.45-.29c-.42-3.12-.37-3.25,1.29-4.5,2.25-1.69,4.49-3.48,6.77-5.09a1.4,1.4,0,0,1,1.59.06c2.07,1.57,4.1,3.32,6.15,5C1451.49,789.63,1451.49,789.62,1451.33,792.91Zm-13,8V814.3h3.89V801Zm8.94,0h-3.63v13.33h3.63Zm-8.94-2.38h4v-10c-4.06.86-4.36,3.31-4,10.09Zm5.29-9.8v9.79h3.61c.66-6.61-.82-9.27-3.62-9.7Z" transform="translate(0 -332.98)" style="fill: #fff"/>
    <path id="window-8" d="M1435.25,714.94l-1.45-.29c-.4-2.85-.22-3.43,1.32-4.57,2.16-1.59,4.29-3.27,6.47-4.77a1.53,1.53,0,0,1,1.72-.15c2.39,1.82,4.71,3.9,7.1,5.74.88.69.75,1.82.66,2.88a6.17,6.17,0,0,1-.68,1.71l-.27-.19v24.91h-14.87Zm11.76,7.74h-3.68v13.43h3.7Zm-5,13.42V722.7h-3.89v13.4Zm0-25.54c-3.23-.1-4.57,3.34-3.82,9.77H1442Zm5,9.81c.72-6.91-1-9.28-3.62-9.59v9.59Z" transform="translate(0 -332.98)" style="fill: #fff"/>
    <path id="window-9" d="M1449.61,905.06h-14.87V879.52l-1.43-.31c-.38-3.06-.37-3.13,1.23-4.37,2.35-1.83,4.7-3.64,7.07-5.4a.81.81,0,0,1,1,0c2.48,2,4.92,4.08,7.4,6,1.14.9.49,2.4.69,3.79-1.08-.07-1,1.08-1,2.28v21.2Zm-8.19-4.2V887.54h-3.85v13.32Zm1.39-13.38v13.38h3.65V887.48Zm-1.37-12.24c-3.74-.06-4.41,4-3.82,9.89h3.82Zm1.38,10h1.3c2.43,0,2.43,0,2.42-4,0-3.44-1.52-5.85-3.72-5.9Z" transform="translate(0 -332.98)" style="fill: #fff"/>
    <path d="M1438.33,801h3.89v13.3h-3.89Z" transform="translate(0 -332.98)"/>
    <path d="M1447.26,801v13.33h-3.63V801Z" transform="translate(0 -332.98)"/>
    <path d="M1438.33,798.62c-.35-6.78,0-9.23,4-10.09v10.09Z" transform="translate(0 -332.98)"/>
    <path d="M1443.61,788.82c2.8.43,4.28,3.09,3.61,9.79h-3.61Z" transform="translate(0 -332.98)"/>
    <path d="M1447,722.68v13.43h-3.68V722.68Z" transform="translate(0 -332.98)"/>
    <path d="M1442,736.1h-3.89V722.7H1442Z" transform="translate(0 -332.98)"/>
    <path d="M1442,710.56v9.77h-3.82C1437.4,713.9,1438.74,710.46,1442,710.56Z" transform="translate(0 -332.98)"/>
    <path d="M1447,720.37h-3.63v-9.59C1446,711.09,1447.68,713.46,1447,720.37Z" transform="translate(0 -332.98)"/>
    <path d="M1441.42,900.86h-3.85V887.54h3.85Z" transform="translate(0 -332.98)"/>
    <path d="M1442.81,887.48h3.65v13.38h-3.65Z" transform="translate(0 -332.98)"/>
    <path d="M1441.44,875.24v9.89h-3.82C1437,879.19,1437.7,875.18,1441.44,875.24Z" transform="translate(0 -332.98)"/>
    <path d="M1442.82,885.26v-9.93c2.2,0,3.71,2.46,3.72,5.9,0,4,0,4-2.42,4Z" transform="translate(0 -332.98)"/>
  </g>
  <g>
    <path d="M1845.42,522.63v14.2c-3.34-1.55-5,2.52-7.27,4.83-4,4.16-7,9-4.91,17.44a6.93,6.93,0,0,1,0,1.44l-4.15,2.38q13.31,224.49,26.61,449.1h64.63v69.09H1657v-69h62.1c1.91,0,2.47-.68,2.65-3.91,1.13-21.15,2.48-42.27,3.73-63.4.79-13.19,1.51-26.38,2.29-39.56q1.74-29.41,3.52-58.82,2-34,4-68,1.9-32.2,3.86-64.39,1.78-30.06,3.53-60.14c1-17.85,2.15-35.7,3.2-53.56.73-12.3,1.4-24.61,2.12-37.24l-4.55-2.64c.26-2.86.49-5.76.81-8.63.2-1.88,0-3.27-1-4.48a80.49,80.49,0,0,1-5-6.34c-2-2.87-4.08-5.59-7.24-4.23V522.63ZM1727.63,1012h121.82c-1.56-27.18-3.09-54-4.63-81H1732.33C1730.73,958.06,1729.18,984.91,1727.63,1012Zm111.63-176.1c0-.79.08-1.12.06-1.44-1-17.53-2.16-35.05-3.09-52.6-.18-3.28-.68-4.35-2.84-4.34-30,.12-60.09.08-90.13.09-.72,0-1.44.13-2.17.2-1.12,19.52-2.22,38.65-3.34,58.09Zm-9-155v-3c-.77-13.4-1.62-26.79-2.3-40.2-.14-2.75-.7-3.37-2.34-3.36-24.77.08-49.54.06-74.31.07-.66,0-1.31.1-2,.15-.88,15.6-1.74,30.82-2.62,46.33Zm-26.35,33.6c.33-5.66.32-5.63-2.58-7.92-3.62-2.87-7.19-5.87-10.86-8.58a2.51,2.51,0,0,0-2.79-.11c-4,2.77-8,5.85-12,8.76-2.91,2.14-3,2.36-2.26,7.73l2.54.51v43.64h26.32V718c-.07-2-.09-3.73,1.57-3.48Zm-28.32-134.06v43.45h26.23V581.11l.48.31a10.12,10.12,0,0,0,1.2-2.93c.16-1.82.39-3.77-1.18-5-4.21-3.17-8.29-6.75-12.51-9.88a2.81,2.81,0,0,0-3,.26c-3.84,2.59-7.61,5.48-11.41,8.22-2.72,2-3,2.94-2.33,7.84Zm25.33,326.9V866.89c0-2.07-.07-4,1.85-3.91-.37-2.4.79-5-1.21-6.52-4.38-3.37-8.69-7-13.06-10.39a1.48,1.48,0,0,0-1.68,0c-4.17,3-8.32,6.15-12.46,9.29-2.82,2.13-2.84,2.26-2.17,7.52l2.51.53v43.92Zm-57-370.57-.09.59,5.32,5.51.41-6.1Zm84,5.87,5.47-5.75h-5.85c.11,1.92.22,3.52.37,5.79Z" transform="translate(0 -332.98)"/>
    <path d="M1783.67,359.31c-.81-4.47-1.56-8.62-2.33-12.76-1.14-6.13,1.29-12.2,6-13.39,4.28-1.1,9.52,3.57,8.22,13.29-.28,2.13-.6,4.27-1,6.33s-1,4-1.66,6.35c2.1,1.85,4.23,3.76,6.38,5.63l38.6,33.63c1.83,1.59,1.8,1.67,1.3,7.16H1822c-.07,2-.12,3.74-.18,5.65-.64.07-1.23.18-1.82.2-3.37.07-3-.66-3,5V461h13.32v24.9h-83.25V461.22h14.51V411.43h-6v-5.7h-17.21c-.57-6-.51-6.19,2.75-9,7.27-6.33,14.57-12.61,21.84-18.93q10-8.71,20-17.48A6,6,0,0,0,1783.67,359.31Zm-19.19,75v20.2h7.69v-20.2Zm49.65,20.32V434.32h-7.22v20.27Zm-41.93-42.92h-7.71v18h7.71Zm34.61-.09v18.09h7.31V411.58ZM1804,434.48h-5.09v20.14H1804Zm0-23a24.3,24.3,0,0,0-4.09.08,2.15,2.15,0,0,0-1.18,1.59c-.09,5.5-.06,11-.06,16.58H1804Zm16.28,54.25V476h7.16V465.65Zm-41.46-11.06v-20.2h-3.58v20.2Zm-3.55-42.94v18h3.55v-18ZM1749.69,476h5.55V465.67h-5.55Zm49.09,0h5.07V465.74h-5.07Zm-23.59,0h3.62V465.7h-3.62Zm35.62-10.34V476h3.3V465.63Zm-52.52,0V476h3.16V465.6Zm9,10.42v-10.4h-2.79V476Zm3-10.38v10.59l1.84-.28V465.64Zm2.16-6.32-.36-.87c-2.25,0-4.5-.09-6.74.08-.41,0-.79,1.1-1.18,1.69l.36.88c2.25,0,4.5.09,6.74-.08.44-.08.82-1.17,1.21-1.76Zm34.54-.88-.4.83c.39.61.76,1.71,1.16,1.75,2.11.17,4.22.08,6.33.08l.33-1c-.43-.54-.84-1.52-1.28-1.55a47.76,47.76,0,0,0-6.11-.17Zm-8.16,2.47c4.87.64,5.06.55,4.92-2.23-4.42-.85-4.89-.66-4.89,2.17Zm8.13,15.17c1.52-2.52,1.31-9.33,0-10.44Zm-31.63-17.44c-.13,2.73.25,3,3.47,2.05C1778.77,458.06,1778.74,458.05,1775.33,458.7Zm41.6,16.44h.26v-8.43h-.26Z" transform="translate(0 -332.98)"/>
    <path d="M1826.61,489.94V519.7h-76V489.94Z" transform="translate(0 -332.98)"/>
    <path id="window-10" d="M1803.9,714.54c-1.66-.25-1.64,1.5-1.64,3.52v40.51H1776V714.93l-2.54-.51c-.74-5.37-.65-5.59,2.26-7.73,4-2.91,7.92-6,12-8.76a2.51,2.51,0,0,1,2.79.11c3.67,2.71,7.24,5.71,10.86,8.58C1804.22,708.91,1804.23,708.88,1803.9,714.54ZM1781,728.38v22.93h6.87V728.38Zm15.77.07h-6.44v22.92h6.4ZM1781,724.37h7V707c-7.1,1.49-7.63,5.7-7,17.37Zm9.32-16.87v16.84h6.36C1797.88,712.82,1795.26,708.26,1790.33,707.5Z" transform="translate(0 -332.98)" style="fill: #fff"/>
    <path id="window-11" d="M1775.58,580.48,1773,580c-.71-4.9-.39-5.89,2.33-7.84,3.8-2.74,7.57-5.63,11.41-8.22a2.81,2.81,0,0,1,3-.26c4.22,3.13,8.3,6.71,12.51,9.88,1.57,1.18,1.34,3.13,1.18,5a10.12,10.12,0,0,1-1.2,2.93l-.48-.31V624h-26.23Zm20.75,13.31h-6.52v23.09h6.52Zm-8.9,23.07v-23h-6.86v23Zm0-43.9c-5.69-.18-8.06,5.73-6.74,16.79h6.74Zm8.8,16.87c1.26-11.89-1.75-16-6.39-16.5v16.5Z" transform="translate(0 -332.98)" style="fill: #fff"/>
    <path id="window-12" d="M1800.91,907.38h-26.23V863.46l-2.51-.53c-.67-5.26-.65-5.39,2.17-7.52,4.14-3.14,8.29-6.26,12.46-9.29a1.48,1.48,0,0,1,1.68,0c4.37,3.41,8.68,7,13.06,10.39,2,1.54.84,4.12,1.21,6.52-1.92-.13-1.86,1.84-1.85,3.91v40.44Zm-14.44-7.24V877.25h-6.79v22.89Zm2.45-23v23h6.41v-23Zm-2.41-21c-6.6-.1-7.79,6.8-6.75,17h6.75Zm2.43,17.22h2.29c4.28,0,4.28,0,4.26-6.93,0-5.91-2.67-10-6.55-10.14Z" transform="translate(0 -332.98)" style="fill: #fff"/>
    <path d="M1781,728.38h6.87v22.93H1781Z" transform="translate(0 -332.98)"/>
    <path d="M1796.77,728.45v22.92h-6.44V728.45Z" transform="translate(0 -332.98)"/>
    <path d="M1781,724.37c-.63-11.67-.1-15.88,7-17.37v17.37Z" transform="translate(0 -332.98)"/>
    <path d="M1790.33,707.5c4.93.76,7.55,5.32,6.36,16.84h-6.36Z" transform="translate(0 -332.98)"/>
    <path d="M1796.33,593.79v23.09h-6.52V593.79Z" transform="translate(0 -332.98)"/>
    <path d="M1787.42,616.86h-6.86v-23h6.86Z" transform="translate(0 -332.98)"/>
    <path d="M1787.44,573v16.79h-6.74C1779.38,578.69,1781.75,572.78,1787.44,573Z" transform="translate(0 -332.98)"/>
    <path d="M1796.24,589.83h-6.39v-16.5C1794.49,573.87,1797.5,577.94,1796.24,589.83Z" transform="translate(0 -332.98)"/>
    <path d="M1786.47,900.14h-6.79V877.25h6.79Z" transform="translate(0 -332.98)"/>
    <path d="M1788.92,877.15h6.41v23h-6.44Z" transform="translate(0 -332.98)"/>
    <path d="M1786.51,856.1v17h-6.75C1778.72,862.9,1779.91,856,1786.51,856.1Z" transform="translate(0 -332.98)"/>
    <path d="M1788.94,873.32V856.25c3.88.09,6.53,4.23,6.55,10.14,0,6.93,0,6.93-4.26,6.93Z" transform="translate(0 -332.98)"/>
  </g>
  <path d="M127,359" transform="translate(0 -332.98)" style="fill: #fff"/>
  <g>
    <circle cx="131.5" cy="13.52" r="4.5" style="fill: #fff40a"/>
    <polyline id="light3" points="131.18 5.89 582.47 78.31 639.43 219.55 139.9 17.61" style="fill: #fff40a;opacity: 0.2"/>
  </g>
  <circle cx="1788.5" cy="12.52" r="4.5" style="fill: #fff40a"/>
  <g>
    <ellipse cx="449.5" cy="238.33" rx="3.5" ry="2.69" style="fill: #fff40a"/>
    <polyline id="light2" points="449.58 236.2 581.87 186.64 619.21 221.55 453.75 238.46" style="fill: #fff40a;opacity: 0.2"/>
  </g>
  <polyline id="light4" points="1794.9 12.27 1305 222.02 1301.99 159.03 1295.83 109.06 1781.11 7.88" style="fill: #fff40a;opacity: 0.2"/>
  <g>
    <ellipse cx="1443.47" cy="575.08" rx="2.79" ry="3.68" transform="translate(-57.92 642.28) rotate(-36.65)" style="fill: #fff40a"/>
    <polyline id="light" points="1442.42 244.16 1310.74 213.91 1296 157.02 1440.02 239.43" style="fill: #fff40a;opacity: 0.2"/>
  </g>
</svg>
