<svg id="Layer_1" data-name="Layer 1" xmlns="http://www.w3.org/2000/svg" viewBox="0 0 1920.33 748.11">
  <title>avas-vann_landing</title>
  <g>
    <path d="M188.09,519.63v14.2c-3.34-1.55-5,2.52-7.27,4.83-4,4.16-7,9-4.91,17.44a7.47,7.47,0,0,1,0,1.44l-4.15,2.38q13.3,224.49,26.61,449.1H263v69.09H-.33v-69H2.06c19.91,0,39.81,0,59.71,0,1.91,0,2.47-.68,2.65-3.91,1.13-21.15,2.48-42.27,3.73-63.4.79-13.19,1.51-26.38,2.29-39.56q1.74-29.41,3.52-58.82,2-34,4-68,1.9-32.21,3.86-64.39Q83.57,681,85.31,651c1-17.85,2.15-35.7,3.2-53.56.73-12.3,1.4-24.61,2.12-37.24l-4.55-2.64c.26-2.86.49-5.76.81-8.63.2-1.88,0-3.27-1-4.48a80.66,80.66,0,0,1-5-6.34c-2-2.87-4.08-5.59-7.24-4.23V519.63ZM70.3,1009H192.12c-1.56-27.18-3.09-54-4.63-81H75C73.4,955.06,71.85,981.91,70.3,1009ZM181.93,832.9c0-.79.08-1.12.06-1.44-1.05-17.53-2.16-35.05-3.09-52.6-.18-3.28-.68-4.35-2.84-4.34-30.05.12-60.09.08-90.13.09-.72,0-1.44.13-2.17.2-1.12,19.52-2.22,38.65-3.34,58.09Zm-9-155c0-1.25,0-2.12,0-3-.77-13.4-1.62-26.79-2.3-40.2-.14-2.75-.7-3.37-2.34-3.36-24.77.08-49.54.06-74.31.07-.66,0-1.31.1-2,.15-.88,15.6-1.74,30.82-2.62,46.33Zm-26.35,33.6c.33-5.66.32-5.63-2.58-7.92-3.62-2.87-7.19-5.87-10.86-8.58a2.51,2.51,0,0,0-2.79-.11c-4,2.77-8,5.85-12,8.76-2.91,2.14-3,2.36-2.26,7.73l2.54.51v43.64H145v-3.73c0-12.26,0-24.52,0-36.78C144.93,713,144.91,711.29,146.57,711.54ZM118.25,577.48v43.45h26.23V578.11l.48.31a10.13,10.13,0,0,0,1.2-2.93c.16-1.82.39-3.77-1.18-5-4.21-3.17-8.29-6.75-12.51-9.88a2.81,2.81,0,0,0-3,.26c-3.84,2.59-7.61,5.48-11.41,8.22-2.72,2-3,2.94-2.33,7.84Zm25.33,326.9v-4q0-18.23,0-36.45c0-2.07-.07-4,1.85-3.91-.37-2.4.79-5-1.21-6.52-4.38-3.37-8.69-7-13.06-10.39a1.46,1.46,0,0,0-1.68,0c-4.17,3-8.32,6.15-12.46,9.29-2.82,2.13-2.84,2.26-2.17,7.52l2.51.53v43.92Zm-57-370.57-.09.59,5.32,5.51.41-6.1Zm84,5.87,5.47-5.75H170.2C170.32,535.81,170.43,537.41,170.58,539.68Z" transform="translate(0.33 -330)"/>
    <path d="M126.34,356.31c-.81-4.47-1.56-8.62-2.33-12.76-1.14-6.13,1.29-12.2,6-13.39,4.28-1.1,9.52,3.57,8.22,13.29-.28,2.13-.6,4.27-1,6.33s-1,4-1.66,6.35c2.1,1.85,4.23,3.76,6.38,5.63q19.3,16.82,38.6,33.63c1.83,1.59,1.8,1.67,1.3,7.16H164.57c-.07,2-.12,3.74-.18,5.65-.64.07-1.23.18-1.82.2-3.37.07-3-.66-3,5q0,20.35,0,40.72V458h13.32v24.9H89.63V458.22h14.51V408.43h-6v-5.7H80.91c-.57-6-.51-6.19,2.75-9,7.27-6.33,14.57-12.61,21.84-18.93q10-8.72,20-17.48A6.09,6.09,0,0,0,126.34,356.31Zm-19.19,75v20.2h7.69v-20.2Zm49.65,20.32V431.32h-7.22v20.27Zm-41.93-42.92h-7.71v18h7.71Zm34.61-.09v18.09h7.31V408.58Zm-2.86,22.86h-5.09v20.14h5.09Zm0-23a24.8,24.8,0,0,0-4.09.08,2.15,2.15,0,0,0-1.18,1.59c-.09,5.5-.06,11-.06,16.58h5.33Zm16.28,54.25v10.28h7.16V462.65Zm-41.46-11.06v-20.2h-3.58v20.2Zm-3.55-42.94v18h3.55v-18ZM92.36,473h5.55V462.67H92.36Zm49.09,0h5.07V462.74h-5.07Zm-23.59,0h3.62v-10.3h-3.62Zm35.62-10.34V473h3.3V462.63Zm-52.52,0V473h3.16V462.6Zm9,10.42V462.68h-2.79V473Zm3-10.38v10.59l1.84-.28V462.64Zm2.16-6.32-.36-.87c-2.25,0-4.5-.09-6.74.08-.41,0-.79,1.1-1.18,1.69l.36.88c2.25,0,4.5.09,6.74-.08C114.38,458,114.76,456.91,115.15,456.32Zm34.54-.88-.4.83c.39.61.76,1.71,1.16,1.75,2.11.17,4.22.08,6.33.08l.33-1c-.43-.54-.84-1.52-1.28-1.55C153.79,455.35,151.74,455.44,149.69,455.44Zm-8.16,2.47c4.87.64,5.06.55,4.92-2.23C142,454.89,141.53,455.08,141.53,457.91Zm8.13,15.17c1.52-2.52,1.31-9.33,0-10.44ZM118,455.7c-.13,2.73.25,3,3.47,2.05C121.44,455.06,121.41,455.05,118,455.7Zm41.6,16.44h.26v-8.43h-.26Z" transform="translate(0.33 -330)"/>
    <path d="M169.28,486.94V516.7h-76V486.94Z" transform="translate(0.33 -330)"/>
    <path id="window" d="M146.57,711.54c-1.66-.25-1.64,1.5-1.64,3.52,0,12.26,0,24.52,0,36.78v3.73H118.67V711.93l-2.54-.51c-.74-5.37-.65-5.59,2.26-7.73,4-2.91,7.92-6,12-8.76a2.51,2.51,0,0,1,2.79.11c3.67,2.71,7.24,5.71,10.86,8.58C146.89,705.91,146.9,705.88,146.57,711.54Zm-22.9,13.84v22.93h6.87V725.38Zm15.77.07H133v22.92h6.4Zm-15.76-4.08h6.95V704C123.58,705.49,123.05,709.7,123.68,721.37ZM133,704.5v16.84h6.36C140.55,709.82,137.93,705.26,133,704.5Z" transform="translate(0.33 -330)" style="fill: #fff"/>
    <path id="window-2" data-name="window" d="M118.25,577.48l-2.55-.5c-.71-4.9-.39-5.89,2.33-7.84,3.8-2.74,7.57-5.63,11.41-8.22a2.81,2.81,0,0,1,3-.26c4.22,3.13,8.3,6.71,12.51,9.88,1.57,1.18,1.34,3.13,1.18,5a10.13,10.13,0,0,1-1.2,2.93l-.48-.31v42.82H118.25ZM139,590.79h-6.52v23.09H139Zm-8.9,23.07v-23h-6.86v23Zm0-43.9c-5.69-.18-8.06,5.73-6.74,16.79h6.74Zm8.8,16.87c1.26-11.89-1.75-16-6.39-16.5v16.5Z" transform="translate(0.33 -330)" style="fill: #fff"/>
    <path id="window-3" data-name="window" d="M143.58,904.38H117.35V860.46l-2.51-.53c-.67-5.26-.65-5.39,2.17-7.52,4.14-3.14,8.29-6.26,12.46-9.29a1.46,1.46,0,0,1,1.68,0c4.37,3.41,8.68,7,13.06,10.39,2,1.54.84,4.12,1.21,6.52-1.92-.13-1.86,1.84-1.85,3.91q0,18.23,0,36.45Zm-14.44-7.24V874.25h-6.79v22.89Zm2.45-23v23H138v-23Zm-2.41-21c-6.6-.1-7.79,6.8-6.75,17h6.75Zm2.43,17.22h2.29c4.28,0,4.28,0,4.26-6.93,0-5.91-2.67-10-6.55-10.14Z" transform="translate(0.33 -330)" style="fill: #fff"/>
    <path d="M123.67,725.38h6.87v22.93h-6.87Z" transform="translate(0.33 -330)"/>
    <path d="M139.44,725.45v22.92H133V725.45Z" transform="translate(0.33 -330)"/>
    <path d="M123.68,721.37c-.63-11.67-.1-15.88,6.95-17.37v17.37Z" transform="translate(0.33 -330)"/>
    <path d="M133,704.5c4.93.76,7.55,5.32,6.36,16.84H133Z" transform="translate(0.33 -330)"/>
    <path d="M139,590.79v23.09h-6.52V590.79Z" transform="translate(0.33 -330)"/>
    <path d="M130.09,613.86h-6.86v-23h6.86Z" transform="translate(0.33 -330)"/>
    <path d="M130.11,570v16.79h-6.74C122.05,575.69,124.42,569.78,130.11,570Z" transform="translate(0.33 -330)"/>
    <path d="M138.91,586.83h-6.39v-16.5C137.16,570.87,140.17,574.94,138.91,586.83Z" transform="translate(0.33 -330)"/>
    <path d="M129.14,897.14h-6.79V874.25h6.79Z" transform="translate(0.33 -330)"/>
    <path d="M131.59,874.15H138v23h-6.44Z" transform="translate(0.33 -330)"/>
    <path d="M129.18,853.1v17h-6.75C121.39,859.9,122.58,853,129.18,853.1Z" transform="translate(0.33 -330)"/>
    <path d="M131.61,870.32V853.25c3.88.09,6.53,4.23,6.55,10.14,0,6.93,0,6.93-4.26,6.93Z" transform="translate(0.33 -330)"/>
  </g>
  <g>
    <path d="M481.52,673.29v8.26c-1.9-.9-2.85,1.47-4.12,2.81-2.3,2.42-4,5.2-2.79,10.14a4.53,4.53,0,0,1,0,.84l-2.35,1.39q7.55,130.56,15.08,261.2H524v40.18H374.67V958H376c11.28,0,22.57,0,33.86,0,1.08,0,1.4-.4,1.5-2.28.64-12.3,1.4-24.59,2.12-36.88.44-7.67.85-15.34,1.3-23q1-17.11,2-34.22,1.13-19.77,2.24-39.54,1.08-18.72,2.2-37.45,1-17.48,2-35c.6-10.38,1.23-20.76,1.82-31.15.41-7.15.8-14.31,1.2-21.66l-2.58-1.53c.15-1.66.28-3.35.46-5a3.13,3.13,0,0,0-.6-2.61,43.13,43.13,0,0,1-2.82-3.69c-1.16-1.66-2.32-3.24-4.11-2.45v-8.27Zm-66.8,284.64H483.8c-.88-15.81-1.75-31.43-2.62-47.11H417.36C416.48,926.54,415.61,942.16,414.72,957.93ZM478,855.49c0-.46,0-.65,0-.84-.59-10.19-1.22-20.38-1.75-30.59-.1-1.9-.39-2.53-1.61-2.52-17,.07-34.08,0-51.11.05-.41,0-.82.07-1.23.11-.64,11.36-1.26,22.48-1.9,33.79Zm-5.11-90.12c0-.73,0-1.24,0-1.74-.44-7.79-.91-15.58-1.3-23.38-.08-1.6-.4-2-1.33-2-14,.05-28.09,0-42.14,0-.37,0-.74.06-1.12.09-.5,9.07-1,17.93-1.49,27ZM458,784.91c.18-3.29.18-3.28-1.47-4.61-2.05-1.67-4.08-3.42-6.15-5a1.4,1.4,0,0,0-1.59-.06c-2.28,1.61-4.52,3.4-6.77,5.09-1.66,1.25-1.71,1.38-1.29,4.5l1.45.29v25.39h14.9v-2.18c0-7.13,0-14.26,0-21.39C457,785.78,457,784.76,458,784.91Zm-16.06-78v25.27h14.87V707.3l.27.19a5.93,5.93,0,0,0,.68-1.71c.09-1.06.22-2.19-.66-2.88-2.39-1.84-4.71-3.92-7.1-5.74a1.54,1.54,0,0,0-1.72.15c-2.18,1.5-4.31,3.18-6.47,4.77-1.54,1.14-1.72,1.72-1.32,4.57Zm14.36,190.12v-2.33c0-7.07,0-14.13,0-21.2,0-1.2,0-2.35,1.05-2.28-.2-1.39.45-2.89-.69-3.79-2.48-2-4.92-4.06-7.4-6a.81.81,0,0,0-1,0c-2.37,1.76-4.72,3.57-7.07,5.4-1.6,1.24-1.61,1.31-1.23,4.37l1.43.31v25.54ZM424,681.54l-.05.34,3,3.21.23-3.55ZM471.59,685l3.1-3.34h-3.32C471.44,682.7,471.5,683.63,471.59,685Z" transform="translate(0.33 -330)"/>
    <path d="M446.5,578.3c-.46-2.6-.88-5-1.32-7.42-.64-3.57.73-7.1,3.38-7.79,2.42-.64,5.4,2.08,4.66,7.73-.16,1.24-.34,2.48-.59,3.68s-.59,2.34-.95,3.7c1.2,1.07,2.41,2.18,3.62,3.27L477.2,601c1,.92,1,1,.73,4.17h-9.75c0,1.18-.07,2.17-.1,3.28-.36,0-.7.11-1,.12-1.91,0-1.7-.38-1.71,2.91q0,11.85,0,23.68v2.25h7.56v14.49H425.69V637.57h8.23v-29H430.5V605.3h-9.76c-.32-3.46-.29-3.6,1.56-5.25,4.12-3.68,8.26-7.33,12.39-11L446,578.87A3.25,3.25,0,0,0,446.5,578.3Zm-10.88,43.6v11.75H440V621.9Zm28.16,11.82V621.93h-4.1v11.79Zm-23.78-25h-4.37v10.48H440Zm19.63,0v10.51h4.14V608.71ZM458,622h-2.88v11.71H458Zm0-13.4a14.66,14.66,0,0,0-2.32,0,1.29,1.29,0,0,0-.67.93c0,3.2,0,6.4,0,9.64h3Zm9.23,31.55v6h4.06v-6Zm-23.51-6.43V622h-2v11.75Zm-2-25v10.49h2V608.74Zm-14.47,37.44h3.14v-6h-3.14Zm27.83,0h2.87v-6h-2.87Zm-13.38,0h2.06v-6h-2.06Zm20.21-6v6h1.87v-6Zm-29.79,0v6.06h1.79v-6.06Zm5.09,6.06v-6h-1.58v6Zm1.73-6v6.16l1-.17v-6Zm1.23-3.68L440,636c-1.27,0-2.55-.05-3.82,0-.23,0-.44.64-.67,1l.21.51c1.27,0,2.55,0,3.82,0C439.72,637.44,439.94,636.81,440.16,636.47Zm19.59-.51-.23.48c.22.36.43,1,.66,1,1.19.1,2.39,0,3.59,0l.18-.6c-.24-.31-.47-.88-.72-.9C462.07,635.91,460.91,636,459.75,636Zm-4.64,1.44c2.77.36,2.88.31,2.8-1.3C455.36,635.64,455.11,635.75,455.11,637.4Zm4.62,8.82c.86-1.47.74-5.43,0-6.07Zm-18-10.11c-.07,1.59.15,1.72,2,1.19C443.72,635.74,443.71,635.73,441.76,636.11Zm23.59,9.56h.15v-4.9h-.15Z" transform="translate(0.33 -330)"/>
    <path d="M470.85,654.28v17.31h-43.1V654.28Z" transform="translate(0.33 -330)"/>
    <path id="window-4" data-name="window" d="M458,784.91c-1-.15-.94.87-.93,2,0,7.13,0,14.26,0,21.39v2.18h-14.9V785.13l-1.45-.29c-.42-3.12-.37-3.25,1.29-4.5,2.25-1.69,4.49-3.48,6.77-5.09a1.4,1.4,0,0,1,1.59.06c2.07,1.57,4.1,3.32,6.15,5C458.16,781.63,458.16,781.62,458,784.91Zm-13,8V806.3h3.89V793Zm8.94,0H450.3v13.33h3.63ZM445,790.62h3.95V780.53C444.94,781.39,444.64,783.84,445,790.62Zm5.29-9.8v9.79h3.61C454.56,783.91,453.08,781.25,450.28,780.82Z" transform="translate(0.33 -330)" style="fill: #fff"/>
    <path id="window-5" data-name="window" d="M441.92,706.94l-1.45-.29c-.4-2.85-.22-3.43,1.32-4.57,2.16-1.59,4.29-3.27,6.47-4.77a1.54,1.54,0,0,1,1.72-.15c2.39,1.82,4.71,3.9,7.1,5.74.88.69.75,1.82.66,2.88a5.93,5.93,0,0,1-.68,1.71l-.27-.19v24.91H441.92Zm11.76,7.74H450v13.43h3.7Zm-5.05,13.42V714.7h-3.89v13.4Zm0-25.54c-3.23-.1-4.57,3.34-3.82,9.77h3.82Zm5,9.81c.72-6.91-1-9.28-3.62-9.59v9.59Z" transform="translate(0.33 -330)" style="fill: #fff"/>
    <path id="window-6" data-name="window" d="M456.28,897.06H441.41V871.52l-1.43-.31c-.38-3.06-.37-3.13,1.23-4.37,2.35-1.83,4.7-3.64,7.07-5.4a.81.81,0,0,1,1,0c2.48,2,4.92,4.08,7.4,6,1.14.9.49,2.4.69,3.79-1.08-.07-1.05,1.08-1.05,2.28,0,7.07,0,14.13,0,21.2Zm-8.19-4.2V879.54h-3.85v13.32Zm1.39-13.38v13.38h3.65V879.48Zm-1.37-12.24c-3.74-.06-4.41,4-3.82,9.89h3.82Zm1.38,10h1.3c2.43,0,2.43,0,2.42-4,0-3.44-1.52-5.85-3.72-5.9Z" transform="translate(0.33 -330)" style="fill: #fff"/>
    <path d="M445,793h3.89V806.3H445Z" transform="translate(0.33 -330)"/>
    <path d="M453.93,793v13.33H450.3V793Z" transform="translate(0.33 -330)"/>
    <path d="M445,790.62c-.35-6.78-.05-9.23,3.95-10.09v10.09Z" transform="translate(0.33 -330)"/>
    <path d="M450.28,780.82c2.8.43,4.28,3.09,3.61,9.79h-3.61Z" transform="translate(0.33 -330)"/>
    <path d="M453.68,714.68v13.43H450V714.68Z" transform="translate(0.33 -330)"/>
    <path d="M448.63,728.1h-3.89V714.7h3.89Z" transform="translate(0.33 -330)"/>
    <path d="M448.64,702.56v9.77h-3.82C444.07,705.9,445.41,702.46,448.64,702.56Z" transform="translate(0.33 -330)"/>
    <path d="M453.63,712.37H450v-9.59C452.64,703.09,454.35,705.46,453.63,712.37Z" transform="translate(0.33 -330)"/>
    <path d="M448.09,892.86h-3.85V879.54h3.85Z" transform="translate(0.33 -330)"/>
    <path d="M449.48,879.48h3.65v13.38h-3.65Z" transform="translate(0.33 -330)"/>
    <path d="M448.11,867.24v9.89h-3.82C443.7,871.19,444.37,867.18,448.11,867.24Z" transform="translate(0.33 -330)"/>
    <path d="M449.49,877.26v-9.93c2.2,0,3.71,2.46,3.72,5.9,0,4,0,4-2.42,4Z" transform="translate(0.33 -330)"/>
  </g>
  <g>
    <path d="M1474.52,678.29v8.26c-1.9-.9-2.85,1.47-4.12,2.81-2.3,2.42-4,5.2-2.79,10.14a4.53,4.53,0,0,1,0,.84l-2.35,1.39q7.55,130.56,15.08,261.2H1517v40.18H1367.67V963H1369c11.28,0,22.57,0,33.86,0,1.08,0,1.4-.4,1.5-2.28.64-12.3,1.4-24.59,2.12-36.88.44-7.67.85-15.34,1.3-23q1-17.11,2-34.22,1.13-19.77,2.24-39.54,1.08-18.72,2.2-37.45,1-17.48,2-35c.6-10.38,1.23-20.76,1.82-31.15.41-7.15.8-14.31,1.2-21.66l-2.58-1.53c.15-1.66.28-3.35.46-5a3.13,3.13,0,0,0-.6-2.61,43.13,43.13,0,0,1-2.82-3.69c-1.16-1.66-2.32-3.24-4.11-2.45v-8.27Zm-66.8,284.64h69.08c-.88-15.81-1.75-31.43-2.62-47.11h-63.82C1409.48,931.54,1408.61,947.16,1407.72,962.93ZM1471,860.49c0-.46,0-.65,0-.84-.59-10.19-1.22-20.38-1.75-30.59-.1-1.9-.39-2.53-1.61-2.52-17,.07-34.08,0-51.11.05-.41,0-.82.07-1.23.11-.64,11.36-1.26,22.48-1.9,33.79Zm-5.11-90.12c0-.73,0-1.24,0-1.74-.44-7.79-.91-15.58-1.3-23.38-.08-1.6-.4-2-1.33-2-14,.05-28.09,0-42.14,0-.37,0-.74.06-1.12.09-.5,9.07-1,17.93-1.49,27ZM1451,789.91c.18-3.29.18-3.28-1.47-4.61-2-1.67-4.08-3.42-6.15-5a1.4,1.4,0,0,0-1.59-.06c-2.28,1.61-4.52,3.4-6.77,5.09-1.66,1.25-1.71,1.38-1.29,4.5l1.45.29v25.39h14.9v-2.18c0-7.13,0-14.26,0-21.39C1450,790.78,1450,789.76,1451,789.91Zm-16.06-78v25.27h14.87V712.3l.27.19a5.93,5.93,0,0,0,.68-1.71c.09-1.06.22-2.19-.66-2.88-2.39-1.84-4.71-3.92-7.1-5.74a1.54,1.54,0,0,0-1.72.15c-2.18,1.5-4.31,3.18-6.47,4.77-1.54,1.14-1.72,1.72-1.32,4.57Zm14.36,190.12v-2.33c0-7.07,0-14.13,0-21.2,0-1.2,0-2.35,1-2.28-.2-1.39.45-2.89-.69-3.79-2.48-2-4.92-4.06-7.4-6a.81.81,0,0,0-1,0c-2.37,1.76-4.72,3.57-7.07,5.4-1.6,1.24-1.61,1.31-1.23,4.37l1.43.31v25.54ZM1417,686.54l0,.34,3,3.21.23-3.55Zm47.61,3.41,3.1-3.34h-3.32C1464.44,687.7,1464.5,688.63,1464.59,690Z" transform="translate(0.33 -330)"/>
    <path d="M1439.5,583.3c-.46-2.6-.88-5-1.32-7.42-.64-3.57.73-7.1,3.38-7.79,2.42-.64,5.4,2.08,4.66,7.73-.16,1.24-.34,2.48-.59,3.68s-.59,2.34-1,3.7c1.2,1.07,2.41,2.18,3.62,3.27q11,9.78,21.9,19.56c1,.92,1,1,.73,4.17h-9.75c0,1.18-.07,2.17-.1,3.28-.36,0-.7.11-1,.12-1.91,0-1.7-.38-1.71,2.91q0,11.85,0,23.68v2.25h7.56v14.49h-47.21V642.57h8.23v-29h-3.42V610.3h-9.76c-.32-3.46-.29-3.6,1.56-5.25,4.12-3.68,8.26-7.33,12.39-11L1439,583.87A3.25,3.25,0,0,0,1439.5,583.3Zm-10.88,43.6v11.75H1433V626.9Zm28.16,11.82V626.93h-4.1v11.79Zm-23.78-25h-4.37v10.48H1433Zm19.63,0v10.51h4.14V613.71ZM1451,627h-2.88v11.71H1451Zm0-13.4a14.66,14.66,0,0,0-2.32,0,1.29,1.29,0,0,0-.67.93c0,3.2,0,6.4,0,9.64h3Zm9.23,31.55v6h4.06v-6Zm-23.51-6.43V627h-2v11.75Zm-2-25v10.49h2V613.74Zm-14.47,37.44h3.14v-6h-3.14Zm27.83,0h2.87v-6h-2.87Zm-13.38,0h2.06v-6h-2.06Zm20.21-6v6h1.87v-6Zm-29.79,0v6.06h1.79v-6.06Zm5.09,6.06v-6h-1.58v6Zm1.73-6v6.16l1-.17v-6Zm1.23-3.68L1433,641c-1.27,0-2.55-.05-3.82,0-.23,0-.44.64-.67,1l.21.51c1.27,0,2.55,0,3.82,0C1432.72,642.44,1432.94,641.81,1433.16,641.47Zm19.59-.51-.23.48c.22.36.43,1,.66,1,1.19.1,2.39,0,3.59,0l.18-.6c-.24-.31-.47-.88-.72-.9C1455.07,640.91,1453.91,641,1452.75,641Zm-4.64,1.44c2.77.36,2.88.31,2.8-1.3C1448.36,640.64,1448.11,640.75,1448.11,642.4Zm4.62,8.82c.86-1.47.74-5.43,0-6.07Zm-18-10.11c-.07,1.59.15,1.72,2,1.19C1436.72,640.74,1436.71,640.73,1434.76,641.11Zm23.59,9.56h.15v-4.9h-.15Z" transform="translate(0.33 -330)"/>
    <path d="M1463.85,659.28v17.31h-43.1V659.28Z" transform="translate(0.33 -330)"/>
    <path id="window-7" data-name="window" d="M1451,789.91c-1-.15-.94.87-.93,2,0,7.13,0,14.26,0,21.39v2.18h-14.9V790.13l-1.45-.29c-.42-3.12-.37-3.25,1.29-4.5,2.25-1.69,4.49-3.48,6.77-5.09a1.4,1.4,0,0,1,1.59.06c2.07,1.57,4.1,3.32,6.15,5C1451.16,786.63,1451.16,786.62,1451,789.91Zm-13,8V811.3h3.89V798Zm8.94,0h-3.63v13.33h3.63Zm-8.94-2.38h4V785.53C1437.94,786.39,1437.64,788.84,1438,795.62Zm5.29-9.8v9.79h3.61C1447.56,788.91,1446.08,786.25,1443.28,785.82Z" transform="translate(0.33 -330)" style="fill: #fff"/>
    <path id="window-8" data-name="window" d="M1434.92,711.94l-1.45-.29c-.4-2.85-.22-3.43,1.32-4.57,2.16-1.59,4.29-3.27,6.47-4.77a1.54,1.54,0,0,1,1.72-.15c2.39,1.82,4.71,3.9,7.1,5.74.88.69.75,1.82.66,2.88a5.93,5.93,0,0,1-.68,1.71l-.27-.19v24.91h-14.87Zm11.76,7.74H1443v13.43h3.7Zm-5,13.42V719.7h-3.89v13.4Zm0-25.54c-3.23-.1-4.57,3.34-3.82,9.77h3.82Zm5,9.81c.72-6.91-1-9.28-3.62-9.59v9.59Z" transform="translate(0.33 -330)" style="fill: #fff"/>
    <path id="window-9" data-name="window" d="M1449.28,902.06h-14.87V876.52l-1.43-.31c-.38-3.06-.37-3.13,1.23-4.37,2.35-1.83,4.7-3.64,7.07-5.4a.81.81,0,0,1,1,0c2.48,2,4.92,4.08,7.4,6,1.14.9.49,2.4.69,3.79-1.08-.07-1,1.08-1,2.28,0,7.07,0,14.13,0,21.2Zm-8.19-4.2V884.54h-3.85v13.32Zm1.39-13.38v13.38h3.65V884.48Zm-1.37-12.24c-3.74-.06-4.41,4-3.82,9.89h3.82Zm1.38,10h1.3c2.43,0,2.43,0,2.42-4,0-3.44-1.52-5.85-3.72-5.9Z" transform="translate(0.33 -330)" style="fill: #fff"/>
    <path d="M1438,798h3.89V811.3H1438Z" transform="translate(0.33 -330)"/>
    <path d="M1446.93,798v13.33h-3.63V798Z" transform="translate(0.33 -330)"/>
    <path d="M1438,795.62c-.35-6.78,0-9.23,4-10.09v10.09Z" transform="translate(0.33 -330)"/>
    <path d="M1443.28,785.82c2.8.43,4.28,3.09,3.61,9.79h-3.61Z" transform="translate(0.33 -330)"/>
    <path d="M1446.68,719.68v13.43H1443V719.68Z" transform="translate(0.33 -330)"/>
    <path d="M1441.63,733.1h-3.89V719.7h3.89Z" transform="translate(0.33 -330)"/>
    <path d="M1441.64,707.56v9.77h-3.82C1437.07,710.9,1438.41,707.46,1441.64,707.56Z" transform="translate(0.33 -330)"/>
    <path d="M1446.63,717.37H1443v-9.59C1445.64,708.09,1447.35,710.46,1446.63,717.37Z" transform="translate(0.33 -330)"/>
    <path d="M1441.09,897.86h-3.85V884.54h3.85Z" transform="translate(0.33 -330)"/>
    <path d="M1442.48,884.48h3.65v13.38h-3.65Z" transform="translate(0.33 -330)"/>
    <path d="M1441.11,872.24v9.89h-3.82C1436.7,876.19,1437.37,872.18,1441.11,872.24Z" transform="translate(0.33 -330)"/>
    <path d="M1442.49,882.26v-9.93c2.2,0,3.71,2.46,3.72,5.9,0,4,0,4-2.42,4Z" transform="translate(0.33 -330)"/>
  </g>
  <g>
    <path d="M1845.09,519.63v14.2c-3.34-1.55-5,2.52-7.27,4.83-4,4.16-7,9-4.91,17.44a7.47,7.47,0,0,1,0,1.44l-4.15,2.38q13.31,224.49,26.61,449.1H1920v69.09H1656.67v-69h2.39c19.91,0,39.81,0,59.71,0,1.91,0,2.47-.68,2.65-3.91,1.13-21.15,2.48-42.27,3.73-63.4.79-13.19,1.51-26.38,2.29-39.56q1.74-29.41,3.52-58.82,2-34,4-68,1.9-32.21,3.86-64.39,1.79-30.06,3.53-60.14c1-17.85,2.15-35.7,3.2-53.56.73-12.3,1.4-24.61,2.12-37.24l-4.55-2.64c.26-2.86.49-5.76.81-8.63.2-1.88,0-3.27-1.05-4.48a80.66,80.66,0,0,1-5-6.34c-2-2.87-4.08-5.59-7.24-4.23V519.63ZM1727.3,1009h121.82c-1.56-27.18-3.09-54-4.63-81H1732C1730.4,955.06,1728.85,981.91,1727.3,1009ZM1838.93,832.9c0-.79.08-1.12.06-1.44-1-17.53-2.16-35.05-3.09-52.6-.18-3.28-.68-4.35-2.84-4.34-30,.12-60.09.08-90.13.09-.72,0-1.44.13-2.17.2-1.12,19.52-2.22,38.65-3.34,58.09Zm-9-155c0-1.25,0-2.12,0-3-.77-13.4-1.62-26.79-2.3-40.2-.14-2.75-.7-3.37-2.34-3.36-24.77.08-49.54.06-74.31.07-.66,0-1.31.1-2,.15-.88,15.6-1.74,30.82-2.62,46.33Zm-26.35,33.6c.33-5.66.32-5.63-2.58-7.92-3.62-2.87-7.19-5.87-10.86-8.58a2.51,2.51,0,0,0-2.79-.11c-4,2.77-8,5.85-11.95,8.76-2.91,2.14-3,2.36-2.26,7.73l2.54.51v43.64H1802v-3.73c0-12.26,0-24.52,0-36.78C1801.93,713,1801.91,711.29,1803.57,711.54Zm-28.32-134.06v43.45h26.23V578.11l.48.31a10.13,10.13,0,0,0,1.2-2.93c.16-1.82.39-3.77-1.18-5-4.21-3.17-8.29-6.75-12.51-9.88a2.81,2.81,0,0,0-3,.26c-3.84,2.59-7.61,5.48-11.41,8.22-2.72,2-3,2.94-2.33,7.84Zm25.33,326.9v-4q0-18.23,0-36.45c0-2.07-.07-4,1.85-3.91-.37-2.4.79-5-1.21-6.52-4.38-3.37-8.69-7-13.06-10.39a1.46,1.46,0,0,0-1.68,0c-4.17,3-8.32,6.15-12.46,9.29-2.82,2.13-2.84,2.26-2.17,7.52l2.51.53v43.92Zm-57-370.57-.09.59,5.32,5.51.41-6.1Zm84,5.87,5.47-5.75h-5.85C1827.32,535.81,1827.43,537.41,1827.58,539.68Z" transform="translate(0.33 -330)"/>
    <path d="M1783.34,356.31c-.81-4.47-1.56-8.62-2.33-12.76-1.14-6.13,1.29-12.2,6-13.39,4.28-1.1,9.52,3.57,8.22,13.29-.28,2.13-.6,4.27-1,6.33s-1,4-1.66,6.35c2.1,1.85,4.23,3.76,6.38,5.63q19.31,16.82,38.6,33.63c1.83,1.59,1.8,1.67,1.3,7.16h-17.19c-.07,2-.12,3.74-.18,5.65-.64.07-1.23.18-1.82.2-3.37.07-3-.66-3,5q0,20.35,0,40.72V458h13.32v24.9h-83.25V458.22h14.51V408.43h-6v-5.7h-17.21c-.57-6-.51-6.19,2.75-9,7.27-6.33,14.57-12.61,21.84-18.93q10-8.72,20-17.48A6.09,6.09,0,0,0,1783.34,356.31Zm-19.19,75v20.2h7.69v-20.2Zm49.65,20.32V431.32h-7.22v20.27Zm-41.93-42.92h-7.71v18h7.71Zm34.61-.09v18.09h7.31V408.58Zm-2.86,22.86h-5.09v20.14h5.09Zm0-23a24.8,24.8,0,0,0-4.09.08,2.15,2.15,0,0,0-1.18,1.59c-.09,5.5-.06,11-.06,16.58h5.33Zm16.28,54.25v10.28h7.16V462.65Zm-41.46-11.06v-20.2h-3.58v20.2Zm-3.55-42.94v18h3.55v-18ZM1749.36,473h5.55V462.67h-5.55Zm49.09,0h5.07V462.74h-5.07Zm-23.59,0h3.62v-10.3h-3.62Zm35.62-10.34V473h3.3V462.63Zm-52.52,0V473h3.16V462.6Zm9,10.42V462.68h-2.79V473Zm3-10.38v10.59l1.84-.28V462.64Zm2.16-6.32-.36-.87c-2.25,0-4.5-.09-6.74.08-.41,0-.79,1.1-1.18,1.69l.36.88c2.25,0,4.5.09,6.74-.08C1771.38,458,1771.76,456.91,1772.15,456.32Zm34.54-.88-.4.83c.39.61.76,1.71,1.16,1.75,2.11.17,4.22.08,6.33.08l.33-1c-.43-.54-.84-1.52-1.28-1.55C1810.79,455.35,1808.74,455.44,1806.69,455.44Zm-8.16,2.47c4.87.64,5.06.55,4.92-2.23C1799,454.89,1798.53,455.08,1798.53,457.91Zm8.13,15.17c1.52-2.52,1.31-9.33,0-10.44ZM1775,455.7c-.13,2.73.25,3,3.47,2.05C1778.44,455.06,1778.41,455.05,1775,455.7Zm41.6,16.44h.26v-8.43h-.26Z" transform="translate(0.33 -330)"/>
    <path d="M1826.28,486.94V516.7h-76V486.94Z" transform="translate(0.33 -330)"/>
    <path id="window-10" data-name="window" d="M1803.57,711.54c-1.66-.25-1.64,1.5-1.64,3.52,0,12.26,0,24.52,0,36.78v3.73h-26.29V711.93l-2.54-.51c-.74-5.37-.65-5.59,2.26-7.73,4-2.91,7.92-6,11.95-8.76a2.51,2.51,0,0,1,2.79.11c3.67,2.71,7.24,5.71,10.86,8.58C1803.89,705.91,1803.9,705.88,1803.57,711.54Zm-22.9,13.84v22.93h6.87V725.38Zm15.77.07H1790v22.92h6.4Zm-15.76-4.08h7V704C1780.58,705.49,1780.05,709.7,1780.68,721.37ZM1790,704.5v16.84h6.36C1797.55,709.82,1794.93,705.26,1790,704.5Z" transform="translate(0.33 -330)" style="fill: #fff"/>
    <path id="window-11" data-name="window" d="M1775.25,577.48l-2.55-.5c-.71-4.9-.39-5.89,2.33-7.84,3.8-2.74,7.57-5.63,11.41-8.22a2.81,2.81,0,0,1,3-.26c4.22,3.13,8.3,6.71,12.51,9.88,1.57,1.18,1.34,3.13,1.18,5a10.13,10.13,0,0,1-1.2,2.93l-.48-.31v42.82h-26.23ZM1796,590.79h-6.52v23.09H1796Zm-8.9,23.07v-23h-6.86v23Zm0-43.9c-5.69-.18-8.06,5.73-6.74,16.79h6.74Zm8.8,16.87c1.26-11.89-1.75-16-6.39-16.5v16.5Z" transform="translate(0.33 -330)" style="fill: #fff"/>
    <path id="window-12" data-name="window" d="M1800.58,904.38h-26.23V860.46l-2.51-.53c-.67-5.26-.65-5.39,2.17-7.52,4.14-3.14,8.29-6.26,12.46-9.29a1.46,1.46,0,0,1,1.68,0c4.37,3.41,8.68,7,13.06,10.39,2,1.54.84,4.12,1.21,6.52-1.92-.13-1.86,1.84-1.85,3.91q0,18.23,0,36.45Zm-14.44-7.24V874.25h-6.79v22.89Zm2.45-23v23H1795v-23Zm-2.41-21c-6.6-.1-7.79,6.8-6.75,17h6.75Zm2.43,17.22h2.29c4.28,0,4.28,0,4.26-6.93,0-5.91-2.67-10-6.55-10.14Z" transform="translate(0.33 -330)" style="fill: #fff"/>
    <path d="M1780.67,725.38h6.87v22.93h-6.87Z" transform="translate(0.33 -330)"/>
    <path d="M1796.44,725.45v22.92H1790V725.45Z" transform="translate(0.33 -330)"/>
    <path d="M1780.68,721.37c-.63-11.67-.1-15.88,7-17.37v17.37Z" transform="translate(0.33 -330)"/>
    <path d="M1790,704.5c4.93.76,7.55,5.32,6.36,16.84H1790Z" transform="translate(0.33 -330)"/>
    <path d="M1796,590.79v23.09h-6.52V590.79Z" transform="translate(0.33 -330)"/>
    <path d="M1787.09,613.86h-6.86v-23h6.86Z" transform="translate(0.33 -330)"/>
    <path d="M1787.11,570v16.79h-6.74C1779.05,575.69,1781.42,569.78,1787.11,570Z" transform="translate(0.33 -330)"/>
    <path d="M1795.91,586.83h-6.39v-16.5C1794.16,570.87,1797.17,574.94,1795.91,586.83Z" transform="translate(0.33 -330)"/>
    <path d="M1786.14,897.14h-6.79V874.25h6.79Z" transform="translate(0.33 -330)"/>
    <path d="M1788.59,874.15H1795v23h-6.44Z" transform="translate(0.33 -330)"/>
    <path d="M1786.18,853.1v17h-6.75C1778.39,859.9,1779.58,853,1786.18,853.1Z" transform="translate(0.33 -330)"/>
    <path d="M1788.61,870.32V853.25c3.88.09,6.53,4.23,6.55,10.14,0,6.93,0,6.93-4.26,6.93Z" transform="translate(0.33 -330)"/>
  </g>
</svg>
